<?xml version="1.0" encoding="UTF-8"?>
<svg id="Calque_2" data-name="Calque 2" xmlns="http://www.w3.org/2000/svg" viewBox="0 0 210.99 120.52">
  <defs>
    <style>
      .cls-1 {
        fill: #202020;
        stroke-width: 0px;
      }
    </style>
  </defs>
  <g id="Layer_1" data-name="Layer 1">
    <g>
      <g>
        <path class="cls-1" d="m163.42,86.26c.2-.15,0-.25,0-.3-.28.31.05.34,0,.3Z"/>
        <path class="cls-1" d="m155.91,92.02s-.06.02-.09.02c-.06.05-.15.12-.31.23.18.04-.28.36.4-.25Z"/>
        <path class="cls-1" d="m155.82,92.05c.31-.25-.28.07,0,0h0Z"/>
        <path class="cls-1" d="m154.38,93.21c.12-.13.25-.26.37-.39-.13,0-.54.24-.43.09-.42.35-.28.36.06.3Z"/>
        <path class="cls-1" d="m154.1,93.7l.2-.19c-.06,0-.13.03-.2.19Z"/>
        <path class="cls-1" d="m154.5,93.33c.02.11.06-.03.22-.23l-.43.41c.1,0,.17.1.2-.18Z"/>
        <path class="cls-1" d="m155.29,93.06c.78-.66.51-.77-.26-.11.28-.12.62-.31.26.11Z"/>
        <path class="cls-1" d="m151.51,94.85c.01.08.26.07.35.13l.28-.29c-.2.07-.54.23-.63.15Z"/>
        <path class="cls-1" d="m151.85,94.99l-.42.43c.45-.27.49-.38.42-.43Z"/>
        <polygon class="cls-1" points="149.82 95.73 149.46 96.28 149.63 96.06 149.82 95.73"/>
        <path class="cls-1" d="m148.41,96.9c.14-.25-.42-.04-.24-.25-.34.22-.58.49-.79.73.26-.21.57-.37,1.03-.48Z"/>
        <path class="cls-1" d="m147,97.77c.13-.11.24-.25.37-.39-.14.11-.26.24-.37.39Z"/>
        <path class="cls-1" d="m150.57,95.93c-.06-.01-.2-.07-.5.07l.31.06c.06-.04.13-.08.2-.12Z"/>
        <path class="cls-1" d="m150.39,96.05h-.01c-.19.11-.32.2-.4.24.07-.04.19-.12.41-.24Z"/>
        <path class="cls-1" d="m149.98,96.3s-.02.01-.03.02l.03-.02Z"/>
        <path class="cls-1" d="m150.62,95.9s-.03.02-.05.03c.03,0,.04,0,.05-.03Z"/>
        <path class="cls-1" d="m148.04,97.43c-.19.21-.44.36-.73.53.33-.14.67-.29.98-.46,0-.08.08-.26-.25-.07Z"/>
        <polygon class="cls-1" points="144.44 99.54 144.5 99.55 144.5 99.51 144.44 99.54"/>
        <path class="cls-1" d="m148.29,97.5c.18-.1.35-.2.49-.32,0,0,0-.02,0-.05.02,0,.04-.02.06-.03.06-.09.12-.18.2-.27.03,0,.06,0,.09,0,0-.09-.04-.19.39-.39.38.15.11.24-.26.64.1-.17-.39.13-.48.09-.09.13-.2.24-.43.32-.07.05-.08.03-.07,0Zm.6-.41c.22-.1.25-.17.25-.23-.07.07-.16.15-.25.23Z"/>
        <path class="cls-1" d="m149.05,96.84l.03-.03c-.1,0-.08.02-.03.03Z"/>
        <polygon class="cls-1" points="144.3 99.24 143.94 99.8 144.29 99.5 144.3 99.24"/>
        <polygon class="cls-1" points="143.11 99.95 142.86 100.23 143.16 100.15 143.11 99.95"/>
        <path class="cls-1" d="m71.48,115.78l-.3.03c.14,0,.23-.02.3-.03Z"/>
        <path class="cls-1" d="m73.65,115.95l.06-.09c-.1.05-.15.08-.06.09Z"/>
        <path class="cls-1" d="m113.07,110.75c-.46-.1-.99-.3-.89-.09l.17.19c.29-.09.52-.11.72-.1Z"/>
        <path class="cls-1" d="m91.37,114.82l.13.06c.1-.08.19-.16.28-.23-.13.05-.26.11-.41.17Z"/>
        <path class="cls-1" d="m90.53,115.64c.13.04.32.07.58.1l-.58-.1Z"/>
        <path class="cls-1" d="m59.66,114.86l-.38.18c.54.06.32-.08.38-.18Z"/>
        <path class="cls-1" d="m131,105.61c-.38.05-.66.12-.91.21.46-.04.86,0,.91-.21Z"/>
        <path class="cls-1" d="m72.48,113.55c-.18.03-.26.06-.26.11.19-.02.3-.06.26-.11Z"/>
        <path class="cls-1" d="m130.09,105.82c-.34.03-.71.11-1,.38.07,0,.13-.01.2-.02.24-.13.48-.26.8-.36Z"/>
        <path class="cls-1" d="m18.02,104.5s-.06-.04-.08-.06c-.02.02.02.04.08.06Z"/>
        <path class="cls-1" d="m7.28,97.83c.12.04.3.11.47.19-.08-.05-.22-.11-.47-.19Z"/>
        <path class="cls-1" d="m138.41,102.34c.24-.13.03-.04,0,0h0Z"/>
        <path class="cls-1" d="m138.82,102.26c-.11.02-.22.05-.35.09.06,0,.17-.03.35-.09Z"/>
        <path class="cls-1" d="m138.73,102.19c.09-.03.16-.06.23-.08.02-.05-.02-.05-.23.08Z"/>
        <path class="cls-1" d="m138.41,102.34c-.07.04-.17.09-.34.17.14-.07.28-.12.42-.17-.06,0-.08,0-.07,0Z"/>
        <path class="cls-1" d="m40.21,110.5s-.03-.02-.05-.03c-.3.02-.17.04.05.03Z"/>
        <path class="cls-1" d="m106.33,114.27l.03-.02s-.03,0-.04,0v.02Z"/>
        <path class="cls-1" d="m105.35,114.56c.39-.32.64-.31.97-.31l-.42-.57-.54.88Z"/>
        <path class="cls-1" d="m19.81,105.1l.05.03s-.03-.02-.05-.03Z"/>
        <path class="cls-1" d="m72.45,115.8h-.11s.08,0,.11,0Z"/>
        <path class="cls-1" d="m46.35,112.62h-.09s.06,0,.09,0Z"/>
        <path class="cls-1" d="m27.14,105.16s-.02-.03-.03-.04l.03.04Z"/>
        <path class="cls-1" d="m91.15,115.63c-.06-.04-.08-.08-.09-.12-.08.05-.08.09.09.12Z"/>
        <path class="cls-1" d="m59.73,114.83h-.03s-.03.02-.04.03l.07-.03Z"/>
        <path class="cls-1" d="m140.9,101.08l.05-.03s-.04.02-.05.03Z"/>
        <path class="cls-1" d="m140.96,101.2s-.14-.06-.06-.12l-.46.27c.26-.13.37-.13.52-.15Z"/>
        <path class="cls-1" d="m137.65,102.87c.2-.04,0-.29.14-.26.1-.33-1.08.84-.14.26Z"/>
        <polygon class="cls-1" points="142.04 102.11 142.42 101.99 142.17 101.83 142.04 102.11"/>
        <path class="cls-1" d="m131.93,106.35c-.04.11.17.08.41-.05.14-.12.39-.25.25-.28l-.66.33Z"/>
        <polygon class="cls-1" points="122.36 109.68 122.46 109.67 122.92 109.55 122.36 109.66 122.25 109.36 122.24 109.9 122.42 109.84 122.36 109.68"/>
        <path class="cls-1" d="m113.41,112.93c.08-.03.16-.08.25-.12-.15.06-.21.1-.25.12Z"/>
        <polygon class="cls-1" points="5.5 96.77 5.03 96.45 5.3 96.75 5.5 96.77"/>
        <path class="cls-1" d="m3.94,96.47c.12.04.36.11.42.21v-.35s-.42.13-.42.13Z"/>
        <path class="cls-1" d="m78.44,116.66l.05-.08c-.09-.09-.22-.1-.49-.12l.44.19Z"/>
        <polygon class="cls-1" points="70.75 116.05 70.88 116.06 70.66 115.75 70.75 116.05"/>
        <path class="cls-1" d="m64.27,115.87c.2.03.44.02.65.04-.46-.08-.68-.37-.65-.04Z"/>
        <path class="cls-1" d="m65.11,115.93c-.06,0-.12-.02-.18-.02.06.01.12.02.18.02Z"/>
        <path class="cls-1" d="m95.45,115.7c-.25,0-.15.2-.18.24.42-.08.17-.3.18-.24Z"/>
        <path class="cls-1" d="m105.11,114.9s.06.02.09.02c.08-.01.2-.03.4-.04-.15-.12.43-.17-.49.02Z"/>
        <path class="cls-1" d="m105.2,114.92c-.41.06.28.08,0,0h0Z"/>
        <path class="cls-1" d="m107.07,114.56l-.52.22c.12.06.6,0,.44.08.54-.17.41-.23.08-.3Z"/>
        <path class="cls-1" d="m107.54,114.21l-.27.1c.05.03.13.02.27-.1Z"/>
        <path class="cls-1" d="m107.01,114.4c.03-.11-.07,0-.31.13l.57-.22c-.09-.04-.11-.16-.26.09Z"/>
        <path class="cls-1" d="m106.17,114.32c-1.02.17-.83.41.19.22-.31-.03-.71-.03-.19-.22Z"/>
        <path class="cls-1" d="m110.43,114.14c.02-.08-.22-.17-.27-.25l-.38.16c.21.01.61,0,.65.1Z"/>
        <path class="cls-1" d="m110.16,113.88l.57-.24c-.53.08-.61.16-.57.24Z"/>
        <polygon class="cls-1" points="112.39 113.97 112.94 113.6 112.7 113.74 112.39 113.97"/>
        <path class="cls-1" d="m114.18,113.43c-.22.2.39.16.15.31.4-.12.72-.33,1-.51-.32.14-.67.21-1.15.2Z"/>
        <path class="cls-1" d="m115.82,112.94c-.16.07-.31.18-.48.29.17-.08.33-.16.48-.29Z"/>
        <path class="cls-1" d="m111.74,113.5c.05.04.17.14.51.13l-.27-.17c-.07.01-.15.03-.23.04Z"/>
        <path class="cls-1" d="m112.44,113.39s.03,0,.03,0c0,0-.02,0-.03,0Z"/>
        <path class="cls-1" d="m111.96,113.46h0c.22-.03.38-.06.47-.07-.08.01-.23.03-.48.07Z"/>
        <path class="cls-1" d="m111.68,113.51s.04,0,.06,0c-.03-.02-.04-.02-.06,0Z"/>
        <path class="cls-1" d="m114.71,113c.25-.16.54-.23.87-.33-.36.04-.73.11-1.08.2-.03.08-.16.23.22.13Z"/>
        <polygon class="cls-1" points="118.83 111.88 118.77 111.86 118.76 111.9 118.83 111.88"/>
        <path class="cls-1" d="m114.49,112.87c-.21.05-.4.11-.58.17,0,.01,0,.02-.02.04-.03,0-.04,0-.07,0-.09.06-.18.12-.29.17-.02-.01-.05-.03-.09-.04-.03.09-.03.19-.52.21-.31-.28-.02-.26.48-.48-.16.12.42.03.49.09.13-.08.27-.16.52-.18.08-.03.08-.01.07.02Zm-.71.21c-.25,0-.3.06-.32.12.1-.04.21-.08.32-.12Z"/>
        <path class="cls-1" d="m113.54,113.24l-.04.02c.1.03.08,0,.04-.02Z"/>
        <polygon class="cls-1" points="118.89 112.21 119.39 111.76 118.97 111.96 118.89 112.21"/>
        <polygon class="cls-1" points="120.26 111.82 120.57 111.62 120.25 111.62 120.26 111.82"/>
        <path class="cls-1" d="m178.92,68.66l.12-.27c-.06.12-.1.21-.12.27Z"/>
        <path class="cls-1" d="m177.71,70.41l.05.1c.01-.11,0-.17-.05-.1Z"/>
        <path class="cls-1" d="m150.32,99.04c.46-.08,1.03-.11.87-.27l-.23-.11c-.24.2-.45.31-.64.38Z"/>
        <path class="cls-1" d="m167.17,84.47l-.14.04c-.03.12-.05.24-.07.35.07-.12.14-.25.21-.38Z"/>
        <path class="cls-1" d="m167.26,83.3c-.12.06-.28.16-.49.31l.49-.31Z"/>
        <path class="cls-1" d="m184.78,58.62l-.03-.4c-.26.47-.05.31.03.4Z"/>
        <path class="cls-1" d="m133.17,107.32c.38-.06.68-.13.93-.21-.47.05-.88,0-.93.21Z"/>
        <path class="cls-1" d="m180.34,70.67c.07-.17.08-.26.04-.29-.08.18-.1.29-.04.29Z"/>
        <path class="cls-1" d="m134.1,107.11c.35-.03.73-.12,1.02-.39-.07,0-.14.02-.21.02-.24.13-.49.26-.82.37Z"/>
        <path class="cls-1" d="m197.8,18.62s.02-.06.04-.09c-.03-.01-.04.03-.04.09Z"/>
        <path class="cls-1" d="m201.49,6.55c0,.12-.02.32-.03.51.02-.09.04-.24.03-.51Z"/>
        <path class="cls-1" d="m125.42,110.21c-.27.1-.04.04,0,0h0Z"/>
        <path class="cls-1" d="m124.98,110.24c.11,0,.23-.02.36-.04-.06,0-.17.01-.36.04Z"/>
        <path class="cls-1" d="m125.07,110.32c-.1.02-.17.04-.24.05-.02.05.01.06.24-.05Z"/>
        <path class="cls-1" d="m125.42,110.21c.08-.03.19-.06.37-.13-.15.05-.3.09-.44.11.06,0,.08,0,.07.01Z"/>
        <path class="cls-1" d="m193.11,40.84s.02-.03.04-.05c0-.3-.03-.17-.04.05Z"/>
        <polygon class="cls-1" points="155.18 93.17 155.16 93.2 155.19 93.18 155.18 93.17"/>
        <path class="cls-1" d="m155.87,92.44c-.18.48-.39.6-.68.74l.62.31.05-1.05Z"/>
        <path class="cls-1" d="m197.52,20.46l-.02.06s.01-.03.02-.06Z"/>
        <path class="cls-1" d="m201.44,4.17v-.5c.29.19-.15,1.56.15,1.87l-.48,1.54c.12-.04.27.23.34-.01-.03.39-.05.73.17.24-.58,1.84-.77,3.73-.91,5.63-.16,1.89-.44,3.77-.92,5.57-.01.25.12.13.21.04-.41.63.05.67.04,1.05l-.59.92c.07.42.25.13.33.18-.21,1.89-.9,3.63-1.03,5.17-.26.44-.32-.18-.52.43.61-.73-.15,1.68.19,1.44-.57.55-.59,2.19-1.16,1.77-.21.74.14.69.24.48-.22.87-.39,1.57-.34,2.33-.18.46-.93,3.99-1.65,4.61.47-.43.15.09.14.63l.41-.37-.37,1.12c-.04.24-.07.3-.1.29-.07.19-.15-.09-.36.37-.25.76-.11.85-.09,1.32l.08-.1-.13.53c-.12.38.14-1.45-.38-.24.07.04.21.9-.09,1.17.21-.64,0-.62-.16-.41l-.29.89.44-.18c-.87,2.54-2.19,5.04-3.17,7.73-.28-.16-.74,1.89-1.1,1.45l.09-.08c.24-.66-.42.04-.62.57.39-.48-.03,1.16.66-.13l-.28,1.11c.56.94-1.35,2.69-1.82,4.36.02-.12,0-.17-.03-.2-.19.75-.61,1.49-.99,2.1-.4.59-.78,1.02-.8,1.21h-.29c-.31,1.31-.36,1.46-1.26,2.73-.02-.04,0-.23-.16-.04-.03.41-.05.83-.62,1.73l-.05-.08-.79,1.46c-.58-.38-1.18,2.62-2.15,2.58,0,.39-.62,1.43-.84,1.94-.03-.02-.08,0-.16.05-.02.76-1.14,1.45-1.5,2.05-.18.44.04.35.26.26-.76.57-1.27,2.2-1.58,2.39-.45.5-.39.01-.64.05-.57.82.65.3-.43,1.15.07-.14.23-.38.13-.32-.37.36-1.62.51-1.8,1.01l.31-.17c-.43.85-1.84,1.29-1.55,1.74l.24.09c-1.26,1.01-.37.57-1.67,1.57l-.02-.04c-.45.54-.93.61-.89,1.13l.2-.14c-.58.65-.65.69-1.28,1.32-.05.1-.3.45-.44.49.2.25-1.32,1.6-1.61,1.88.45-.54.13-.4-.1-.35-.1.49-.31.68-.87.94.21.34.42.73-.41,1.51.09-.16.27-.37.13-.36-.14.02-.28.26-.32.34-.14.02.09-.28-.1-.29-.32.79-.97.91-1.71,1.75.18-.33-.09-.18-.28-.2.23.4-1.39.72-.69.88-.46.3-.95.68-1.44,1.08-.52.37-1.04.76-1.52,1.12-.97.73-1.81,1.36-2.26,1.47-.28,0-.6.59-.9.82l-.08-.19c-.63.93-.57.62-1.36,1.65.28-.49.06-.44-.49-.31l-.48.8-.31-.16c-.22.29-.58.46-.93.63-.1.46-1.23,1.16-1.32,1.44-.54-.14-.81.65-1.25.47-.07.12-.19.25-.31.38.25.05.41.19.08.3-.02.02-.04.03-.06.05l-.25-.12c-.27.24-.55.46-.75.59.1-.04.23-.07.36-.09-.14.04-.29.09-.42.13-.04.03-.08.05-.11.07.02-.02.03-.04.06-.05-.21.06-.43.14-.65.36-1.26.27-2.16,1.76-3.6,1.98.2-.05.47-.17.49-.29-.99.57-2.14.81-2.68,1.32l.15.17c-.68.5-1.26.79-1.87,1.08l.08.24c-.93.33-2.68,1.58-3.44,1.36-.14.29-1.26.51-1.73.81l-.2-.12c-.69.23-1.09.43-1.47.65-1.52.15-2.65,1-3.86,1.44l-.03-.05-1.17.6c.26-.29-.2.21-.58.3-.35.25-1.02.37-1.53.41l-.8.24c.84-.4-.15-.25-.27-.45l-.45.33c-.24-.04.27-.27-.12-.2-.3.22-1.3.52-1.55.84.07.04.2.05.37.05.04-.03.04-.02.01,0h.04s-.02,0-.04,0c-.04.03-.09.09-.11.13-.65.15-.39.16-.34.25-.82-.11-1.15.24-1.81.01.51.13-.13.28-.64.44,0,.07-.1.08-.23.08-.24.09-.38.18-.19.27-.64-.21-.38.07-.8-.13.24-.03.46-.09.68-.18-.15-.03-.29-.05-.39-.03-.89-.11-1.17.54-1.88.59l.47-.3s-.21.01-.4.07c-.54.25-.52.32-.52.41-.08-.03-.16-.06-.23-.1-.04.02-.07.04-.08.06,0-.02,0-.06.01-.1-.24-.14-.44-.32-.5-.49-.54.19-1.01.49-1.29.76,0,.07-.1.15-.2.24-.05.08-.08.15-.08.21.18-.05.33-.09.46-.12l1.34-.59c.07.13-.25.28-.56.43l1.13-.25c-.01.07-.08.16-.48.36-.32-.05-.53-.07-.75-.06-.28.14-.52.29-.45.42l-1.74.32c.16-.05.58-.2.63-.3-.13.01-.27.03-.4.04.11-.04.23-.07.36-.11h-.02c-.73.18-.39.04-.91.03.77-.55,2.1-1.81,2.54-2.36l-.83.39-.26-.11c-1.08.49-1.88,1.81-2.13,2.17-.3.04-.45-.06-.5-.21l-.42.12c.05-.09-.08-.2.4-.26,0-.14.04-.3.1-.36-1.31.23-1.12,1.07-2.47,1.23h.13s.09-.03.09-.03l-.02.04.33.02c-.15.06-.51.11-.82.15l-.42.18c.08-.05.09-.08.07-.12-.12.03-.19.05-.15.08-.27-.1-.56-.39-.38-.55l-.49.35c0,.07-.18.17-.37.27l-.17.12s.04-.03.05-.06c-.04.02-.08.04-.12.06.05-.03.09-.05.12-.08.05-.16-.08-.48-.03-.57-.47.07-.71.69-.4.72-.98-.17-.72-.03-1.53-.29-.18.06-.07.26.09.4l.17-.08.19-.04-.33.14c.07.05.14.09.2.09-.41.16-.71.22-.96.24h-.02s.02,0,.02,0c-.11,0-.21,0-.31.01.99-.39.11-1.11.25-1.51-.65.62-1.31,1.15-1.98,1.73.06-.09.17-.57.15-.62-.1.37-1.88.69-3.19.84-.23.05-.45.09-.65.14l.07-.08h-.12s.12,0,.12,0l.07-.09c-.12-.07-.68-.06-1.06.04l-.51.25.06-.09.25-.09c.05-.06.12-.07.23-.08h.04s-.02,0-.02,0c.03,0,.06,0,.1-.01-.86-.22-1,.78-1.89.5.77-.05.9-.24.84-.4-.61.26-2.08.18-1.73.66-.41-.08-.77.01-.76-.24l-1.52.41c.11-.06.2-.21-.26-.22.87,0,1.67-.52,2.16-.23,0-.31-.34-.45.05-.74-1.65.27-2.52.86-3.56,1.29l-1.49-.12-.05.15-.28-.34c-.18.09-.29.17-.33.14-.04-.03,0-.08.08-.14-.15.03-.29.07-.36.11-.07-.18.18-.42.45-.63.14.06.28.11.41.17.28-.2.47-.4.07-.49-.06.03-.13.06-.2.09.18-.15.28-.26.14-.31l-1.11.25c.13.04.32.13.55.23-.69.29-1.48.62-.84.82-.29-.05-.58-.12-.87-.18-.99.37-.82.3-2.04.59-.07-.12.25-.23.03-.32-.89.42-2.2-.42-2.38-.06-.72.1-.3.31-.76.42.02-.04.06-.12-.07-.12l-.55.27c-.22-.09.5-.19-.12-.28-1.05.22-1.67.36-2.56.2-1.26.03.53.52-.53.44-.15-.21-.29-.46-.95-.51-.35.13-.31.3-.91.38l.04-.32c-.55,0-.99.05-.99-.19-.45.12-.76.09-1,.03-.84.15.59.66.78.8-.82-.26-1.39-.14-1.84-.54l.73-.07c-1.53-.44-1.49.41-2.18-.28.53.04,1.17-.11.87-.3l-.77.14c-.09-.09.44-.05.09-.15-.22.07-.68.2-.88.29v-.02s-1.26-.04-1.26-.04c.16,0,.18-.09-.04-.12l-.92.1c.28-.06,0-.18-.4-.26-1.16-.18-.99.65-1.87.26.13.02.16-.02.29,0l-.46-.18c-.15.67-2.76-.13-2.92.54-.64-.34-.03-.16.85-.42l-.69-.25c.29,0,.53.06.84.02-.9-.34-1.8-.09-2.32.02-.34-.14.33-.47-.69-.48-1.44-.04.22.52-.65.5l-.58-.42c-1.12.14-1.91-.2-2.82-.35-.21,0-.32.03-.37.06-.96-.26-2.1.1-2.82-.15.18-.04-.39-.29-.46-.39h-1.36c.6,0,.6-.2.74-.38-.42-.05-.63.03-.91.01.18-.04.37-.09.16-.21l-1.44.1c.08.05.23.09.37.12-.35-.05-1.12-.05-1.59-.29.06-.07.24-.11.3-.18.38.29.65.14.89.02-.96-.12-.23-.09-.67-.31-.67-.1-1,.12-.85.31-.75-.2-.98-.29-1.8-.22l.2-.25c-.24-.01-.49-.01-.73-.04.21-.07.43-.15.64-.23-1.33-.43-.34.42-1.82-.04l.04-.24c-.6-.03-.88.33-1.27-.05-.59.03.9.53-.44.31-.21-.17-.7-.36-1.07-.49-.41.02.15.29.46.36-1.92-.31-1.02-1.05-2.84-1.11.58.3-.61.35.84.64-.72,0-1.29-.62-2.07-.52l.54-.2c-.26-.06-.58-.01-.72,0l.11-.22c-.98.2-1.6-.6-2.25-.19.47-.33-.67-.14-.98-.39.8-.11,2.08.53,2.27.17-.31-.2-.66-.09-.96-.28.24,0,.6-.02.7-.08-1.06-.5-1.8-.2-2.51-.27l1.22.21c-.19.36-.55-.07-.96.15-.55-.36-1.09-.17-1.55-.42.13.03.15,0,.28.03-1.31-.32-1.51-1.03-2.02-1.17-.49-.18-1.51-.21-1.21.04-.45,0,1.76.32.88.63-.59-.75-1.59-.17-3.08-1.05.76,0-.32-.44.35-.41-.78-.18-.83-.1-1.21-.04l-.18-.25c-1.11.11-.34.28-1.91.05.55.01-.53-.44-.11-.45-.41-.14-.84-.2-1.18-.18h.06c-1.56-.38-1.19-.58-2.63-.85l.1.15c-1.9-.32-4.12-1.28-6.03-1.78l.57.28c-.28-.12-1.31-.25-1.79-.6.12.04.34.06.44.11.03-.13-.14-.37-.57-.57l-.24.11-.13-.21c-.67-.26.1.33-.57.07-.2-.66-2.88-1.18-3.28-1.86-.6.19,1.25.54.62.68-.18-.13-.25-.24-.68-.44l.07.28c-1.99-.92-2.7-1.36-4.5-2.11l.09-.02c-.6-.36-.96-.47-1.32-.4-.09-.16.39-.01.18-.21-1.36.07-2.06-1.37-2.91-1.28.28-.4-.99-1.44-.23-1.52l-.48-.14c.28-.22,1.43.61,1.83.42l1.3.92c0-.13.31-.19.09-.33.36.15.67.27.28-.09,3.09,2.29,6.99,2.86,10.26,4.59.24.06.15-.09.08-.2.53.53.66.08,1.02.16l.79.73c.42,0,.17-.22.23-.3,1.8.52,3.4,1.51,4.91,1.75.41.31-.22.3.37.56-.66-.68,1.65.31,1.44-.06.5.6,2.13.71,1.67,1.26.72.25.69-.09.5-.21.84.27,1.53.48,2.28.48.21.14,1.19.39,2.2.69,1.01.3,2.06.58,2.38.93-.44-.45.08-.15.62-.17l-.38-.39,1.12.31c.24.03.3.06.29.08.19.06-.09.15.38.34.77.21.84.07,1.3.03l-.11-.07.53.1c.38.1-1.43-.06-.21.4.04-.07.86-.26,1.15.03-.64-.17-.6.04-.39.18l.89.25-.21-.43c2.57.65,5.24,1.39,8.02,1.97-.1.32,1.97.4,1.63.81l-.1-.06c-.7-.07.13.4.7.44-.56-.24,1.13-.29-.28-.59l1.14-.04c.76-.79,2.92.55,4.63.53-.12.02-.16.06-.18.08,1.52-.01,3.3.7,3.66.6l.1.26c1.32-.23,1.47-.24,2.98.09-.02.04-.21.09.03.17.39-.14.77-.28,1.81-.1l-.05.07c.54.05,1.08.11,1.63.13-.08.76,2.83-.26,3.26.6.34-.2,1.54-.18,2.07-.25,0,.03.03.07.12.11.65-.38,1.8.28,2.5.24.46-.09.27-.22.08-.36.88.35,2.49-.3,2.81-.15.65.05.24.3.41.47.98-.05-.15-.7,1.15-.36-.15.03-.43.05-.33.1.5.08,1.38.98,1.88.82l-.33-.15c.91-.17,2.16.69,2.31.15l-.09-.24c1.58.28.67-.11,2.27.14l-.02.04c.7-.06,1.08.23,1.41-.16l-.24-.05c.86-.05.94-.02,1.82-.02.1-.04.53-.11.65-.03.03-.32,2.04-.18,2.43-.22-.69.1-.36.21-.15.33.4-.29.68-.34,1.25-.19.06-.4.15-.84,1.26-.94-.17.07-.44.13-.32.2.12.07.37-.03.46-.07.12.07-.24.16-.1.29.73-.43,1.3-.12,2.38-.33-.34.14-.03.2.1.33.05-.46,1.53.28,1.06-.27,1.09.13,2.44-.07,3.63-.2,1.19-.14,2.22-.26,2.66-.12.25.13.8-.2,1.17-.26l-.02.2c.99-.5.8-.21,1.95-.77-.46.32-.24.39.3.49l.77-.56.21.27c.32-.18.7-.2,1.09-.22.28-.39,1.57-.59,1.75-.82.45.34.97-.28,1.32.05.11-.08.26-.15.42-.22-.21-.15-.32-.33.03-.31.03,0,.05-.01.08-.02l.19.21c.33-.12.67-.21.9-.25-.11,0-.24-.02-.37-.05.15.01.3.03.44.04.05-.01.09-.02.12-.03-.02.01-.04.02-.07.03.22,0,.44-.02.71-.17,1.26.07,2.5-1.13,3.91-.95-.21,0-.49.04-.54.14,1.08-.29,2.25-.22,2.89-.56l-.11-.2c.77-.28,1.34-.58,1.98-.75l-.04-.25c.94-.19,2.77-1.19,3.49-.86.16-.26,1.28-.33,1.78-.56l.19.14c.7-.15,1.07-.4,1.46-.6,1.48-.13,2.59-.98,3.78-1.4l.03.05,1.14-.58c-.25.28.19-.2.57-.29.35-.21.95-.47,1.44-.55l.74-.33c-.77.5.17.23.31.41l.4-.38c.23.01-.23.3.14.18.27-.26,1.21-.68,1.4-1.03-.07-.03-.21-.03-.36,0-.03.03-.03.03-.01,0h-.04s.02,0,.04,0c.03-.04.08-.1.09-.14.61-.23.35-.21.29-.29.82.01,1.09-.37,1.78-.24-.52-.06.08-.29.56-.51,0-.07.08-.09.21-.1.22-.12.34-.23.13-.29.64.06.34-.16.78-.06-.22.09-.41.21-.59.34.14-.01.29-.03.38-.07.87-.11.98-.83,1.64-1.04l-.37.41c.05,0,.19-.07.36-.17.45-.38.41-.45.39-.53.08,0,.16.02.24.04.03-.03.05-.06.06-.08.01.02.02.05.01.1.27.07.5.2.61.35.47-.32.84-.73,1.03-1.06-.01-.07.05-.17.12-.28.03-.09.03-.17.02-.22-.16.09-.29.17-.4.24l-1.11.91c-.1-.11.17-.33.42-.56l-1.01.53c0-.07.04-.18.36-.47.32-.04.52-.06.72-.13.22-.2.41-.4.31-.52l1.56-.74c-.14.09-.49.33-.51.45.12-.05.25-.09.38-.14-.1.06-.2.13-.31.2h.03c.64-.37.36-.14.86-.27-.57.72-1.5,2.27-1.79,2.92l.71-.6.28.03c.93-.77,1.31-2.22,1.43-2.62.28-.11.45-.07.55.05l.34-.28c-.01.11.14.16-.27.4.06.13.06.29.03.37,1.13-.7.66-1.44,1.82-2.09l-.12.04-.06.07v-.05s-.3.1-.3.1c.12-.11.43-.29.69-.45l.31-.32c-.06.07-.05.11-.02.14.1-.07.16-.12.11-.13.28,0,.66.15.55.37l.31-.5c-.03-.06.1-.23.24-.39l.1-.17s-.02.05-.02.07c.03-.04.06-.07.08-.1-.04.05-.06.08-.08.12.02.16.26.41.25.51.41-.24.37-.9.07-.8.97-.22.67-.25,1.53-.32.14-.12-.05-.26-.25-.32l-.12.14-.15.1.24-.25c-.08-.02-.17-.03-.22,0,.3-.3.56-.47.78-.58l.02-.02v.02c.08-.05.17-.1.26-.14-.72.75.39,1.04.44,1.45.34-.81.63-1.67.93-2.49,0,.11.12.59.17.63-.09-.38,1.27-1.54,2.31-2.32.17-.15.33-.3.49-.44l-.02.1.09-.07-.1.08-.02.11c.14,0,.61-.29.89-.57l.31-.47v.11s-.17.2-.17.2c0,.08-.07.12-.15.19l-.02.03v-.02s-.03.04-.06.06c.85-.26.46-1.12,1.31-1.4-.58.48-.61.69-.47.8.39-.51,1.55-1.36,1.01-1.54.36-.19.59-.47.73-.26l.94-1.24c-.05.11-.02.29.33.02-.68.52-.99,1.43-1.54,1.48.19.25.54.16.4.63,1.15-1.23,1.47-2.23,2-3.18l1.24-.81-.05-.14.44.09c.08-.18.12-.31.17-.31.05,0,.05.07.03.15.1-.11.18-.23.2-.31.17.09.15.44.07.76-.15.04-.29.09-.44.13-.09.32-.12.59.26.41.03-.06.06-.12.1-.19-.04.22-.05.37.08.32.24-.3.49-.57.7-.9-.12.06-.32.13-.57.19.34-.66.68-1.45.08-1.16l.73-.47c.44-.97.37-.8,1.01-1.85.14.04-.01.34.2.25.32-.91,1.83-1.25,1.7-1.63.43-.58-.02-.42.22-.82.01.04.04.13.14.03l.18-.56c.22-.1-.21.48.29.11.56-.89.8-1.48,1.45-2.06.73-1-.72.08-.03-.69.26.01.53.07.96-.42.1-.36-.05-.42.24-.93l.23.23c.33-.43.55-.8.74-.65.17-.43.38-.65.57-.8.38-.74-.89.07-1.11.14.69-.48.93-.99,1.52-1.11l-.38.6c1.28-.94.51-1.41,1.46-1.58-.31.42-.53,1.04-.21.89l.29-.72c.12-.02-.2.39.08.16.07-.22.18-.68.2-.9v.02s.68-1.06.68-1.06c-.07.14-.01.2.12.02l.37-.83c-.09.27.15.1.42-.21.73-.9-.08-1.16.69-1.72-.08.1-.06.14-.14.25l.38-.3c-.26-.23.11-.79.47-1.36.37-.56.65-1.18.4-1.39.56-.42.16.04.02.94l.51-.5c-.12.26-.28.44-.37.74.7-.64.82-1.58.91-2.1.26-.25.3.5.7-.42.58-1.29-.56-.02-.21-.79l.61-.35c.3-1.07.91-1.65,1.4-2.42.08-.19.1-.3.09-.36.65-.75.6-1.97,1.03-2.56,0,.19.38-.28.49-.32l.37-1.28c-.16.57.03.63.16.81.16-.38.14-.61.24-.87,0,.19-.02.37.16.21l.29-1.39c-.07.06-.15.2-.21.31.15-.31.35-1.04.71-1.42.05.07.05.25.1.33-.38.28-.31.58-.26.83.38-.88.15-.19.48-.55.28-.61.16-.97-.08-.88.39-.66.55-.85.69-1.64l.19.24c.08-.22.12-.46.19-.7l.1.67c.67-1.21-.34-.42.34-1.78l.22.09c.12-.58-.18-.92.25-1.24.07-.58-.66.78-.23-.48.2-.17.47-.61.65-.95.05-.4-.31.09-.42.39.6-1.8,1.2-.82,1.54-2.59-.38.52-.26-.64-.77.72.11-.7.82-1.16.83-1.93l.12.54c.1-.24.1-.55.11-.7l.2.13c-.05-.96.7-1.53.35-2.21.3.49.17-.65.43-.94.07.8-.62,2.03-.27,2.25.21-.29.12-.65.33-.93-.01.24-.01.6.04.71.54-1.02.29-1.79.39-2.48l-.27,1.2c-.35-.22.09-.55-.1-.97.38-.52.22-1.07.49-1.5-.04.13,0,.15-.05.27.37-1.27,1.1-1.45,1.26-1.95.2-.49.28-1.49.01-1.19.02-.44-.4,1.72-.67.86.78-.57.26-1.54,1.08-3.03.04.76.42-.33.43.34.13-.78.05-.83-.03-1.22l.23-.19c-.17-1.11-.3-.33-.17-1.9.02.54.4-.55.44-.13.11-.42.15-.84.11-1.18v.06c.27-1.56.53-1.21.65-2.66l-.14.12c.04-.95.31-1.98.46-3.05.16-1.06.35-2.13.43-3.1l-.18.61c.07-.3.03-1.31.28-1.84,0,.12,0,.34-.02.45.13,0,.35-.2.45-.66l-.16-.21.18-.16c.12-.7-.3.16-.19-.54.61-.33.56-3.02,1.13-3.57-.32-.53-.27,1.33-.54.75.09-.21.18-.29.29-.75l-.26.13c.41-2.12.64-2.93.79-4.85l.04.08c.16-.67.15-1.05-.02-1.37.12-.13.13.37.26.11-.49-1.26.68-2.37.32-3.14.47.14,1.08-1.41,1.38-.73ZM37.87,108.31l-.16-.11c-.13.04-.26.07.16.11Zm39.02,7.66c-.35-.09-.52-.23-.77.04.14.15.56,0,.77-.04Zm16.07-.79c-.25-.04-.46-.04-.65,0,.27.07.51.09.65,0Zm15.76-2.9s.03-.06.05-.09c-.17.03-.07.04-.05.09Zm9.88-.85c.04-.11.05-.21,0-.27-.06.02-.13.05-.21.07-.23.15-.06.19.2.2Zm22.1-9.19l-.02.05c.06,0,.1,0,.11.02l-.09-.07Zm-1.09.44c-.13.02-.23.03-.29.04l-.32.25c.18-.05.34-.11.61-.29Zm.74-.39s.11-.12.17-.19h0c-.12.03-.23.08-.34.12.02.04.05.09.17.07Zm-.83.28c.05-.03.11-.06.15-.1l-.15.1Zm-3.78,1.25l.02-.02c-.3.09-.46.12-.02.02Zm-2.74,1.93c.12-.05.22-.1.29-.16-.08.03-.16.06-.26.09-.07.06,0-.06-.04-.12-.2.1-.38.18,0,.19Zm-9.86,4.3l.03-.05c-.06,0-.1-.01-.11-.03l.08.08Zm.16.16h0c.12-.02.24-.05.36-.08-.02-.05-.03-.1-.16-.09-.05.03-.13.1-.2.17Zm.99-.46c.13,0,.23,0,.3,0l.35-.21c-.19.03-.36.06-.65.2Zm-1.45.59l-.65-.02c.16-.3.6-.34,1.01-.37.05-.08.1-.17.14-.25h0s0,0,0,0c.07-.15.08-.28-.12-.34-.37-.09-1.79,0-1.9,0-.14.24-.03.77.22,1.19.18-.06.32-.08.38.03-.09.05-.18.1-.27.14.06.09.13.17.21.23.36-.2.69-.44.99-.62Zm1.52-.47c-.06.02-.11.05-.16.08l.16-.08Zm2.39-1.58s-.08-.06-.07-.11c-.12.06-.23.13-.35.22.14-.04.28-.07.42-.11Zm1.6.81l-.02.02c.32-.05.49-.06.02-.02Zm2.22-1.58c-.12-.04-.43,0-.52-.02-.31.12-.59.21-.86.29l.47-.09c-.25.1-.5.13-.78.18-.25.08-.51.13-.78.19-.07.03-.14.06-.22.09.2.14-.3.57.39.64,1.41-.17,1.17-.76,2.3-1.28Zm.62-.3c-.12.05-.22.1-.3.16.08-.03.17-.06.26-.09.07-.06,0,.06.04.12.21-.1.38-.18,0-.19Zm2.3-1.71l-.09.04c-.47.32-1.3.85-1.55.63.31-.21.79-.46,1.06-.66-.08,0-.24.03-.53.18-1.1.62-1.81,1.36-1.7,1.76l.09-.04c.48-.32,1.31-.85,1.56-.64-.31.21-.8.46-1.07.66.08,0,.24-.04.54-.18,1.11-.63,1.82-1.36,1.69-1.76Zm.65-.04c.31-.12.59-.21.86-.29l-.47.09c.25-.1.5-.13.78-.18.26-.07.51-.15.76-.25.07-.04.13-.07.21-.11-.2-.12.23-.61-.44-.6-1.36.31-1.11.79-2.22,1.33.13.04.43,0,.52.02Zm3.63-1.19c-.13.05-.27.11-.41.17.05.02.08.06.08.1.11-.07.22-.16.32-.26Zm4.44-2.76c-.17.08-.31.12-.38.03.08-.06.16-.12.24-.18-.08-.08-.16-.14-.25-.19-.32.24-.6.52-.87.73l.65-.07c-.11.31-.54.41-.94.49-.03.09-.07.18-.09.26h0s0,0,0,0c-.04.16-.03.29.17.32.38.03,1.81-.25,1.91-.27.1-.25-.12-.75-.44-1.12Zm2.59-1.58c0,.11,0,.22.06.27.05-.04.11-.08.18-.13.19-.2.01-.2-.24-.14Zm9.05-4.03s0,.07,0,.1c.14-.1.05-.07,0-.1Zm12.39-11.14c-.26.11-.46.24-.52.4.22-.12.39-.25.52-.4Zm10.12-12.37c-.21.03-.33.44-.42.62.28-.22.5-.28.42-.62Zm19.07-33.77l.11-.16c-.03-.13-.06-.26-.11.16Z"/>
        <path class="cls-1" d="m190.21,46.56l.03-.08s-.02.06-.03.08Z"/>
        <path class="cls-1" d="m198.41,27.73s.03-.02.04-.04l-.04.04Z"/>
        <path class="cls-1" d="m178.44,69.47l.06-.09s-.04.07-.06.09Z"/>
        <path class="cls-1" d="m166.81,83.72c.07-.01.11,0,.15.03.03-.09,0-.12-.15-.03Z"/>
        <path class="cls-1" d="m184.78,58.69l.02-.03s-.01-.04-.02-.05v.07Z"/>
        <path class="cls-1" d="m122.67,111.02s.13.08.04.13l.51-.22c-.28.1-.4.08-.55.09Z"/>
        <path class="cls-1" d="m122.71,111.15l-.06.02s.04-.02.06-.02Z"/>
        <path class="cls-1" d="m126.25,109.78c-.21.01-.04.28-.18.24-.14.31,1.2-.7.18-.24Z"/>
        <polygon class="cls-1" points="121.6 110.22 121.77 109.96 121.39 110.03 121.6 110.22"/>
        <path class="cls-1" d="m131.82,106.63c-.14.12-.39.25-.25.29l.67-.33c.04-.11-.17-.08-.41.05Z"/>
        <polygon class="cls-1" points="141.5 102.47 141.41 102.48 140.96 102.67 141.51 102.48 141.67 102.76 141.59 102.23 141.42 102.31 141.5 102.47"/>
        <path class="cls-1" d="m149.27,97.09c-.06.06-.12.13-.18.21.11-.11.16-.17.18-.21Z"/>
        <polygon class="cls-1" points="201.96 4.51 202.12 3.95 201.91 4.3 201.96 4.51"/>
        <path class="cls-1" d="m201.68,3.4l.34-.11-.26-.36c0,.13,0,.38-.08.47Z"/>
        <path class="cls-1" d="m174.43,73.82l.03.08c.12-.01.21-.11.38-.31l-.42.22Z"/>
        <polygon class="cls-1" points="179.06 67.9 178.98 68 179.36 67.97 179.06 67.9"/>
        <path class="cls-1" d="m181.73,63.1s.06-.1.09-.16c-.03.05-.06.1-.09.16Z"/>
        <path class="cls-1" d="m182.1,62.37c-.11.17-.19.38-.28.57.24-.38.59-.46.28-.57Z"/>
      </g>
      <g>
        <path class="cls-1" d="m204.91,10.59c0,.06.19-.02.23-.03-.07-.08-.28.05-.23.03Z"/>
        <path class="cls-1" d="m204.46,8.39s.02-.02.03-.03c0-.02-.02-.04-.02-.09-.12.07-.15-.06,0,.12Z"/>
        <path class="cls-1" d="m204.49,8.36c.04.09.09-.09,0,0h0Z"/>
        <path class="cls-1" d="m204.28,7.97l.16.08c.07-.05.05-.16.12-.14-.1-.1-.17-.05-.28.06Z"/>
        <path class="cls-1" d="m204,7.93l.07.05s.04-.04-.07-.05Z"/>
        <path class="cls-1" d="m204.12,8.03c-.1.02,0,.02.09.05l-.15-.1s-.16.07.06.05Z"/>
        <path class="cls-1" d="m203.96,8.28c.12.21.35.1.23-.11-.05.09-.07.19-.23.11Z"/>
        <path class="cls-1" d="m204.22,7.17c-.07.02-.18.1-.27.14l.11.06c.03-.06.05-.16.16-.2Z"/>
        <path class="cls-1" d="m203.95,7.31l-.17-.09c.02.12.09.12.17.09Z"/>
        <polygon class="cls-1" points="204.25 6.69 203.96 6.63 204.06 6.66 204.25 6.69"/>
        <path class="cls-1" d="m203.93,6.34c.16.01.21-.15.31-.12-.05-.08-.2-.12-.33-.16.08.05.09.14.01.28Z"/>
        <path class="cls-1" d="m203.72,6s.12.05.19.07c-.04-.03-.1-.05-.19-.07Z"/>
        <path class="cls-1" d="m203.74,6.98s.15-.08.17-.17l-.19.12v.05Z"/>
        <path class="cls-1" d="m203.72,6.93h0c-.01-.05-.02-.09-.02-.11,0,.02,0,.05.02.11Z"/>
        <path class="cls-1" d="m203.71,6.82h0s0,0,0,0Z"/>
        <path class="cls-1" d="m203.75,7s0-.01,0-.01c-.02.01-.02.02,0,.01Z"/>
        <path class="cls-1" d="m203.61,6.3c-.11-.03-.14-.1-.17-.17-.01.09,0,.18.02.26.07,0,.19-.01.16-.1Z"/>
        <polygon class="cls-1" points="203.06 4.97 203.03 5.02 203.06 5 203.06 4.97"/>
        <path class="cls-1" d="m203.45,6.39s.04.09.07.12c0,0,.02,0,.03,0v.02s.09.02.12.04c-.01.01-.03.02-.04.03.08-.01.17-.04.14.09-.3.16-.25.07-.41,0,.1.01.07-.12.14-.16-.06-.01-.11-.04-.09-.1-.02-.02,0-.02.03-.03Zm.1.15c-.02.06.02.07.08.06-.03-.02-.05-.04-.08-.06Z"/>
        <path class="cls-1" d="m203.68,6.57h.01s.02-.02-.01,0Z"/>
        <path class="cls-1" d="m203.34,4.76c-.11,0-.23,0-.34,0l.13.1.21-.1Z"/>
        <polygon class="cls-1" points="203.12 4.25 202.98 4.22 202.95 4.4 203.12 4.25"/>
        <path class="cls-1" d="m194.2,15.24v.09s0-.06,0-.09Z"/>
        <path class="cls-1" d="m194.49,14.83l-.07-.06s.06.08.07.06Z"/>
        <path class="cls-1" d="m197.52,5.74c-.21-.02-.51-.08-.32.03l.2.09c0-.08.06-.11.12-.12Z"/>
        <path class="cls-1" d="m195.78,10.76h.07s-.09-.11-.14-.16c.02.05.04.1.06.16Z"/>
        <path class="cls-1" d="m196.3,11.35c.06,0,.12,0,.19-.03l-.19.03Z"/>
        <path class="cls-1" d="m192.9,17.65l.14.19c.07-.11-.06-.12-.14-.19Z"/>
        <path class="cls-1" d="m201.27.12c-.06-.07-.11-.05-.17.01.07.12.09.42.17-.01Z"/>
        <path class="cls-1" d="m192.39,13.81c0,.06.04.1.08.12,0-.06-.03-.1-.08-.12Z"/>
        <path class="cls-1" d="m201.1.13c-.05-.09-.13-.07-.23.36.01.02.02.02.04.04.06-.16.13-.31.2-.39Z"/>
        <path class="cls-1" d="m187.31,25.86s-.02,0-.03,0c.02.02.03.01.03,0Z"/>
        <path class="cls-1" d="m183.89,27.07s.03-.07.05-.11c-.02,0-.04.04-.05.11Z"/>
        <path class="cls-1" d="m202.38,2.32c.04.09.02-.02,0,0h0Z"/>
        <path class="cls-1" d="m202.37,2.61c0-.08,0-.15,0-.22,0,.05,0,.12,0,.22Z"/>
        <path class="cls-1" d="m202.43,2.45c0,.05.01.09.02.12.03-.04.04-.08-.02-.12Z"/>
        <path class="cls-1" d="m202.38,2.32s-.03-.07-.05-.13c.02.06.03.13.04.2,0-.04,0-.07.01-.07Z"/>
        <path class="cls-1" d="m189.73,21.09s-.01,0-.02,0c.04.1.04.07.02,0Z"/>
        <polygon class="cls-1" points="198.47 8.39 198.47 8.38 198.46 8.38 198.47 8.39"/>
        <path class="cls-1" d="m198.48,8.68c-.17-.23-.11-.26-.02-.29l-.57-.28.59.57Z"/>
        <path class="cls-1" d="m187.54,25.49h.01s0,0-.01,0Z"/>
        <path class="cls-1" d="m194.28,15.02v.02s0-.02,0-.02Z"/>
        <path class="cls-1" d="m191.19,20.26v.02s0-.01,0-.02Z"/>
        <path class="cls-1" d="m186.52,22.88h-.03s.03,0,.03,0Z"/>
        <path class="cls-1" d="m196.41,11.25s-.08-.03-.12-.05c.02.04.06.06.12.05Z"/>
        <polygon class="cls-1" points="192.87 17.62 192.86 17.62 192.9 17.65 192.87 17.62"/>
        <path class="cls-1" d="m202.8,3.27v.02s0-.02,0-.02Z"/>
        <path class="cls-1" d="m202.71,3.42c.03-.06.07-.17.09-.15l-.11-.15c.04.1.02.2.01.3Z"/>
        <path class="cls-1" d="m202.18,2.23c0,.15.16-.35.13-.18.17-.32-.33,0-.13.18Z"/>
        <polygon class="cls-1" points="201.86 4.98 201.86 5.11 202.03 4.83 201.86 4.98"/>
        <path class="cls-1" d="m201.09,2.27c-.02.12-.03.19-.02.22,0,.05,0,.08.02.07.03-.1.06-.1.08-.31l-.07-.02-.02.04Z"/>
        <polygon class="cls-1" points="199.73 4.56 199.75 4.57 199.82 4.5 199.72 4.53 199.6 4.14 199.77 4.81 199.79 4.77 199.73 4.56"/>
        <path class="cls-1" d="m199.35,6.97s-.02-.06-.03-.09c0,.05.02.07.03.09Z"/>
        <polygon class="cls-1" points="183.4 27.33 183.24 27.38 183.43 27.4 183.4 27.33"/>
        <path class="cls-1" d="m183.49,27.82s.01-.1.09-.07l-.29-.15.2.23Z"/>
        <path class="cls-1" d="m195.56,14.2l-.06-.05c-.08-.03-.1,0-.15.04h.21Z"/>
        <polygon class="cls-1" points="194.38 15.55 194.4 15.53 194.12 15.41 194.38 15.55"/>
        <path class="cls-1" d="m193.87,17s.03-.1.05-.15c-.08.07-.33-.02-.05.15Z"/>
        <path class="cls-1" d="m193.95,16.82s-.02.02-.02.04c.01,0,.02-.02.02-.04Z"/>
        <path class="cls-1" d="m197.26,10.62s.14.14.17.16c.01-.11-.21-.19-.17-.16Z"/>
        <path class="cls-1" d="m198.7,8.9s.03,0,.04,0c0-.02.02-.04.06-.07-.13-.05-.04-.15-.1.07Z"/>
        <path class="cls-1" d="m198.74,8.9c-.04.08.13.01,0,0h0Z"/>
        <path class="cls-1" d="m198.91,8.49l.04.17c.08.02.16-.06.19,0,.01-.14-.07-.17-.22-.18Z"/>
        <path class="cls-1" d="m198.76,8.25v.08s.06,0,0-.08Z"/>
        <path class="cls-1" d="m198.77,8.41c-.08-.07-.01.01.02.1l-.02-.18c-.06-.02-.16-.08,0,.07Z"/>
        <path class="cls-1" d="m198.47,8.43c-.09.23.14.33.23.11-.1.02-.19.07-.23-.11Z"/>
        <path class="cls-1" d="m199.5,7.94c-.06-.05-.19-.08-.28-.12l.02.12c.07-.01.16-.06.26,0Z"/>
        <path class="cls-1" d="m199.22,7.82l-.03-.19c-.08.09-.04.15.03.19Z"/>
        <polygon class="cls-1" points="199.9 7.67 199.75 7.41 199.79 7.51 199.9 7.67"/>
        <path class="cls-1" d="m199.96,7.2c.09.13.25.07.29.17.03-.09-.03-.23-.08-.35,0,.1-.05.16-.21.18Z"/>
        <path class="cls-1" d="m200.1,6.82c0,.05.04.12.07.19,0-.05-.02-.11-.07-.19Z"/>
        <path class="cls-1" d="m199.34,7.46s.16.06.24.03l-.21-.07-.03.04Z"/>
        <path class="cls-1" d="m199.44,7.33h0s0,0,0,0Z"/>
        <path class="cls-1" d="m199.37,7.41h0s.06-.07.07-.08c-.01.01-.04.04-.08.08Z"/>
        <path class="cls-1" d="m199.34,7.47s0-.01,0-.01c-.02,0-.03,0,0,.01Z"/>
        <path class="cls-1" d="m199.79,6.92c-.04-.1-.01-.17.02-.24-.08.05-.15.11-.19.18.05.05.13.14.17.06Z"/>
        <polygon class="cls-1" points="199.99 6.41 199.96 6.38 199.98 6.41 199.99 6.41"/>
        <path class="cls-1" d="m199.62,6.86s-.04.09-.05.13c0,0,.02.01.02.02h-.02s.05.09.05.13c-.02,0-.04,0-.05-.01.06.05.14.11.02.17-.31-.14-.22-.15-.25-.32.05.08.14-.02.21,0-.03-.06-.04-.11.02-.14,0-.02.02-.01.04.01Zm-.05.17c-.06.03-.04.06,0,.1,0-.03,0-.06,0-.1Z"/>
        <path class="cls-1" d="m199.63,7.14h0s.03.01,0,0Z"/>
        <path class="cls-1" d="m200.2,6.7c-.06-.1-.12-.21-.17-.32l.04.12.14.2Z"/>
        <polygon class="cls-1" points="200.2 6.59 200.15 6.45 200.1 6.39 200.2 6.59"/>
        <path class="cls-1" d="m206.58,15.87l.07.05s-.05-.04-.07-.05Z"/>
        <path class="cls-1" d="m206.44,15.39l-.1.02c.06,0,.1,0,.1-.02Z"/>
        <path class="cls-1" d="m201.26,7.33c-.14.15-.38.35-.17.27l.2-.1c-.06-.06-.05-.11-.02-.17Z"/>
        <path class="cls-1" d="m204.08,11.83l.05-.05c-.08,0-.15,0-.22,0,.05.02.11.03.16.05Z"/>
        <path class="cls-1" d="m204.86,11.79s.07-.1.09-.17l-.09.17Z"/>
        <path class="cls-1" d="m207.64,18.4h.24c-.04-.11-.13-.02-.24,0Z"/>
        <path class="cls-1" d="m200.7,5.41c-.02.22-.02.31-.02.36.04-.29.09-.74.02-.36Z"/>
        <path class="cls-1" d="m204.33,16.39c.05.03.1.03.14.02-.05-.03-.1-.04-.14-.02Z"/>
        <path class="cls-1" d="m200.68,5.77c-.03.22-.04.35.02.07,0-.05.01-.07.02-.12-.02.05-.04.09-.04.04Z"/>
        <path class="cls-1" d="m210.52,27.9s0,.02-.02.03c.03,0,.03-.02.02-.03Z"/>
        <path class="cls-1" d="m209.33,31.32s-.04-.07-.05-.11c0,.02,0,.06.05.11Z"/>
        <path class="cls-1" d="m200.35,6.18s0,.04,0,0h0Z"/>
        <path class="cls-1" d="m200.31,6.05s.02.06.03.08c0-.02-.01-.05-.03-.08Z"/>
        <path class="cls-1" d="m200.34,6.2v-.02c0,.06,0,.09,0,.02Z"/>
        <path class="cls-1" d="m200.35,6.18s0-.02.01-.04c0,.01-.01,0-.02,0,0,.02,0,.04,0,.05Z"/>
        <path class="cls-1" d="m208.33,23.02s0,.01-.02.02c.11.03.08.01.02-.02Z"/>
        <polygon class="cls-1" points="203.93 8.25 203.91 8.24 203.91 8.26 203.93 8.25"/>
        <path class="cls-1" d="m204.15,8.42c-.29-.01-.27-.08-.24-.16l-.57.27.81-.1Z"/>
        <path class="cls-1" d="m210.38,27.49v-.02s0,0,0,.02Z"/>
        <path class="cls-1" d="m209.76,31.76l.09.09c-.31.06-.12-.34-.45-.3l.2-.45c-.11.05-.3.04-.32.11-.03-.08-.07-.15-.2.01.5-1.08-.52-1.69-.37-2.64-.04-.05-.14.02-.2.06.24-.24-.2-.09-.27-.16l.35-.36c-.15-.05-.26.06-.34.08-.22-.39.06-.93-.3-1.18.12-.16.35-.08.35-.24-.36.32-.34-.3-.57-.15.36-.28-.08-.52.56-.67-.02-.18-.32-.05-.36.01-.04-.2-.09-.36-.34-.46.11-.16-.45-.85-.03-1.18-.27.22-.16.04-.34-.03l-.24.19-.05-.27s-.04-.06-.01-.07c0-.05.16-.04.2-.17-.04-.18-.19-.14-.37-.19l-.03.04-.06-.11c-.02-.09.37.22.42-.11-.08.02-.49-.03-.32-.17.03.15.22.07.28,0l-.05-.21-.33.18c-.17-.6-.12-1.29-.35-1.91.31-.09-.13-.45.34-.54l-.04.04c.09.14.34-.16.25-.27-.1.18-.52-.09-.49.25l-.29-.18c-.9.14-.14-.68-.54-.97.04.02.09,0,.12,0-.38-.24,0-.82-.17-.85l.23-.11c-.45-.17-.5-.19-.46-.58.04,0,.12,0,.15-.06-.2-.03-.4-.05-.43-.3h.08s-.16-.37-.16-.37c.73-.23-.65-.48.11-.84-.24,0-.39-.25-.53-.33.03-.01.06-.03.09-.06-.44-.01,0-.44-.1-.58-.13-.07-.24.01-.35.1.24-.3-.52-.44-.42-.55-.02-.16.26-.14.41-.24-.14-.19-.65.25-.45-.14.04.02.09.08.12.04.03-.13.8-.6.59-.66l-.11.12c-.25-.14.44-.67-.06-.55l-.22.09c.19-.45-.14-.12.01-.56h.04c-.09-.15.16-.32-.23-.28l-.03.07c-.09-.18-.07-.21-.11-.41-.04-.01-.13-.09-.06-.14-.31.09-.29-.41-.3-.5.09.14.2.03.31-.06-.28-.01-.32-.07-.19-.25-.39.1-.8.21-.9-.03.07.02.12.07.19.02.07-.05-.03-.08-.07-.09.07-.05.16.01.28-.06-.42-.05-.12-.28-.33-.48.14.04.19-.05.31-.12-.44.12.27-.45-.26-.18.18-.59-.37-1.22-.07-1.52.14-.1-.16-.15-.19-.23l.19-.05c-.42-.12-.19-.14-.62-.3.26.04.35-.04.49-.21l-.45-.06.28-.13c-.14-.04-.12-.14-.1-.24-.34.03-.41-.27-.6-.26.37-.21-.17-.19.18-.37-.06,0-.12-.03-.17-.06-.16.1-.35.17-.29.07,0,0,0,0-.01-.02l.22-.11c-.08-.06-.13-.13-.15-.18-.01.03-.05.07-.09.12.02-.04.06-.09.08-.13,0-.01,0-.02,0-.03,0,0,.01,0,.02.01.04-.06.05-.12-.05-.16.22-.52-.56-.09-.16-.51-.04.05-.05.09.03.05-.05-.07.18-.48.01-.41l-.17.21c-.1.02-.16.07-.17,0l-.17.3c.04-.19-.21.37.07-.47-.11.32,0-.18-.04-.1l.09-.36c0-.18-.04-.09-.07,0,.08-.57.02-.57-.02-.48-.04.15-.08.31-.1.32v-.12s-.07.38-.07.38c.04-.37-.03.26-.03.18-.02.21-.03.13-.06-.06l-.03.03c.03-.29-.02-.48-.05-.85l-.02.35c-.03-.15,0-.33-.03-.36-.01.24-.09.34-.05.71.02.07.04.14.05.2,0-.02,0-.02,0,0,0,0,0,.01,0,.02h0s0,.09.01.13c-.04-.03,0,.08.02.23-.12-.45-.07-.11-.24-.59.12.31.07.3.05.35.03.08.02.07,0,.03,0,.04.01.1.08.26-.18-.36-.02,0-.18-.3.03.01.03-.02.03-.07-.03-.06-.07-.11-.08-.1-.22-.25.05.38-.05.31l-.07-.22s-.03-.01-.04.02c.03.16.08.22.13.3-.03-.03-.07-.07-.11-.11l.02.04s-.03-.05-.06-.08c-.14-.14-.3-.3-.43-.44-.02.14.06.34.18.51.05.05.09.09.13.14.05.05.09.09.14.13,0-.02,0-.03.01-.05-.04-.1-.07-.2-.1-.33.1.11.12.2.16.28l.07-.07c.04.06.08.13.13.23-.09-.08-.15-.12-.19-.14.04.08.09.15.2.25h-.07s-.02.01-.04.02l-.08.07s.03-.14-.05-.18c-.02,0-.05,0-.08.02.01-.03.02-.05.01-.06,0,0,0,0-.01,0-.06.12-.08.04-.25.06-.08-.2-.3-.45-.49-.75-.19-.31-.34-.69-.44-.93l-.02.37-.16-.05c-.05.49.78,1.22.97,1.46-.06.04-.19-.01-.32-.09l-.02.11c-.06-.06-.18-.11-.1-.19-.12-.08-.22-.17-.25-.21-.19.24.54.72.3.93h.04s0-.03,0-.03l.03.03.11-.02s-.06.11-.1.16l.03.14s-.04-.06-.07-.07c-.01.03-.01.05.02.06-.16-.03-.46-.17-.54-.28l.14.24c.06.04.09.12.11.19l.05.08s-.02-.02-.03-.04l.02.05-.03-.06c-.11-.1-.41-.27-.46-.32-.08.08.36.46.46.45-.41,0-.22.05-.66-.03,0,.05.19.16.34.22l-.02-.06.02-.04.03.11c.06.02.11.04.13.04.02.13-.02.19-.07.22h0s0,0,0,0c-.02.02-.05.03-.08.03-.04-.31-.86-.64-1.15-.88l.91,1.21c-.06-.06-.42-.35-.47-.37.28.22.13.63-.05.88-.01.06-.02.11-.04.16l-.05-.05-.02.02v-.03s-.04-.06-.04-.06c-.09-.03-.2.05-.21.16l.09.2-.06-.06-.02-.08s-.03-.06-.02-.08h0s0,0,0,0v-.02c-.36-.01.41.56,0,.52.13-.13,0-.25-.14-.33.05.21-.28.4.18.61-.14.02-.13.13-.34-.02l.05.46c-.03-.05-.14-.15-.23-.08.17-.13-.12-.55.21-.46-.26-.17-.44-.2-.6-.43-.09.4.24.87.4,1.27l-.37.16.11.09-.33-.15c.04.08.09.14.06.13-.03-.01-.06-.05-.1-.09,0,.04,0,.08.03.12-.16-.09-.31-.26-.44-.42.07.01.15.02.22.03-.11-.15-.24-.3-.39-.28.01.03.02.05.04.08-.09-.11-.17-.19-.23-.19v.31c.06,0,.17.02.29.04.11.26.24.58.52.59l-.28.05c.17.39.13.32.19.7-.11-.05-.16-.18-.26-.18.22.39-.67.17-.4.4-.02.19.22.23.24.37-.03-.03-.09-.08-.11-.05l.14.25c-.1,0-.08-.19-.25-.14.03.31.06.5-.16.6-.11.28.49.17.32.35-.19-.08-.42-.19-.53-.08.08.15.22.23.22.39l-.26-.18c-.06.11-.06.23-.27.1.06.16,0,.21-.07.23.04.25.62.24.75.27-.3.03-.26.21-.64.09l.02-.19c-.53.08.19.53-.46.3.09-.09.03-.31-.16-.34l.04.24c-.08-.03,0-.12-.12-.1.03.08.11.26.18.35h-.02s-.12.26-.12.26c0-.04-.06-.09-.1-.05l.03.27c-.03-.1-.15-.1-.25-.05-.23.17.48.58.1.57.02-.02,0-.05.01-.07h-.18c.55.4-.29.58.26.97-.31-.02-.14-.08-.3-.42l-.25.03c.01-.07.09-.09.07-.18-.36.02-.17.39-.08.58-.13.02-.39-.33-.43-.08-.07.35.45.22.41.43l-.37-.07c.09.36-.22.39-.37.54,0,.06.01.1.04.13-.25.11.03.59-.16.67-.04-.07-.24-.04-.32-.07v.38c.01-.17-.16-.27-.31-.4-.04.09.03.19.02.26-.04-.07-.08-.15-.18-.15l.1.45s.07-.02.1-.04c-.04.07-.03.29-.23.29-.06-.05-.1-.12-.16-.18.24.04.11-.11.01-.23-.09.21-.07.02-.25.03-.08.14.11.34.27.4-.16.11-.24.13-.17.39l-.21-.18-.02.19-.21-.3c-.33.17.36.31.04.52l-.2-.13c0,.17.32.43.02.36.05.19.41,0,.28.28-.13-.02-.28.03-.37.08.03.13.24.1.28.04-.18.42-.84-.22-.81.3.22-.03.32.36.51.07.03.22-.47.08-.34.36l-.2-.26s.02.17.03.22l-.19-.14c.23.4-.38.22,0,.62-.31-.31-.06.15-.25.12-.16-.31.28-.41-.04-.65-.14,0-.02.17-.16.17-.02-.08-.06-.2-.12-.26-.33.1-.03.48-.03.67l.08-.29c.32.24-.01.14.2.38-.26,0-.06.27-.23.29.02-.02-.01-.05,0-.07-.16.27-.75-.02-.83.08-.11.07-.06.38.13.41.04.14.13-.41.46.02-.59-.18-.01.43-.57.53-.08-.26-.33-.1-.38-.31-.06.18,0,.23.1.4l-.19-.06c.22.43.28.25.26.68-.05-.18-.3-.02-.36-.17-.07.08-.07.19-.02.31v-.03c-.14.36-.38.12-.39.52l.11.03c.01.53-.46.89-.59,1.35l.15-.08c-.05.05-.02.35-.23.37,0-.03,0-.1.02-.11-.11-.07-.29-.12-.38-.05l.14.14-.15-.04c-.09.14.26.11.16.25-.51-.22-.45.56-.94.42.27.31.22-.23.45.07-.08.01-.15-.01-.24.06l.22.1c-.39.35-.66.4-.87.8l-.03-.04c-.16.08-.18.18-.04.35-.11-.03-.1-.16-.21-.16.35.57-.68.23-.42.6-.39-.28-.97-.22-1.2-.56l-.02.13c-.24-.21.19-.31-.05-.54l.48-.12c-.11-.06-.22-.2-.29-.18.04-.08.07-.15-.13-.15,1.15-.29.99-1.46,1.82-1.95,0-.06-.1-.1-.18-.12.34.04-.05-.21-.04-.31l.49.05c-.06-.15-.21-.16-.28-.22.17-.41.76-.54.74-.97.19,0,.28.22.41.12-.47-.08.02-.45-.25-.54.44.11.36-.39.87.02.13-.13-.16-.28-.24-.27.13-.16.23-.3.15-.55.19,0,.38-.88.9-.76-.34-.07-.14-.1-.19-.28l-.3-.07.18-.21c0-.06.03-.07.05-.05.04-.03.13.1.26.04.12-.15-.01-.24-.08-.41h-.05s.05-.12.05-.12c.06-.07.06.43.35.26-.06-.05-.29-.4-.07-.36-.1.12.08.21.18.21l.14-.17-.34-.14c.36-.51.93-.9,1.27-1.47.26.18.27-.38.63-.07h-.05c-.05.16.34.16.36.02-.2.03-.26-.47-.5-.22l-.04-.34c-.68-.62.44-.54.42-1.03.01.04.05.07.07.09-.05-.45.63-.52.56-.67l.22.11c-.15-.46-.16-.51.16-.72.03.03.07.1.14.08-.11-.17-.21-.34-.04-.52l.06.05.18-.34c.64.42-.03-.8.72-.45-.15-.18-.05-.46-.07-.62.03.02.06.03.1.03-.26-.35.34-.28.39-.45-.02-.14-.16-.18-.29-.21.39,0,.01-.68.17-.67.11-.11.28.11.44.17.06-.23-.6-.35-.18-.44,0,.05,0,.12.05.12.12-.06.97.24.88.05h-.16c-.05-.3.8-.09.38-.4l-.21-.11c.47-.13,0-.18.44-.34l.03.03c.05-.16.35-.07.07-.35l-.07.02c.09-.19.12-.18.25-.35-.02-.04-.01-.15.07-.13-.26-.18.14-.48.2-.55-.05.16.11.17.24.2-.17-.22-.15-.29.08-.3-.32-.23-.66-.49-.54-.72.03.07.02.14.1.16.08.02.04-.08.03-.11.08.02.09.13.22.18-.22-.36.15-.27.17-.56.06.13.16.12.29.17-.37-.26.52-.08-.02-.32.57-.23.72-1.05,1.14-1.01.17.05.02-.22.06-.29l.16.12c-.17-.4,0-.23-.15-.67.13.23.25.25.47.25l-.24-.39.28.14c-.06-.13.03-.18.12-.23-.23-.25-.04-.49-.17-.63.4.15.04-.26.4-.1-.03-.06-.05-.11-.06-.17-.17-.06-.35-.16-.24-.18,0,0,0-.01,0-.02l.22.1c0-.1.02-.18.05-.23-.03,0-.08,0-.15,0,.05,0,.1-.01.15-.02,0,0,.01-.02.02-.02,0,0,0,.02,0,.02.07-.01.13-.04.1-.14.39.08.13-1.11.74-1.13-.07.02-.15.09-.11.18.22-.38.62-.36.66-.75l-.12-.23c.12-.37.23-.68.38-.88l-.08-.34c.23-.18.67-1.6.87-.95.04-.43.3-.35.41-.65l.02.32c.14-.1.24-.37.34-.63.15.22.31-.11.5-.53.07.08.15.15.21.35l-.02.12c.07.05.14.12.21.19-.11.22.08-.15.11.1.09-.02.16.34.15.73l.09.32c-.18-.12-.14.49-.25.86.05-.04.1-.08.15-.11-.04.23-.13.17-.12.36.1-.08.2.26.38.06.03-.09.05-.21.06-.33-.01,0-.01,0,0-.01v-.03s0,.02,0,.03c.02-.01.05-.04.07-.07.05.31.08.1.14-.04-.13.73.07.6-.14,1.27.13-.46.18-.18.24,0,.05-.06.05-.01.03.08.04.07.09.09.18-.11-.2.55.03.16-.15.57,0-.11-.04-.18-.09-.23-.03.11-.06.2-.05.24-.16.55.33.2.31.56-.07-.02-.14-.03-.2-.04-.02.04,0,.09.02.15.15.11.22.06.29.01-.03.06-.07.11-.11.17.02,0,.03,0,.05,0-.02.01-.05.03-.08.05-.14.19-.32.36-.48.47.1.11.3.16.52.19.06-.02.13-.01.19,0,.07,0,.13-.01.19-.03-.03-.06-.05-.12-.07-.16-.13-.13-.26-.24-.39-.34.12-.1.21-.02.32.05l-.11-.42c.06-.03.13-.05.27.05-.07.19-.11.3-.12.39.1.07.21.13.34.05l.06.36.03.17v.1s-.09-.12-.19-.14c0,.06,0,.11-.02.14-.02-.03-.04-.06-.06-.1h-.01c.08.22-.01.13-.1.29-.19-.02-.55-.11-.9-.12-.34,0-.67.08-.87.17.07,0,.14.02.21.04l-.14.11c.24.04,1.39.02,1.68-.02,0,.08-.13.14-.27.2l.08.08c-.08.01-.2.07-.21-.04-.14.04-.27.06-.32.06.07.3.9.03.91.35l.02-.04h-.03s.04-.02.04-.02l.06-.1s.05.11.06.18l.12.07s-.07,0-.1.01c.01.03.03.04.06.02-.12.1-.42.25-.56.25l.28.04c.07-.02.14,0,.22.03h.1s-.03.01-.05.02l.05.02h-.06c-.15.02-.47.14-.54.14.02.11.59,0,.64-.08-.26.31-.1.2-.43.5.03.03.24-.05.38-.13l-.06-.02-.02-.04.1.05c.06-.03.1-.06.11-.08.11.07.14.14.13.2h0s0,0,0,0c0,.03-.01.06-.02.08-.27-.16-1.04.27-1.41.34l1.52.05c-.09,0-.54.11-.59.13.35-.08.57.29.65.59.04.04.07.09.1.13h-.07s0,.03,0,.03v-.03s-.09,0-.09,0c-.08.05-.09.19,0,.26l.21.06h-.09s-.08-.03-.08-.03c-.06,0-.06-.01-.07-.04h-.01s.01,0,.01,0v-.02c-.25.28.68.04.39.34-.02-.18-.19-.16-.35-.1.19.09.14.46.59.24-.07.12.02.18-.23.25l.39.25c-.06,0-.2.01-.21.12,0-.21-.5-.25-.22-.45-.3.09-.43.21-.71.2.26.32.83.36,1.24.49l-.11.39.14-.03-.32.17c.09.02.17.02.14.04-.03.02-.08.02-.13.02.03.03.07.05.11.05-.17.07-.4.08-.6.08.05-.05.11-.1.16-.15-.19,0-.38,0-.46.13.03,0,.06.01.09.02-.14,0-.25,0-.29.06l.24.2s.12-.12.21-.2c.27.08.6.17.78-.04l-.14.25c.41.11.33.1.66.29-.11.05-.24.01-.31.09.44.07-.29.62.06.56.13.13.31-.03.44.04-.04,0-.12.02-.11.05l.28.04c-.07.08-.2-.06-.27.11.26.17.43.27.37.5.15.26.45-.27.47-.03-.19.1-.41.2-.4.36.16.03.31-.03.44.07l-.31.09c.05.12.14.19-.09.27.16.06.16.13.13.2.22.13.57-.33.68-.42-.17.25,0,.34-.33.56l-.13-.13c-.27.46.54.18-.06.55-.01-.12-.22-.21-.37-.09l.21.12c-.07.05-.09-.08-.16.03.08.03.27.07.39.09h-.02s.14.27.14.27c-.03-.03-.11,0-.1.05l.22.15c-.1-.04-.17.06-.19.16,0,.29.75-.02.51.28,0-.03-.04-.02-.05-.06l-.1.15c.65-.19.26.58.91.4-.21.23-.15.06-.52-.03l-.14.22c-.05-.06-.01-.12-.1-.17-.21.29.2.37.4.43-.07.11-.5.1-.33.28.23.27.45-.21.59-.05l-.29.24c.33.16.16.41.19.63.04.04.08.05.12.05-.07.26.47.35.42.55-.08-.02-.18.16-.26.21l.3.23c-.13-.1-.32-.03-.51,0,.05.09.17.09.21.15-.08-.02-.16-.03-.23.04l.42.21s.03-.07.03-.1c.03.08.2.2.08.37-.08.01-.16,0-.24.01.18-.16-.02-.16-.18-.16.1.2-.03.07-.14.22.06.15.33.13.48.04-.02.19-.05.26.2.37l-.27.05.13.13-.36-.03c-.08.36.47-.09.43.3l-.23.08c.13.1.53.02.29.21.18.08.25-.32.4-.04-.1.09-.15.23-.17.33.12.06.23-.12.21-.19.22.4-.7.52-.27.82.12-.19.48-.03.37-.35.19.11-.23.41.07.49h-.33s.14.08.19.1l-.23.06c.46.07-.07.43.49.38-.43.05.07.14-.06.27-.34-.07-.15-.48-.53-.38-.09.11.12.12.03.23-.07-.03-.2-.08-.28-.07-.13.32.36.32.5.45l-.17-.24c.38-.1.1.1.42.08-.16.2.17.21.08.36,0-.03-.05-.02-.05-.05.1.29-.48.57-.46.69-.01.13.26.28.4.15.14.06-.24-.36.3-.35-.51.35.32.28.06.77-.25-.1-.29.2-.48.1.1.16.19.14.37.17l-.16.11c.47.1.37-.06.69.22-.18-.07-.21.22-.36.17.02.1.1.18.23.21h-.03c.2.32-.13.35.17.61l.1-.07c.42.33.41.92.68,1.31l.03-.17c0,.07.26.24.14.41-.02-.02-.08-.05-.08-.08-.12.04-.28.15-.27.27l.19-.02-.13.09c.05.16.25-.13.29.03-.49.26.15.71-.26.99.41-.01-.04-.32.34-.31-.04.07-.1.11-.1.22l.21-.11c.03.52-.11.77.08,1.18h-.05c-.04.18.03.25.25.25-.1.07-.18-.03-.26.06.66.08-.25.67.21.71-.46.13-.78.62-1.19.59Zm-21.68-10.99h-.08c.04.06.08.12.08,0Zm6.74-6.63c-.11.02-.24-.01-.04.18.14.05.06-.12.04-.18Zm1.55-3.43c-.08.01-.12.05-.13.1.11,0,.17-.03.13-.1Zm1.16-3.69s-.04-.04-.06-.06c-.02.04.02.03.06.06Zm2.13-1.04c-.06-.09-.11-.18-.16-.24,0,.01,0,.03,0,.05.03.11.1.15.17.18Zm2.43-1.86l-.03.04s-.02.07-.03.1l.06-.14Zm-.07-.4c.01-.09.02-.15.03-.2-.03,0-.06,0-.09.01,0,.09,0,.17.06.19Zm.11.18s.05-.03.09-.06h0c0-.06,0-.11-.02-.15-.03.06-.07.13-.08.21Zm-.03-.37s.02.02.03.02c-.01,0-.02-.01-.03-.02Zm-.18-2.01h0c-.02-.21-.02-.33,0,0Zm-.65.55s.03.02.04,0c0-.03-.01-.05-.02-.08-.02.04.02-.11.05-.28-.03-.03-.05-.04-.07.37Zm-1.26,3.11v-.06s-.03-.04-.04-.07l.04.13Zm.07.26h0s.03,0,.04,0c-.01-.07-.03-.14-.05-.17,0,.03,0,.1.01.17Zm.05-.35s.03.07.05.09c0-.06,0-.12.01-.19-.02-.02-.04-.02-.06.1Zm-.09.38c-.04-.07-.09-.13-.13-.18-.07-.32.02-.29.08-.23l-.04-.3h0s0,0,0,0c-.03-.19-.06-.37-.11-.48-.09-.21-.45-.28-.49-.27.04.27.29.89.51,1.42.02-.03.04-.02.09.11,0,.04,0,.07,0,.11.05.11.09.22.13.31-.01-.14-.04-.34-.04-.49Zm.13-.2s0,.03,0,.06c0-.02,0-.04,0-.06Zm.17-1.72c0-.06-.01-.13-.01-.2-.02.06-.03.15-.05.26.02-.02.04-.04.06-.06Zm.14,2.06s0,.02,0,.02c.01.06.02.12,0-.02Zm.27-1.75c0-.16-.02-.24-.02-.35-.04.06-.07.08-.1.09l.04.09c-.03.06-.05-.03-.08-.08l-.09.02s-.02.04-.03.08c0,.34-.04.9,0,1.32.08.37.11-.75.26-1.17Zm.08-.23s-.03.08-.04.14c0-.01.02-.03.03-.03.02-.08-.01.12-.03.28.02-.07.05-.13.05-.39Zm.5-1.52v-.02c-.09.1-.2.28-.19-.1,0-.04,0-.1.01-.2l.03-.08c.05-.07.11-.07.17-.17,0-.1,0-.18-.05-.21-.03,0-.06.04-.08.08-.23.75-.39,1.65-.45,2.4v-.02c.08-.3.22-.81.21-.56,0,.06-.01.14-.02.24v.03c-.07.22-.13.42-.18.64,0,.07,0,.08.04-.03.02-.09.05-.2.08-.31.12-.36.3-.97.43-1.7Zm-.02.56c.03.08.04.18.06.28v-.28c.02.06.02.24.02.41,0,.1.02.21.03.32,0,.01.01.02.03.02.08-.39.26-.68.33-1.35-.03-.94-.28.16-.42.06-.02.21-.03.39-.04.54Zm.12,1.48l-.02-.12c-.02.07-.04.14-.06.21.02,0,.05-.04.08-.09Zm.82.43s-.02-.11.07-.24c.02,0,.05.02.07.03.07-.11.13-.23.19-.33-.11-.04-.24-.02-.33-.03l-.09.42c-.19.19-.15-.01-.13-.23l-.15.19h0s0,0,0,0c-.09.13-.17.27-.23.44-.1.32-.26.92-.28.94.14-.16.55-.68.88-1.19Zm.4.77c-.09.04-.17.1-.23.15,0,.01.02.03.04.05.1.02.15-.07.19-.2Zm-.37,2.78s-.06,0-.09.01c.02.04.03,0,.09-.01Zm2.14,3.37c.07-.09.09-.15,0-.16-.04.07-.03.12,0,.16Zm1.81,3.35c.12-.08-.05-.12-.12-.15-.05.1-.16.18.12.15Zm.83,9.26l-.05.06c.07,0,.14.01.05-.06Z"/>
        <path class="cls-1" d="m208.6,21.36v.02s0-.02,0-.02Z"/>
        <path class="cls-1" d="m207.72,26.65l-.03.02.03-.02Z"/>
        <path class="cls-1" d="m206.46,15.67v.02s0-.02,0-.02Z"/>
        <path class="cls-1" d="m204.85,11.65s-.08.04-.12.06c.04,0,.09,0,.12-.06Z"/>
        <polygon class="cls-1" points="207.6 18.4 207.6 18.41 207.64 18.4 207.6 18.4"/>
        <path class="cls-1" d="m200.23,6.3c.02.06.05.14.05.17v-.1s-.03-.03-.05-.07Z"/>
        <path class="cls-1" d="m200.28,6.47h0s0,0,0,0Z"/>
        <path class="cls-1" d="m200.36,5.85c-.02-.07.03.43.01.3.02.44.02-.6-.01-.3Z"/>
        <polygon class="cls-1" points="199.74 5.08 199.68 4.8 199.61 4.82 199.74 5.08"/>
        <path class="cls-1" d="m200.99,2.81c-.04.17-.08.29-.09.46l.09-.25h0c.02-.1.03-.2.03-.26,0-.02-.02,0-.04.05Z"/>
        <polygon class="cls-1" points="201.75 4.94 201.76 4.89 201.74 4.77 201.74 4.96 201.52 5.32 201.89 4.78 201.87 4.74 201.75 4.94"/>
        <path class="cls-1" d="m203.37,6.68s-.05-.02-.09-.04c.04.02.07.03.09.04Z"/>
        <polygon class="cls-1" points="209.22 31.86 209.16 32.02 209.29 31.89 209.22 31.86"/>
        <path class="cls-1" d="m209.65,31.99l-.3.13.3-.02s-.07-.07,0-.11Z"/>
        <path class="cls-1" d="m206.62,14.16h-.08c-.07.06-.07.09-.06.15l.14-.15Z"/>
        <polygon class="cls-1" points="206.93 15.93 206.93 15.9 206.67 16.04 206.93 15.93"/>
        <path class="cls-1" d="m207.65,17.06s0,.03.02.04c0-.01,0-.03-.02-.04Z"/>
        <path class="cls-1" d="m207.75,17.23s-.06-.09-.08-.13c0,.11-.22.25.08.13Z"/>
      </g>
      <g>
        <path class="cls-1" d="m11.17,94.9c.06.02.03-.19.04-.23-.1.05-.04.28-.04.23Z"/>
        <path class="cls-1" d="m8.93,94.68s-.01-.02-.02-.03c-.02,0-.05,0-.09,0,.03.14-.1.12.11.04Z"/>
        <path class="cls-1" d="m8.91,94.65c.09-.01-.06-.12,0,0h0Z"/>
        <path class="cls-1" d="m8.47,94.74l.12-.13c-.03-.08-.14-.1-.1-.16-.13.07-.1.15-.02.28Z"/>
        <path class="cls-1" d="m8.36,95l.06-.05s-.03-.05-.06.05Z"/>
        <path class="cls-1" d="m8.49,94.9c0,.11.02,0,.07-.07l-.14.11c.02.06.02.17.06-.04Z"/>
        <path class="cls-1" d="m8.68,95.13c.24-.05.2-.3-.04-.25.07.08.16.12.04.25Z"/>
        <path class="cls-1" d="m7.69,94.57c0,.08.05.2.06.3l.09-.09c-.05-.05-.14-.1-.15-.21Z"/>
        <path class="cls-1" d="m7.75,94.87l-.14.13c.12.01.15-.05.14-.13Z"/>
        <polygon class="cls-1" points="7.24 94.39 7.11 94.66 7.17 94.57 7.24 94.39"/>
        <path class="cls-1" d="m6.82,94.6c.06-.15-.08-.24-.02-.34-.09.03-.17.15-.24.27.08-.06.16-.05.27.07Z"/>
        <path class="cls-1" d="m6.43,94.7s.08-.1.12-.17c-.04.03-.08.08-.12.17Z"/>
        <path class="cls-1" d="m7.38,94.96s-.03-.17-.11-.21l.06.21h.05Z"/>
        <path class="cls-1" d="m7.33,94.97h0c-.05-.01-.09-.01-.11-.02.02,0,.05,0,.11.02Z"/>
        <path class="cls-1" d="m7.21,94.95h0s0,0,0,0Z"/>
        <path class="cls-1" d="m7.39,94.97s-.01,0-.01,0c0,.02,0,.03.01,0Z"/>
        <path class="cls-1" d="m6.68,94.9c-.06.09-.13.1-.21.12.08.04.17.06.25.06.01-.07.04-.19-.05-.18Z"/>
        <polygon class="cls-1" points="5.26 95.04 5.29 95.08 5.28 95.04 5.26 95.04"/>
        <path class="cls-1" d="m6.73,95.08s.09-.02.14-.04c0-.01,0-.02,0-.03h.02s.04-.08.07-.1c0,.02.01.04.02.05,0-.08.01-.18.12-.11.06.33,0,.26-.12.39.04-.09-.09-.1-.11-.18-.03.06-.07.1-.12.06-.02.01-.02,0-.01-.04Zm.17-.05c.06.03.07,0,.08-.06-.02.02-.05.04-.08.06Z"/>
        <path class="cls-1" d="m6.96,94.9h0c-.02-.06-.02-.03,0,0Z"/>
        <path class="cls-1" d="m5.13,94.71c-.04.11-.07.22-.09.32l.13-.1-.04-.23Z"/>
        <polygon class="cls-1" points="4.58 94.77 4.51 94.89 4.67 94.97 4.58 94.77"/>
        <path class="cls-1" d="m12.51,106.49l.09.02s-.06-.02-.09-.02Z"/>
        <path class="cls-1" d="m12.2,106.1l-.08.05c.06-.02.09-.03.08-.05Z"/>
        <path class="cls-1" d="m4.39,100.57c-.08.2-.22.47-.06.31l.15-.16c-.07-.03-.09-.09-.08-.15Z"/>
        <path class="cls-1" d="m8.68,103.68l.03-.06c-.07.03-.14.06-.2.08.05,0,.11-.01.17-.02Z"/>
        <path class="cls-1" d="m9.4,103.36c.02-.05.03-.12.02-.19l-.02.19Z"/>
        <path class="cls-1" d="m14.44,108.44l.22-.08c-.08-.1-.13.02-.22.08Z"/>
        <path class="cls-1" d="m.09,95.34c-.08.03-.08.09-.03.16.13-.04.43.03.03-.16Z"/>
        <path class="cls-1" d="m10.62,107.81c.06,0,.1,0,.14-.04-.06,0-.1,0-.14.04Z"/>
        <path class="cls-1" d="m.06,95.51c-.1.02-.11.11.27.32.02,0,.03-.02.05-.02-.14-.11-.26-.21-.32-.3Z"/>
        <path class="cls-1" d="m20.67,116.17s0,.02,0,.03c.02-.02.02-.03,0-.03Z"/>
        <path class="cls-1" d="m20.85,119.79s-.06-.05-.09-.08c0,.03.03.05.09.08Z"/>
        <path class="cls-1" d="m2.52,94.91c.09-.02-.01-.02,0,0h0Z"/>
        <path class="cls-1" d="m2.8,95.01c-.07-.03-.14-.05-.21-.06.04.02.11.04.21.06Z"/>
        <path class="cls-1" d="m2.66,94.91c.05,0,.09.01.12.02-.03-.04-.07-.06-.12-.02Z"/>
        <path class="cls-1" d="m2.52,94.91s-.07,0-.14.01c.06,0,.13,0,.21.02-.04-.01-.06-.03-.07-.03Z"/>
        <path class="cls-1" d="m16.82,112.46s0,.01,0,.02c.11,0,.08-.02,0-.02Z"/>
        <polygon class="cls-1" points="7.2 100.42 7.19 100.42 7.19 100.43 7.2 100.42"/>
        <path class="cls-1" d="m7.47,100.49c-.27.1-.28.03-.29-.06l-.43.46.72-.4Z"/>
        <path class="cls-1" d="m20.39,115.84v-.02s0,.01,0,.02Z"/>
        <path class="cls-1" d="m12.33,106.35l.02.02s-.01-.01-.02-.02Z"/>
        <path class="cls-1" d="m16.44,110.83h.02s0,0-.02,0Z"/>
        <path class="cls-1" d="m17.6,116.06l-.02.03.02-.03Z"/>
        <path class="cls-1" d="m9.33,103.22s-.05.07-.09.1c.04-.01.08-.04.09-.1Z"/>
        <polygon class="cls-1" points="14.4 108.46 14.41 108.46 14.44 108.44 14.4 108.46"/>
        <path class="cls-1" d="m3.55,94.79h.02s-.02,0-.02,0Z"/>
        <path class="cls-1" d="m3.67,94.93s-.14-.11-.12-.13l-.17.06c.11-.01.2.04.29.07Z"/>
        <path class="cls-1" d="m2.37,95.08c.14.05-.29-.25-.14-.17-.26-.25-.1.31.14.17Z"/>
        <polygon class="cls-1" points="4.91 96.18 5.04 96.23 4.82 95.98 4.91 96.18"/>
        <path class="cls-1" d="m2.1,96.14c.11.05.18.08.2.08.05.01.08.01.07,0-.08-.06-.08-.09-.28-.17l-.04.06.04.03Z"/>
        <polygon class="cls-1" points="3.89 98.1 3.91 98.09 3.86 98 3.87 98.1 3.45 98.1 4.15 98.14 4.12 98.11 3.89 98.1"/>
        <path class="cls-1" d="m6.1,99.17s-.06,0-.1,0c.05,0,.08,0,.1,0Z"/>
        <polygon class="cls-1" points="20.95 120.33 20.95 120.5 21.03 120.33 20.95 120.33"/>
        <path class="cls-1" d="m21.44,120.39s-.09-.04-.05-.1l-.23.23.28-.13Z"/>
        <path class="cls-1" d="m11.91,104.89l-.07.04c-.05.07-.04.1,0,.15l.07-.2Z"/>
        <polygon class="cls-1" points="12.86 106.41 12.85 106.38 12.66 106.62 12.86 106.41"/>
        <path class="cls-1" d="m14.1,107.31s-.09-.06-.13-.09c.05.1-.11.31.13.09Z"/>
        <path class="cls-1" d="m13.95,107.19s.02.02.03.03c0-.01-.02-.02-.03-.03Z"/>
        <path class="cls-1" d="m8.98,102.22c.02.06.17-.09.21-.11-.1-.05-.25.15-.21.11Z"/>
        <path class="cls-1" d="m7.75,100.35s0-.03.01-.04c-.01-.01-.03-.03-.05-.08-.09.11-.16,0,.04.11Z"/>
        <path class="cls-1" d="m7.76,100.31c.07.07.05-.12,0,0h0Z"/>
        <path class="cls-1" d="m7.42,100.02l.18.02c.05-.07-.01-.17.06-.18-.13-.05-.18.02-.24.16Z"/>
        <path class="cls-1" d="m7.14,100.1l.08.02s.02-.05-.08-.02Z"/>
        <path class="cls-1" d="m7.3,100.14c-.09.06,0,.01.1.01l-.17-.03c-.03.05-.12.13.07.02Z"/>
        <path class="cls-1" d="m7.24,100.43c.19.15.36-.04.17-.19-.01.1,0,.2-.17.19Z"/>
        <path class="cls-1" d="m7.06,99.31c-.06.04-.13.16-.2.23h.13c0-.05-.01-.15.07-.23Z"/>
        <path class="cls-1" d="m6.87,99.54l-.19-.02c.07.1.13.08.19.02Z"/>
        <polygon class="cls-1" points="6.92 98.85 6.62 98.91 6.73 98.9 6.92 98.85"/>
        <path class="cls-1" d="m6.48,98.65c.15-.05.14-.22.25-.23-.08-.06-.23-.04-.36-.02.1.02.14.09.12.25Z"/>
        <path class="cls-1" d="m6.16,98.41c.05,0,.13,0,.2-.01-.05-.01-.12-.01-.2.01Z"/>
        <path class="cls-1" d="m6.56,99.31s.11-.13.1-.22l-.13.18.03.04Z"/>
        <path class="cls-1" d="m6.46,99.18h0s0,0,0,0Z"/>
        <path class="cls-1" d="m6.52,99.28h0s-.05-.08-.06-.1c0,.02.03.05.06.1Z"/>
        <path class="cls-1" d="m6.56,99.32s0-.01,0-.01c-.01.02-.02.02,0,.01Z"/>
        <path class="cls-1" d="m6.17,98.73c-.11.01-.16-.04-.22-.09.02.09.06.17.11.24.06-.03.17-.08.11-.15Z"/>
        <polygon class="cls-1" points="5.74 98.39 5.71 98.41 5.74 98.4 5.74 98.39"/>
        <path class="cls-1" d="m6.06,98.88s.07.06.11.09c0,0,.02-.01.03-.02v.02s.1-.02.13-.02c0,.02-.02.03-.03.05.07-.04.15-.1.17.03-.22.26-.21.16-.38.15.09-.02.02-.14.07-.2-.06.01-.12,0-.13-.06-.02,0,0-.02.02-.04Zm.15.1c0,.07.05.05.09.02-.03,0-.06-.01-.09-.02Z"/>
        <path class="cls-1" d="m6.34,98.95h.01s0-.03-.01,0Z"/>
        <path class="cls-1" d="m6.08,98.28c-.11.03-.23.06-.36.07h.12s.24-.07.24-.07Z"/>
        <polygon class="cls-1" points="5.97 98.24 5.82 98.24 5.75 98.28 5.97 98.24"/>
        <path class="cls-1" d="m16.7,94.83l.07-.06s-.05.04-.07.06Z"/>
        <path class="cls-1" d="m16.2,94.82v.1c.01-.05.02-.09,0-.1Z"/>
        <path class="cls-1" d="m6.99,97.44c.1.18.22.47.21.24l-.03-.22c-.07.04-.12.02-.17-.03Z"/>
        <path class="cls-1" d="m12.12,96.05l-.03-.07c-.02.07-.04.14-.06.21.03-.04.06-.09.09-.14Z"/>
        <path class="cls-1" d="m12.31,95.29s-.07-.09-.14-.14l.14.14Z"/>
        <path class="cls-1" d="m19.43,94.55l.08-.22c-.13,0-.07.11-.08.22Z"/>
        <path class="cls-1" d="m4.99,97.42c.2.08.29.11.33.12-.27-.12-.69-.3-.33-.12Z"/>
        <path class="cls-1" d="m16.55,97.13s.06-.08.06-.13c-.04.04-.07.08-.06.13Z"/>
        <path class="cls-1" d="m5.32,97.54c.2.09.32.14.08,0-.04-.02-.07-.03-.11-.05.04.04.08.06.03.05Z"/>
        <path class="cls-1" d="m29.36,94.54s.02.01.02.03c0-.03,0-.03-.02-.03Z"/>
        <path class="cls-1" d="m32.29,96.68s-.07.02-.12.02c.02.01.06.01.12-.02Z"/>
        <path class="cls-1" d="m5.62,97.98s.04,0,0,0h0Z"/>
        <path class="cls-1" d="m5.49,97.98s.06,0,.08,0c-.02,0-.05,0-.08,0Z"/>
        <path class="cls-1" d="m5.64,98s-.01,0-.02,0c.05,0,.09.01.02,0Z"/>
        <path class="cls-1" d="m5.62,97.98s-.02-.01-.04-.02c.01,0,0,.01-.01.02.02,0,.04,0,.05,0Z"/>
        <path class="cls-1" d="m24.06,95.22s0,.01.01.02c.06-.09.04-.08-.01-.02Z"/>
        <polygon class="cls-1" points="8.64 95.16 8.63 95.17 8.64 95.17 8.64 95.16"/>
        <path class="cls-1" d="m8.87,94.99c-.09.27-.15.24-.23.18l.09.62.14-.81Z"/>
        <path class="cls-1" d="m28.93,94.56h-.01s.01,0,.01,0Z"/>
        <path class="cls-1" d="m32.84,96.4l.11-.06c-.03.32-.36.01-.42.35l-.37-.32c.01.12-.04.3.02.34-.09,0-.17.03-.05.19-.89-.79-1.77,0-2.63-.41-.06.03-.02.14,0,.21-.16-.3-.15.16-.23.21l-.24-.44c-.09.13-.02.27-.02.35-.44.1-.87-.32-1.22-.06-.12-.16.02-.35-.13-.41.2.43-.38.24-.31.51-.16-.43-.53-.08-.47-.73-.18-.04-.14.29-.09.35-.21-.02-.37-.02-.54.19-.12-.15-.94.18-1.14-.32.13.32,0,.17-.12.31l.11.29-.27-.03c-.05.03-.07.02-.07,0-.05-.01,0-.17-.11-.24-.19-.01-.19.14-.29.3l.03.04-.13.03c-.09,0,.32-.29.02-.44,0,.08-.17.46-.26.26.15.01.13-.19.07-.27l-.22-.02.08.36c-.62,0-1.27-.26-1.93-.22,0-.32-.47,0-.42-.48l.03.04c.16-.05-.05-.37-.19-.32.14.15-.24.48.1.54l-.26.23c-.13.91-.69-.06-1.08.24.03-.04.03-.08.04-.11-.34.3-.79-.23-.87-.08l-.04-.25c-.29.39-.33.42-.69.27,0-.04.04-.11-.01-.16-.08.18-.17.37-.41.32v-.08s-.37.05-.37.05c-.01-.76-.65.48-.78-.35-.07.22-.35.3-.47.41,0-.03,0-.07-.03-.1-.14.41-.43-.12-.59-.07-.1.1-.06.23,0,.36-.22-.32-.57.37-.65.24-.15-.03-.06-.29-.11-.46-.23.08.05.69-.26.39.03-.03.1-.06.07-.11-.12-.06-.34-.94-.46-.76l.08.14c-.21.2-.52-.61-.54-.1l.02.24c-.37-.31-.15.1-.53-.17v-.04c-.16.05-.25-.25-.32.14l.06.05c-.2.03-.22,0-.43,0-.02.04-.12.1-.15.02,0,.32-.47.16-.57.14.16-.05.08-.18.03-.31-.09.26-.16.29-.29.1-.01.4-.03.82-.29.85.04-.06.1-.1.07-.18-.03-.08-.09,0-.11.04-.03-.08.06-.15.02-.28-.17.38-.31.03-.56.17.08-.12,0-.2-.02-.33-.01.45-.36-.39-.25.2-.51-.34-1.27,0-1.48-.37-.06-.16-.19.11-.28.11v-.2c-.23.36-.18.14-.46.5.11-.24.06-.35-.06-.53l-.19.42-.04-.31c-.08.12-.17.08-.26.03-.07.33-.38.31-.43.5-.1-.41-.23.11-.31-.28-.03.06-.06.11-.1.15.05.18.07.38-.02.3,0,0-.01,0-.02,0l-.04-.24c-.08.06-.16.09-.22.09.03.02.05.06.08.12-.04-.04-.07-.08-.1-.12-.01,0-.02,0-.03,0,0,0,.01-.01.02-.01-.05-.06-.1-.08-.17,0-.43-.36-.25.51-.54,0,.04.05.07.07.05-.01-.08.02-.41-.31-.39-.13l.16.22c0,.1.02.17-.04.16l.23.25c-.17-.09.3.31-.43-.2.27.2-.17-.06-.11.01l-.32-.19c-.17-.06-.1,0-.03.06-.52-.24-.54-.19-.46-.12.13.08.27.16.27.19l-.11-.05.34.19c-.35-.14.24.1.16.08.19.08.12.07-.07.04l.02.04c-.27-.12-.47-.12-.82-.2l.33.12c-.16-.02-.31-.1-.35-.07.22.08.3.18.66.25.07,0,.15,0,.21,0-.02,0-.02,0,0,0,0,0,.01,0,.02,0h0s.09.02.14.03c-.04.03.08.03.23.05-.47-.02-.12.03-.63.06.33-.03.31.02.35.05.08,0,.07,0,.02.02.03.02.1.02.27,0-.4.07,0,.02-.34.09.02-.02,0-.04-.06-.05-.06.02-.12.04-.12.05-.3.14.38.06.28.14h-.23s-.02.04,0,.05c.16.02.24-.01.33-.04-.04.02-.09.05-.14.07h.05s-.05.01-.1.03c-.17.09-.37.2-.54.28.13.06.35.05.54-.03.06-.03.12-.05.17-.08.06-.03.11-.06.16-.1-.02,0-.03-.02-.04-.03-.1.01-.22.01-.34,0,.13-.06.23-.06.32-.07l-.04-.09c.07-.02.15-.04.26-.06-.1.06-.16.11-.19.15.08-.01.17-.04.3-.12v.07s-.01.02-.01.04l.05.09s-.13-.07-.19,0c-.01.02-.02.04,0,.08-.03-.02-.04-.03-.06-.03,0,0,0,0-.01.01.09.09.01.09-.02.26-.21.02-.51.16-.86.25-.35.09-.76.13-1.02.15l.35.13-.1.14c.45.19,1.39-.39,1.68-.5.02.07-.07.18-.18.28l.1.05c-.07.04-.15.14-.21.04-.11.09-.23.16-.28.18.18.26.85-.31.98-.02v-.04s-.02,0-.02,0l.03-.02.02-.11s.09.09.13.15l.14.02s-.07.02-.09.05c.02.02.04.03.06,0-.08.14-.3.39-.43.44l.28-.07c.06-.05.14-.05.21-.05l.09-.02s-.03,0-.05.02h.05s-.06,0-.06,0c-.12.08-.38.31-.44.35.06.1.55-.21.56-.31-.13.39-.02.23-.22.62.04.02.2-.14.31-.26h-.07s-.03-.03-.03-.03h.11s.07-.09.07-.11c.13.02.18.07.19.14h0s0,0,0,0c0,.03,0,.06.01.08-.31-.05-.87.64-1.18.84l1.43-.52c-.08.04-.45.3-.49.34.3-.2.64.06.82.3.05.03.1.05.14.08l-.06.03v.02s0-.02,0-.02l-.07.03c-.05.08-.01.21.09.24l.22-.02-.08.04h-.08c-.05.02-.06,0-.08-.02h-.01s.01,0,.01,0v-.02c-.14.35.64-.22.48.17-.08-.16-.24-.08-.36.04.21.01.3.38.64,0-.02.14.08.16-.12.32l.46.08c-.06.01-.18.09-.14.19-.08-.2-.56-.05-.38-.34-.24.19-.32.36-.58.45.36.2.9.03,1.34-.02l.05.41.12-.08-.24.27c.09-.02.16-.04.14-.02-.02.03-.06.05-.11.07.04.02.08.02.12.01-.14.13-.34.22-.53.3.03-.07.06-.14.09-.2-.18.06-.35.14-.38.29.03,0,.06,0,.09-.01-.13.05-.23.1-.25.16l.3.09c.02-.05.07-.15.12-.27.28-.02.62-.06.71-.33l-.03.29c.42-.05.34-.03.72.02-.08.09-.21.1-.25.2.44-.1-.03.69.27.5.17.07.28-.14.42-.13-.03.02-.1.06-.08.09l.28-.07c-.04.1-.21.02-.2.2.3.06.49.09.53.32.23.18.31-.42.43-.2-.14.16-.31.34-.23.48.16-.03.28-.14.44-.1l-.25.2c.09.09.2.13.02.28.17,0,.2.06.19.14.25.04.41-.52.47-.64-.06.3.13.31-.1.64l-.17-.07c-.07.53.56-.03.15.53-.06-.11-.28-.11-.37.05l.24.03c-.05.07-.11-.04-.13.09.09,0,.28-.03.39-.07h-.02s.23.2.23.2c-.04-.02-.1.04-.08.08l.26.05c-.1,0-.14.12-.12.22.1.27.69-.3.58.07-.01-.03-.05,0-.06-.03l-.04.17c.54-.42.46.44,1,.03-.11.29-.12.11-.49.17l-.04.25c-.06-.03-.06-.11-.15-.12-.08.35.32.27.54.25-.02.13-.43.28-.2.39.31.17.34-.37.53-.27l-.18.34c.37.02.31.32.41.51.05.02.1.01.13,0,.03.27.57.15.59.35-.08.02-.11.22-.16.29l.37.1c-.16-.05-.31.09-.48.2.08.06.19.02.25.06-.08.01-.16.03-.2.13l.46.03s0-.07-.01-.1c.05.06.26.11.21.31-.07.04-.15.06-.21.1.11-.22-.07-.14-.22-.08.17.15,0,.08-.04.25.11.12.35,0,.46-.15.06.19.05.26.32.27l-.23.15.17.07-.34.11c.06.37.4-.26.51.12l-.18.16c.16.05.5-.18.35.09.2,0,.11-.39.35-.18-.06.12-.05.27-.03.37.14,0,.17-.2.12-.26.35.29-.45.74.05.86.04-.22.44-.21.21-.46.21.03-.06.47.25.43l-.31.11c.03.05.16.03.21.03l-.19.14c.45-.11.1.43.6.17-.38.21.12.1.05.28-.34.06-.31-.39-.63-.15-.04.14.15.07.12.2-.08,0-.21,0-.29.04,0,.35.45.17.63.23l-.25-.16c.32-.24.13.06.42-.08-.07.25.24.13.21.31-.02-.03-.05,0-.07-.03.21.23-.23.71-.16.81.04.13.35.16.43,0,.15,0-.36-.24.15-.43-.34.52.4.14.34.69-.27,0-.19.29-.41.28.16.11.23.06.41.01l-.11.16c.47-.08.32-.19.72-.06-.19,0-.11.28-.27.3.06.09.16.13.29.11h-.03c.31.23.01.39.39.51l.06-.1c.51.14.72.7,1.12.96l-.03-.17c.03.07.33.12.29.33-.03-.01-.1-.02-.1-.05-.09.08-.2.24-.15.35l.17-.09-.09.13c.1.13.18-.21.28-.08-.36.43.41.6.13,1.02.38-.17-.16-.28.2-.41-.01.08-.06.14,0,.25l.16-.18c.22.47.19.75.52,1.06l-.05.02c.03.18.12.22.32.14-.06.1-.18.04-.22.16.65-.17.02.72.46.58-.38.29-.5.87-.88.99l.12.05c-.27.17-.24-.27-.53-.11l.02-.49c-.08.09-.26.15-.25.22-.06-.07-.13-.11-.18.09.06-1.18-1.11-1.37-1.33-2.3-.06-.03-.12.07-.17.14.13-.32-.22-.01-.31-.05l.19-.46c-.16.01-.22.15-.29.21-.35-.28-.29-.88-.72-.99.05-.19.29-.21.24-.36-.21.43-.43-.15-.59.08.23-.39-.27-.46.27-.83-.08-.16-.31.07-.33.15-.11-.17-.22-.31-.49-.3.05-.19-.73-.62-.47-1.08-.17.31-.14.1-.32.1l-.15.27-.15-.23c-.06-.02-.06-.04-.04-.06-.02-.04.13-.1.12-.24-.11-.15-.23-.06-.41-.04v.05s-.12-.08-.12-.08c-.05-.08.43.07.35-.26-.06.05-.47.16-.36-.04.09.13.23-.02.26-.11l-.12-.18-.23.29c-.38-.49-.6-1.15-1.04-1.64.25-.2-.29-.37.11-.63l-.02.05c.14.09.25-.27.13-.34-.03.2-.52.11-.36.42l-.34-.06c-.79.47-.39-.58-.86-.7.04,0,.09-.03.11-.04-.45-.08-.32-.76-.48-.73l.17-.18c-.48.01-.53,0-.64-.36.03-.02.11-.04.12-.11-.2.05-.39.1-.51-.12l.07-.04-.28-.27c.59-.49-.78-.2-.22-.82-.22.09-.45-.08-.61-.11.02-.02.05-.05.06-.09-.41.15-.17-.41-.31-.5-.14-.02-.21.1-.28.22.11-.37-.65-.21-.59-.36-.07-.14.19-.23.29-.37-.2-.13-.51.47-.47.04.05,0,.11.04.13,0-.03-.13.51-.85.3-.83l-.06.15c-.29-.04.15-.79-.26-.48l-.17.17c0-.49-.17-.06-.2-.52l.03-.02c-.14-.09.03-.35-.31-.17v.08c-.16-.14-.15-.17-.26-.34-.04,0-.15-.03-.11-.11-.25.2-.42-.27-.46-.35.14.09.2-.05.27-.17-.26.09-.32.06-.27-.16-.32.24-.66.49-.85.31.07,0,.14.02.18-.05.05-.07-.06-.06-.1-.06.05-.07.15-.05.24-.16-.41.11-.22-.22-.48-.33.14-.01.16-.12.25-.23-.36.27.08-.52-.31-.07-.05-.61-.8-.99-.63-1.39.09-.15-.2-.08-.26-.14l.16-.12c-.43.04-.22-.06-.69-.05.26-.06.31-.17.37-.38l-.44.11.21-.23c-.14.01-.16-.08-.19-.18-.31.15-.48-.1-.66-.02.26-.33-.23-.11.02-.41-.06.02-.12.02-.18.01-.11.15-.26.29-.24.17,0,0-.01,0-.02-.01l.16-.18c-.1-.03-.17-.07-.21-.11,0,.03-.02.08-.04.14,0-.05.02-.1.03-.15,0,0-.01-.02-.02-.02,0,0,.02,0,.02,0,.01-.07,0-.13-.11-.13.19-.35-1.03-.44-.87-1.04,0,.08.04.17.14.15-.3-.32-.17-.7-.53-.85l-.25.05c-.32-.22-.58-.42-.73-.62l-.35-.03c-.11-.27-1.34-1.11-.65-1.1-.4-.16-.25-.39-.5-.58l.31.07c-.06-.17-.29-.34-.5-.51.26-.08-.02-.33-.36-.63.1-.05.18-.11.4-.1l.11.05c.07-.05.15-.1.24-.14.18.17-.12-.12.13-.08,0-.09.37-.05.75.07h.33c-.16.14.43.28.74.49-.03-.06-.05-.12-.07-.18.21.1.12.17.31.22-.04-.12.31-.12.17-.35-.08-.05-.19-.11-.3-.15,0,.01,0,.01,0,0h-.03s.02,0,.03,0c0-.02-.02-.06-.05-.09.31.04.12-.04,0-.14.66.34.59.1,1.17.5-.4-.26-.12-.22.07-.23-.04-.06,0-.05.08,0,.08-.02.11-.07-.06-.21.47.35.17.01.5.31-.1-.03-.18-.01-.24.02.09.06.18.11.22.12.48.31.29-.26.62-.14-.04.06-.07.12-.1.18.03.03.09.03.15.02.15-.12.12-.19.1-.28.04.05.09.1.13.15,0-.01.02-.03.02-.04,0,.02.02.05.02.1.14.19.25.41.32.59.14-.06.24-.24.33-.44,0-.07.02-.12.06-.19.02-.07.03-.13.03-.19-.07,0-.12.01-.17.02-.16.09-.31.18-.44.27-.06-.14.04-.21.15-.29l-.44-.02c-.01-.07-.01-.14.13-.24.16.12.25.19.34.23.09-.07.19-.16.15-.31l.36.04.17.02.1.02s-.14.06-.19.15c.05.02.1.04.13.06-.03,0-.07.02-.11.03h0c.22,0,.1.06.23.19-.08.18-.27.5-.38.83-.1.33-.11.67-.09.88.03-.06.06-.13.1-.19l.06.16c.11-.22.42-1.33.46-1.62.07.03.1.17.11.32l.1-.05c-.01.08.01.21-.1.19,0,.14-.02.28-.03.33.31.02.29-.85.6-.77l-.03-.03-.02.02v-.04s-.07-.08-.07-.08c.04-.03.12-.01.19,0l.1-.1s-.02.07-.02.1c.03,0,.05-.02.04-.05.06.15.12.48.07.61l.12-.26c0-.07.05-.14.09-.2l.04-.09s0,.03-.01.05l.03-.04-.03.05c-.02.15,0,.49,0,.56.11.02.18-.56.11-.63.22.34.17.15.35.56.04-.02.02-.25-.01-.4l-.04.05h-.04s.08-.08.08-.08c-.01-.06-.03-.11-.04-.13.1-.09.17-.09.23-.07h0s0,0,0,0c.03.01.05.03.07.04-.24.21-.05,1.08-.08,1.44l.49-1.44c-.02.09-.05.54-.04.6.03-.36.44-.46.75-.45.05-.02.1-.04.15-.06l-.02.07h.03s-.03,0-.03,0l-.02.08c.03.09.16.14.25.08l.12-.19-.02.09-.06.06c-.01.06-.03.06-.05.06h0s0,0,0,0h-.02c.2.32.24-.65.44-.28-.18-.04-.21.14-.2.3.14-.16.48,0,.4-.49.1.1.18.04.18.29l.35-.3c-.03.05-.05.2.06.23-.2-.06-.39.41-.5.08,0,.31.08.47-.01.74.38-.15.59-.69.82-1.05l.35.22v-.14s.08.36.08.36c.04-.08.07-.15.08-.12,0,.03,0,.08-.02.13.04-.02.07-.05.08-.09.02.19-.04.4-.1.6-.03-.07-.07-.13-.1-.2-.06.18-.11.37-.01.48l.05-.08c-.04.13-.06.24-.03.3l.26-.18s-.08-.15-.13-.26c.16-.24.34-.52.19-.76l.2.21c.23-.36.19-.29.47-.55.02.12-.06.23,0,.32.2-.4.51.46.55.1.17-.09.06-.31.17-.41,0,.04-.01.12.02.12l.12-.26c.05.09-.11.18.03.29.24-.2.38-.33.59-.21.29-.07-.13-.51.11-.46.04.21.08.46.23.48.08-.15.06-.31.2-.4v.32c.12-.02.22-.08.23.16.1-.14.17-.12.23-.07.19-.17-.15-.65-.2-.77.19.24.32.09.44.48l-.17.09c.36.39.33-.46.51.22-.12-.02-.27.15-.19.33l.17-.17c.02.08-.1.06-.02.16.05-.07.15-.24.19-.34v.02s.29-.06.29-.06c-.04.02-.04.1.01.11l.21-.17c-.06.08,0,.18.1.23.27.09.2-.72.42-.4-.03,0-.03.03-.07.03l.11.14c.01-.68.63-.08.65-.76.16.27.01.16-.18.49l.17.19c-.07.03-.12-.02-.19.04.22.28.42-.08.53-.26.08.1-.06.51.18.39.33-.14-.07-.49.13-.58l.15.35c.25-.27.44-.04.66,0,.05-.03.07-.07.08-.1.23.15.47-.35.64-.24-.04.07.1.22.12.3l.31-.22c-.14.09-.13.3-.15.49.1-.02.14-.13.21-.16-.04.07-.08.15-.03.24l.32-.34s-.06-.05-.09-.05c.08,0,.25-.13.37.03,0,.08-.05.15-.06.23-.1-.22-.15-.03-.2.12.22-.04.06.05.17.19.16-.01.22-.28.17-.45.18.07.24.13.42-.08l-.03.28.17-.09-.13.34c.32.18.05-.47.41-.32v.24c.14-.1.18-.5.29-.22.13-.15-.23-.34.08-.39.06.12.18.21.27.26.09-.1-.05-.25-.12-.25.45-.09.29.82.7.5-.15-.17.11-.47-.23-.45.16-.15.33.34.49.08l-.11.31c.06,0,.13-.11.16-.15v.24c.19-.42.39.19.5-.36-.08.43.16-.03.24.14-.17.31-.5,0-.51.4.08.12.15-.08.23.04-.05.06-.13.17-.15.25.27.22.41-.25.57-.35l-.28.1c.02-.4.13-.07.2-.38.15.21.25-.1.37.03-.03,0-.03.04-.06.04.31-.02.41.63.53.64.12.05.35-.17.26-.34.1-.11-.41.13-.24-.39.19.59.36-.23.76.17-.17.21.11.33-.04.49.18-.05.19-.14.27-.31l.06.18c.23-.42.05-.37.41-.6-.12.15.15.27.06.4.1.01.2-.05.27-.16v.03c.35-.1.29.23.63.02l-.04-.11c.43-.31.99-.13,1.45-.27l-.15-.08c.07.02.3-.18.44-.02-.03.01-.08.06-.1.05,0,.13.07.31.18.34l.04-.19.05.15c.17,0-.05-.27.11-.27.11.55.72.06.87.54.11-.4-.32-.05-.2-.41.05.06.08.13.19.16l-.04-.24c.51.13.7.32,1.15.27l-.02.05c.16.09.25.04.31-.16.04.11-.08.17-.01.27.27-.61.57.43.74,0-.01.48.36.93.22,1.3Zm-16.8,17.57l-.02.07c.07-.02.14-.04.02-.07Zm-4.4-8.37c0,.11-.08.23.16.09.09-.12-.09-.09-.16-.09Zm-2.83-2.48c-.01.08.01.13.06.15.03-.11.03-.17-.06-.15Zm-3.19-2.18s-.05.03-.07.04c.03.03.03,0,.07-.04Zm-.38-2.34c-.1.03-.2.06-.27.09.01,0,.03.01.05.02.12,0,.18-.05.22-.11Zm-1.07-2.86l.03.04s.06.04.09.06l-.11-.1Zm-.41-.05c-.08-.04-.14-.07-.19-.09-.01.03-.02.06-.02.09.09.03.16.04.2,0Zm.21-.05s-.01-.06-.03-.1h0c-.06-.02-.1-.03-.15-.03.05.05.11.1.18.13Zm-.36-.08s.03-.01.03-.03c-.01,0-.02.02-.03.03Zm-1.98-.41h-.01c-.19-.05-.31-.09.01,0Zm.34.78s.03-.02,0-.04c-.03,0-.05,0-.08,0,.04.03-.1-.05-.25-.12-.03.02-.06.03.33.17Zm2.61,2.11h-.06s-.05,0-.07,0h.13Zm.27,0h0s.01-.02,0-.04c-.07,0-.15-.01-.18,0,.03,0,.09.02.17.04Zm-.32-.15s.08-.01.1-.02c-.06-.02-.11-.04-.18-.07-.02.02-.03.04.07.09Zm.34.2c-.08.02-.15.04-.22.07-.33-.03-.27-.1-.19-.15l-.3-.05h0s0,0,0,0c-.19-.03-.37-.05-.49-.03-.22.03-.4.35-.4.39.27.04.94-.02,1.51-.07-.03-.02,0-.04.13-.05.04.01.07.02.1.03.12-.01.24-.02.34-.03-.14-.03-.34-.06-.48-.11Zm-.15-.18s.03.02.05.02c-.02,0-.04-.02-.05-.02Zm-1.6-.66c-.06-.01-.13-.03-.2-.05.05.03.14.08.24.12,0-.02-.02-.05-.04-.07Zm2.01.46s.01,0,.02,0c.06,0,.12.01-.02,0Zm-1.59-.77c-.15-.05-.24-.06-.34-.09.04.05.06.09.06.12h.1s-.04.03-.1.04v.09s.02.03.05.05c.33.09.85.3,1.27.38.37.03-.69-.33-1.05-.59Zm-.2-.15s.07.05.13.08c-.01-.01-.02-.02-.02-.03-.07-.04.11.05.26.11-.06-.04-.11-.09-.36-.16Zm-1.31-.92h-.02c.07.11.21.27-.15.15-.04-.01-.1-.03-.18-.07l-.07-.05c-.06-.07-.04-.13-.11-.21-.09-.03-.18-.05-.21-.01,0,.03.02.06.05.1.65.44,1.47.85,2.17,1.13l-.02-.02c-.27-.15-.72-.43-.47-.35.06.02.13.05.23.09l.03.02c.19.12.37.23.57.34.06.02.08.02-.02-.05-.08-.05-.18-.11-.28-.17-.31-.21-.84-.57-1.5-.91Zm.53.18c.09,0,.19,0,.29.03l-.27-.08c.06,0,.24.05.39.1.1.02.21.04.31.06.01,0,.03,0,.03-.02-.35-.19-.57-.45-1.19-.71-.91-.25.07.32-.06.42.2.08.37.14.51.19Zm1.45.31l-.12-.02c.06.04.13.08.18.12,0-.02-.02-.06-.06-.1Zm.65-.66c-.05,0-.11-.02-.21-.13.01-.02.03-.04.05-.06-.09-.1-.18-.19-.26-.28-.07.09-.09.22-.12.3l.37.21c.13.23-.06.14-.26.06l.14.19h0c.1.12.21.25.36.35.28.18.8.52.82.54-.11-.18-.5-.72-.88-1.19Zm.85-.16c.02.1.04.19.08.26.02,0,.03-.01.05-.02.04-.09-.03-.17-.13-.24Zm2.55,1.16s0,.06-.01.08c.04,0,.02-.03.01-.08Zm3.85-1.07c-.06-.09-.12-.13-.15-.05.06.06.11.07.15.05Zm3.73-.77c-.04-.14-.13.02-.18.07.08.08.13.21.18-.07Zm9.1,1.89l.04.06c.03-.07.05-.13-.04-.06Z"/>
        <path class="cls-1" d="m22.55,94.49h.02s-.01,0-.02,0Z"/>
        <path class="cls-1" d="m27.35,96.87v.03s0-.03,0-.03Z"/>
        <path class="cls-1" d="m16.48,94.89h.03s-.02,0-.03,0Z"/>
        <path class="cls-1" d="m12.16,95.25s.02.09.02.13c.02-.04.02-.09-.02-.13Z"/>
        <polygon class="cls-1" points="19.42 94.59 19.43 94.59 19.43 94.55 19.42 94.59"/>
        <path class="cls-1" d="m5.7,98.13c.06,0,.15,0,.18,0l-.1-.03s-.04.02-.08.03Z"/>
        <path class="cls-1" d="m5.88,98.13h.01s-.01,0-.01,0Z"/>
        <path class="cls-1" d="m5.32,97.87c-.07,0,.42.1.29.08.43.11-.57-.19-.29-.08Z"/>
        <polygon class="cls-1" points="4.4 98.24 4.11 98.22 4.11 98.29 4.4 98.24"/>
        <path class="cls-1" d="m2.59,96.39c.15.09.26.16.41.22l-.22-.16h0c-.09-.06-.18-.09-.24-.11-.02,0,0,.02.04.05Z"/>
        <polygon class="cls-1" points="4.84 96.28 4.8 96.26 4.67 96.24 4.86 96.3 5.14 96.61 4.73 96.1 4.69 96.11 4.84 96.28"/>
        <path class="cls-1" d="m6.98,95.23s-.04.05-.06.08c.04-.03.05-.06.06-.08Z"/>
        <polygon class="cls-1" points="32.78 96.94 32.91 97.05 32.82 96.88 32.78 96.94"/>
        <path class="cls-1" d="m33.02,96.56l.04.32.07-.3s-.09.04-.11-.03Z"/>
        <path class="cls-1" d="m15.08,94.3v.08c.01.08.04.09.11.1l-.11-.18Z"/>
        <polygon class="cls-1" points="16.86 94.51 16.83 94.5 16.89 94.79 16.86 94.51"/>
        <path class="cls-1" d="m18.15,94.15s.03,0,.04,0c-.01,0-.03,0-.04,0Z"/>
        <path class="cls-1" d="m18.35,94.1s-.1.03-.15.04c.11.02.17.28.15-.04Z"/>
      </g>
    </g>
  </g>
</svg>