<?xml version="1.0" encoding="UTF-8"?>
<svg id="Calque_2" data-name="Calque 2" xmlns="http://www.w3.org/2000/svg" viewBox="0 0 34.09 34.09">
  <defs>
    <style>
      .cls-1 {
        stroke-width: 0px;
      }
    </style>
  </defs>
  <g id="Calque_1-2" data-name="Calque 1">
    <path class="cls-1" d="m33.34,14.04h-4.63c-.28-1.11-.72-2.15-1.29-3.11l3.01-3.01v-1.6l-2.66-2.66h-1.6l-3.01,3.01c-.96-.57-2-1-3.11-1.29V.75l-.75-.75h-4.51l-.75.75v4.63c-1.11.28-2.15.72-3.11,1.29l-3.01-3.01h-1.6l-2.66,2.66v1.6l3.01,3.01c-.57.96-1,2-1.29,3.11H.75l-.75.75v4.51l.75.75h4.63c.28,1.11.72,2.15,1.29,3.11l-3.01,3.01v1.6l2.66,2.66h1.59l3.01-3.01c.96.57,2,1,3.11,1.29v4.63l.75.75h4.51l.75-.75v-4.63c1.11-.28,2.15-.72,3.11-1.29l3.01,3.01h1.6l2.66-2.66v-1.6l-3.01-3.01c.57-.96,1-2,1.29-3.11h4.63l.75-.75v-4.51l-.75-.75Zm-16.3,9.05c-3.33,0-6.04-2.71-6.04-6.04s2.71-6.04,6.04-6.04,6.04,2.71,6.04,6.04-2.71,6.04-6.04,6.04Z"/>
  </g>
</svg>