<?xml version="1.0" encoding="UTF-8"?>
<svg id="Calque_2" data-name="Calque 2" xmlns="http://www.w3.org/2000/svg" viewBox="0 0 34.56 34.56">
  <defs>
    <style>
      .cls-1 {
        stroke-width: 0px;
      }
    </style>
  </defs>
  <g id="Calque_1-2" data-name="Calque 1">
    <g>
      <polygon class="cls-1" points="31.68 34.56 33.12 33.12 34.56 31.68 34.56 30.32 28.08 23.84 26.72 23.84 25.28 25.28 23.84 26.72 23.84 28.08 30.32 34.56 31.68 34.56"/>
      <path class="cls-1" d="m14.04,6c4.43,0,8.04,3.61,8.04,8.04s-3.61,8.04-8.04,8.04-8.04-3.61-8.04-8.04,3.61-8.04,8.04-8.04m0-6C6.29,0,0,6.29,0,14.04s6.29,14.04,14.04,14.04,14.04-6.29,14.04-14.04S21.79,0,14.04,0h0Z"/>
    </g>
  </g>
</svg>