<?xml version="1.0" encoding="UTF-8"?>
<svg id="Calque_2" data-name="Calque 2" xmlns="http://www.w3.org/2000/svg" viewBox="0 0 115.43 115.43">
  <defs>
    <style>
      .cls-1 {
        stroke-width: 0px;
      }
    </style>
  </defs>
  <g id="Calque_1-2" data-name="Calque 1">
    <path class="cls-1" d="m92.03,105.03l13-13v-5.49l-10.42-10.42c.85-1.71,1.59-3.49,2.21-5.32h14.74l3.88-3.88v-18.39l-3.88-3.88h-14.74c-.61-1.84-1.35-3.61-2.21-5.33l10.42-10.42v-5.49l-13-13h-5.49l-10.42,10.42c-1.71-.85-3.49-1.59-5.32-2.21V3.88l-3.88-3.88h-18.39l-3.88,3.88v14.74c-1.84.61-3.61,1.35-5.32,2.21l-10.42-10.42h-5.49l-13,13v5.49l10.42,10.42c-.85,1.71-1.59,3.49-2.21,5.32H3.88l-3.88,3.88v18.39l3.88,3.88h14.74c.61,1.84,1.35,3.61,2.21,5.32l-10.42,10.42v5.49l13,13h5.49l10.42-10.42c1.71.85,3.49,1.59,5.32,2.21v14.74l3.88,3.88h18.39l3.88-3.88v-14.74c1.84-.61,3.61-1.35,5.32-2.21l10.42,10.42h5.49Zm-34.31-27.88c-10.72,0-19.43-8.72-19.43-19.43s8.72-19.43,19.43-19.43,19.43,8.72,19.43,19.43-8.72,19.43-19.43,19.43Z"/>
  </g>
</svg>