<?xml version="1.0" encoding="UTF-8"?>
<svg id="Calque_2" data-name="Calque 2" xmlns="http://www.w3.org/2000/svg" viewBox="0 0 131.92 131.92">
  <defs>
    <style>
      .cls-1 {
        stroke-width: 0px;
      }
    </style>
  </defs>
  <g id="Calque_1-2" data-name="Calque 1">
    <g>
      <polygon class="cls-1" points="36.14 40.02 40.02 36.14 40.02 3.88 36.14 0 3.88 0 0 3.88 0 36.14 3.88 40.02 36.14 40.02"/>
      <polygon class="cls-1" points="52.43 75.61 56.31 79.49 128.04 79.49 131.92 75.61 131.92 3.88 128.04 0 56.31 0 52.43 3.88 52.43 75.61"/>
      <polygon class="cls-1" points="56.31 91.91 52.43 95.79 52.43 128.04 56.31 131.92 128.04 131.92 131.92 128.04 131.92 95.79 128.04 91.91 56.31 91.91"/>
      <polygon class="cls-1" points="40.02 56.31 36.14 52.43 3.88 52.43 0 56.31 0 128.04 3.88 131.92 36.14 131.92 40.02 128.04 40.02 56.31"/>
    </g>
  </g>
</svg>