<?xml version="1.0" encoding="UTF-8"?>
<svg id="Calque_2" data-name="Calque 2" xmlns="http://www.w3.org/2000/svg" viewBox="0 0 225.96 67.99">
  <defs>
    <style>
      .cls-1 {
        fill: #202020;
        stroke-width: 0px;
      }
    </style>
  </defs>
  <g id="Layer_1" data-name="Layer 1">
    <g>
      <g>
        <path class="cls-1" d="m159.77,40.31c-.34.39-.07.38-.09.47.52-.71.03-.48.09-.47Z"/>
        <path class="cls-1" d="m157.76,22.79c-.04-.08-.05-.1-.08-.15-.1-.12-.23-.3-.47-.59.05.28-.63-.58.54.74Z"/>
        <path class="cls-1" d="m157.68,22.64c.5.6-.23-.47,0,0h0Z"/>
        <path class="cls-1" d="m155.25,20.03l.79.65c-.09-.21-.7-.89-.42-.68-.8-.68-.7-.46-.36.03Z"/>
        <path class="cls-1" d="m154.37,19.57l.42.32c-.04-.09-.14-.19-.42-.32Z"/>
        <path class="cls-1" d="m155.19,20.2c-.14,0,.08.1.46.39-.28-.25-.56-.49-.86-.71.07.14,0,.23.4.32Z"/>
        <path class="cls-1" d="m156.05,21.47c.69.67.96.98.98.87,0-.09-.3-.57-.99-1.25.33.47.79,1.03,0,.38Z"/>
        <path class="cls-1" d="m150.53,15.88c-.09.03.16.36.16.48l.65.36c-.28-.26-.84-.72-.82-.84Z"/>
        <path class="cls-1" d="m150.69,16.37l-.97-.53c.79.58.98.64.97.53Z"/>
        <polygon class="cls-1" points="147.58 13.76 146.46 13.46 146.94 13.62 147.58 13.76"/>
        <path class="cls-1" d="m144.43,12.35c.49.07-.47-.49.01-.36-.71-.3-1.35-.47-1.93-.6.6.19,1.19.5,1.92.97Z"/>
        <path class="cls-1" d="m141.54,11.16c.3.08.62.14.98.21-.32-.09-.64-.17-.98-.21Z"/>
        <path class="cls-1" d="m148.15,14.8c-.05-.08-.12-.27-.63-.65l.26.41c.11.07.24.15.37.23Z"/>
        <path class="cls-1" d="m147.79,14.58h0c-.34-.24-.6-.39-.75-.47.13.07.37.21.75.47Z"/>
        <path class="cls-1" d="m147.04,14.11s-.04-.02-.06-.03c.02,0,.03.02.06.03Z"/>
        <path class="cls-1" d="m148.24,14.86s-.06-.04-.09-.06c.02.04.04.06.09.06Z"/>
        <path class="cls-1" d="m143.3,12.14c-.49-.13-1-.36-1.58-.56.6.29,1.22.59,1.81.87.11-.02.42,0-.23-.31Z"/>
        <polygon class="cls-1" points="135.94 9.59 136.02 9.65 136.05 9.62 135.94 9.59"/>
        <path class="cls-1" d="m143.53,12.44c.35.16.69.31,1.01.44,0,0,.02-.01.07,0,.04.02.07.04.1.06.18.04.36.08.57.16.03.03.06.07.1.11.11-.03.19-.1.94.38.23.51-.18.2-1.1-.15.33.07-.6-.44-.68-.54-.26-.06-.54-.15-.93-.37-.15-.06-.13-.07-.08-.08Zm1.25.53c.39.22.5.26.58.24-.18-.07-.37-.15-.58-.24Z"/>
        <path class="cls-1" d="m145.28,13.1l.07.03c-.12-.12-.12-.09-.07-.03Z"/>
        <polygon class="cls-1" points="136.06 9.27 134.93 9.3 135.76 9.43 136.06 9.27"/>
        <polygon class="cls-1" points="133.53 8.68 132.88 8.66 133.4 8.85 133.53 8.68"/>
        <path class="cls-1" d="m104.7,42.7c0-.16-.03-.33-.05-.5.01.23.04.39.05.5Z"/>
        <path class="cls-1" d="m103.99,46.18l.07.12c0-.18-.02-.25-.07-.12Z"/>
        <path class="cls-1" d="m75.64,16.58c-.78.28-1.71.55-1.51.68l.33.04c.46-.34.84-.56,1.17-.72Z"/>
        <path class="cls-1" d="m78.67,50.42c-.04-.06-.09-.13-.13-.2-.19-.07-.37-.13-.53-.19.2.12.43.25.66.39Z"/>
        <path class="cls-1" d="m80.37,50.79c-.15-.17-.38-.41-.71-.71l.71.71Z"/>
        <path class="cls-1" d="m94.68,27.72c-.2.01-.41.02-.62.05.86.24.51.04.62-.05Z"/>
        <path class="cls-1" d="m108.83,8.02c-.68-.02-1.23-.01-1.7.02.83.05,1.5.18,1.7-.02Z"/>
        <path class="cls-1" d="m106.81,44.48c.03-.35-.02-.51-.06-.51,0,.36,0,.57.06.51Z"/>
        <path class="cls-1" d="m107.13,8.04c-.61-.03-1.31,0-1.95.21.12,0,.24,0,.36.01.49-.09.99-.18,1.59-.23Z"/>
        <path class="cls-1" d="m24.43,51.56c-.05.02-.11.05-.16.07,0,.03.07,0,.16-.07Z"/>
        <path class="cls-1" d="m4.97,62.87c.16-.15.45-.38.71-.59-.14.09-.36.27-.71.59Z"/>
        <path class="cls-1" d="m123.75,7.38c.52,0,.08-.02,0,0h0Z"/>
        <path class="cls-1" d="m124.52,7.53c-.19-.05-.41-.08-.65-.11.11.02.31.05.65.11Z"/>
        <path class="cls-1" d="m124.42,7.42c.18.03.31.04.45.06.07-.03.01-.06-.45-.06Z"/>
        <path class="cls-1" d="m123.75,7.38c-.15,0-.36,0-.72-.02.29,0,.57.03.83.06-.1-.02-.14-.03-.11-.04Z"/>
        <path class="cls-1" d="m60.55,32.19s-.07.01-.11.02c-.44.27-.24.17.11-.02Z"/>
        <path class="cls-1" d="m68.86,27.58s0-.03,0-.05c0,.02-.02.05-.02.06h.02Z"/>
        <path class="cls-1" d="m68.67,29.23c-.21-.74-.02-1.13.16-1.63-.25.12-.5.25-.75.39.14.43.36.85.59,1.25Z"/>
        <path class="cls-1" d="m27.26,49.75l.09-.05s-.06.03-.09.05Z"/>
        <path class="cls-1" d="m104.56,44.28l.03-.18c-.02.07-.03.13-.03.18Z"/>
        <path class="cls-1" d="m71.67,29.27c-.05.02-.1.03-.15.04.05-.02.1-.03.15-.04Z"/>
        <path class="cls-1" d="m36.94,41.43s-.05,0-.09.01h.09Z"/>
        <path class="cls-1" d="m79.53,50.12c.05.09.05.14.04.19.14.05.17.02-.04-.19Z"/>
        <path class="cls-1" d="m94.8,27.72l-.05-.02s-.05.01-.06.03h.11Z"/>
        <path class="cls-1" d="m128.95,7.83h.11s-.09,0-.11,0Z"/>
        <path class="cls-1" d="m128.94,7.96c-.01-.05-.16-.14.02-.13l-1-.1c.54.07.72.15.98.23Z"/>
        <path class="cls-1" d="m122.06,7.48c.37.07.24-.25.45-.16.42-.24-2.47.21-.45.16Z"/>
        <polygon class="cls-1" points="129.78 9.38 130.46 9.54 130.23 9.25 129.78 9.38"/>
        <path class="cls-1" d="m110.02,8.94c-.13.1.24.11.73.05.31-.08.81-.15.6-.22l-1.33.17Z"/>
        <path class="cls-1" d="m91.95,11.74l.17-.02.85-.17c-.34.05-.68.1-1.02.17l-.1-.3-.17.57.33-.08-.06-.17Z"/>
        <path class="cls-1" d="m76.61,18.57c.11-.1.23-.2.37-.31-.22.15-.31.25-.37.31Z"/>
        <polygon class="cls-1" points="1.91 65.04 1.06 65.63 1.67 65.33 1.91 65.04"/>
        <path class="cls-1" d="m0,67.15c.16-.16.48-.48.67-.54l-.4-.09-.27.62Z"/>
        <path class="cls-1" d="m99.04,51.89v.1c.15,0,.32-.14.66-.38l-.66.28Z"/>
        <polygon class="cls-1" points="104.4 41.53 104.39 41.74 104.68 41.33 104.4 41.53"/>
        <path class="cls-1" d="m100.62,31.99c.21.23.42.52.63.77-.37-.59-.44-1.06-.63-.77Z"/>
        <path class="cls-1" d="m101.41,33c-.04-.08-.11-.15-.16-.23.05.07.11.15.16.23Z"/>
        <path class="cls-1" d="m74.62,44.52c.25.36.32.1.39.13-.48-.55-.42-.09-.39-.13Z"/>
        <path class="cls-1" d="m68.92,29.71c.03-.07.04-.09.05-.13.02-.13.04-.31.09-.62-.16.18-.03-.72-.14.75Z"/>
        <path class="cls-1" d="m68.97,29.58c-.07.64.17-.41,0,0h0Z"/>
        <path class="cls-1" d="m69.62,26.67c-.06.28-.17.55-.18.84.09-.16.44-.83.37-.55.26-.82.13-.7-.19-.29Z"/>
        <path class="cls-1" d="m69.69,25.8l-.12.44c.06-.06.12-.16.12-.44Z"/>
        <path class="cls-1" d="m69.44,26.66c-.07-.11-.05.1-.13.5l.26-.92c-.1.09-.21.06-.13.42Z"/>
        <path class="cls-1" d="m68.81,27.84c-.22.82-.15,1.2-.08,1.15.04-.03.08-.16.12-.38.08-.22.17-.53.26-.94-.2.45-.41,1.06-.3.17Z"/>
        <path class="cls-1" d="m72.79,22.32c-.02-.1-.34.08-.46.06l-.38.55c.27-.22.73-.65.84-.61Z"/>
        <path class="cls-1" d="m72.33,22.38c.18-.28.4-.53.62-.79-.69.58-.71.79-.62.79Z"/>
        <path class="cls-1" d="m75.37,20.4c.2-.28.45-.53.69-.79l-.33.32c-.13.15-.25.31-.36.47Z"/>
        <path class="cls-1" d="m77.91,18.56c-.3.33.63-.07.28.23.59-.37,1.06-.76,1.51-1.09-.5.3-1.04.57-1.79.86Z"/>
        <path class="cls-1" d="m80.44,17.15c-.25.16-.49.35-.75.55.26-.16.51-.34.75-.55Z"/>
        <path class="cls-1" d="m74.29,20.5c.09-.01.29,0,.76-.31l-.44.07c-.1.07-.21.16-.32.24Z"/>
        <path class="cls-1" d="m75.26,19.78s.04-.02.05-.03c-.01,0-.03.02-.05.03Z"/>
        <path class="cls-1" d="m74.6,20.26h.02c.3-.23.52-.39.65-.48-.11.08-.31.23-.66.48Z"/>
        <path class="cls-1" d="m74.21,20.56s.05-.04.08-.06c-.04,0-.07.02-.08.06Z"/>
        <path class="cls-1" d="m78.67,17.8c.38-.3.85-.53,1.37-.8-.58.25-1.2.48-1.73.79-.04.1-.22.34.36,0Z"/>
        <polygon class="cls-1" points="85.46 14.84 85.36 14.83 85.35 14.88 85.46 14.84"/>
        <path class="cls-1" d="m78.31,17.79c-.32.18-.62.36-.89.54,0,0,0,.03-.03.05-.04.02-.07.03-.1.05-.12.12-.26.23-.42.37-.04,0-.09.01-.14.03-.03.11,0,.21-.72.6-.54-.05-.1-.25.61-.86-.22.23.65-.27.79-.25.19-.17.41-.34.8-.51.13-.08.13-.06.11-.02Zm-1.1.67c-.39.17-.45.27-.48.35.13-.12.3-.23.48-.35Z"/>
        <path class="cls-1" d="m76.86,18.8l-.05.05c.15-.04.12-.05.05-.05Z"/>
        <polygon class="cls-1" points="85.53 15.17 86.42 14.55 85.69 14.88 85.53 15.17"/>
        <polygon class="cls-1" points="87.87 14.37 88.43 14.09 87.9 14.16 87.87 14.37"/>
        <path class="cls-1" d="m122.38,29.24l-.25-.51c.11.25.19.4.25.51Z"/>
        <path class="cls-1" d="m124.18,32.92l.14.04c-.14-.13-.22-.18-.14-.04Z"/>
        <path class="cls-1" d="m144.04,15.31c.58.53,1.18,1.18,1.21.94l-.1-.3c-.48-.22-.83-.43-1.11-.64Z"/>
        <path class="cls-1" d="m152.79,43.29c.08,0,.16,0,.24,0,.16-.13.3-.25.44-.36-.2.11-.43.24-.68.37Z"/>
        <path class="cls-1" d="m151.4,44.4c.25,0,.59-.03,1.08-.09l-1.08.09Z"/>
        <path class="cls-1" d="m126.89,8.38l.36-.61c-.79.7-.37.48-.36.61Z"/>
        <path class="cls-1" d="m111.57,10.18c.67.04,1.21.04,1.68.02-.81-.07-1.48-.21-1.68-.02Z"/>
        <path class="cls-1" d="m125.1,29.75c-.17-.26-.27-.37-.31-.34.17.28.29.42.31.34Z"/>
        <path class="cls-1" d="m113.25,10.2c.6.05,1.28.08,1.93-.11-.12-.01-.23-.02-.36-.03-.49.06-.98.11-1.57.14Z"/>
        <path class="cls-1" d="m201.92,10.49s.1.07.14.11c.03-.02-.04-.06-.14-.11Z"/>
        <path class="cls-1" d="m217.86,26.25c-.14-.16-.36-.44-.59-.68.1.13.29.33.59.68Z"/>
        <path class="cls-1" d="m97.09,12.13c-.49.1-.07.04,0,0h0Z"/>
        <path class="cls-1" d="m96.33,12.17c.19,0,.4-.02.64-.05-.1,0-.3.02-.64.05Z"/>
        <path class="cls-1" d="m96.45,12.25c-.17.02-.3.04-.43.06-.05.05,0,.06.43-.06Z"/>
        <path class="cls-1" d="m97.09,12.13c.14-.03.34-.07.68-.14-.28.05-.54.09-.8.12.1,0,.14,0,.12.01Z"/>
        <path class="cls-1" d="m161.81.71s.07.02.11.03c.51-.07.29-.06-.11-.03Z"/>
        <path class="cls-1" d="m155.83,21.26s-.03-.02-.05-.04c.01.02.03.04.05.06v-.03Z"/>
        <path class="cls-1" d="m157.19,22.57c-.7-.46-.98-.81-1.36-1.28l-.05.87c.49.11.93.27,1.4.42Z"/>
        <path class="cls-1" d="m198.9,8.86l-.09-.06s.05.03.09.06Z"/>
        <path class="cls-1" d="m220.55,29.45c.19.23.35.47.51.71-.19-.05-.56-.62-.97-1.21-.4-.59-.82-1.2-1.13-1.29-.49-.78-.94-1.61-1.48-2.37-.03.14-.47-.08-.2.28-.46-.51-.87-.94-.4-.16-1.82-2.8-4.4-5.06-6.99-7.19-1.38-.97-2.7-2.01-4.09-2.93-.7-.45-1.4-.91-2.09-1.37-.69-.46-1.35-.96-2.06-1.38-.41-.19-.24.03-.12.18-.91-.84-1.09-.41-1.69-.69l-1.35-1.24c-.69-.23-.26.16-.34.21-1.52-.71-3-1.42-4.41-2.14-.7-.37-1.41-.67-2.11-.91-.7-.26-1.37-.48-2.03-.65-.76-.44.31-.26-.74-.71.63.46-.09.26-.91,0-.81-.29-1.78-.48-1.54-.29-1-.73-3.84-1.16-3.2-1.66-1.32-.41-1.17-.03-.8.13-.38-.11-.75-.22-1.1-.32-.35-.08-.7-.14-1.04-.2-.67-.11-1.32-.19-1.98-.21-.41-.15-2.2-.5-4.05-.82-1.87-.23-3.8-.5-4.48-.84.93.44-.09.16-1.03.19l.8.39-2.07-.28c-.43-.02-.55-.02-.54-.05-.35-.03.1-.16-.8-.28-1.42-.08-1.5.07-2.29.19l.22.05-.96-.02c-.71-.04,2.53-.17.21-.43-.04.08-1.41.4-2.03.16,1.18.07,1.04-.14.61-.24l-1.66-.1.54.39c-1.19-.1-2.39-.04-3.6-.04-1.21,0-2.44,0-3.68.01-1.24,0-2.49-.02-3.73.11-1.24.12-2.51.14-3.75.39.02-.32-3.54.54-3.18.04h.2c.61-.14.51-.2.12-.23-.38,0-1.04.09-1.53.23,1.07-.1-1.74.9.78.37l-1.88.68c-.44.52-1.66.94-3.15,1.32-.76.17-1.51.5-2.29.76-.38.15-.77.28-1.12.47-.35.19-.68.4-.98.6.16-.13.19-.2.2-.24-.53.39-1.16.7-1.72,1.08-.56.38-1.12.74-1.65,1.05-.98.7-1.75,1.3-1.93,1.54-.12-.01-.22,0-.34,0-1.2,1.94-1.39,2.08-2.79,4.31-.02-.05.05-.35-.18,0-.06.33-.14.64-.26,1.09-.09.46-.28,1.03-.57,1.87l-.06-.09c-.17.92-.42,1.82-.44,2.76-.19-.02-.28.27-.33.74-.05.47.07,1.11.13,1.76.2,1.32.55,2.68.29,3.19.31.51,1.03,2.46,1.52,3.25-.03.02-.03.08,0,.24.81.81,1.33,2.86,2.14,3.81.55.58.45.22.35-.13.17.35.41.75.74,1.11.33.35.71.69,1.06,1.01.71.63,1.44,1.04,1.59,1.3.8.79.12.5.24.84,1.39.99.21-.71,1.8.92-.23-.13-.62-.41-.5-.26.31.31.69.82,1.09,1.32.4.51.84,1,1.29,1.11l-.45-.39c.77.27,1.52.89,2.2,1.31.69.4,1.24.71,1.45.52l-.06-.28c.61.36,1.01.47,1.28.57.27.09.42.12.56.15.3.04.57.17,1.94.55l-.04.03c.61.09,1.07.26,1.46.33.39.06.72.06,1.04-.1l-.42-.09c.76.05,1.17.09,1.59.13.42.03.84.01,1.61.02.18-.05.93-.09,1.15-.04.03-.16.91-.3,1.88-.4.97-.09,1.98-.34,2.32-.38-1.18.3-.59.31-.21.37.66-.38,1.07-.63,2.09-.74,0-.2,0-.43.2-.7.1-.14.26-.28.48-.45.23-.16.55-.32.9-.59-.19.21-.56.45-.36.44.21-.01.51-.33.61-.43.2-.03-.26.34-.02.35.21-.25.42-.45.65-.62.21-.18.41-.38.64-.56.23-.18.49-.37.69-.64.2-.27.51-.53.66-.94-.16.54.12.18.35.07-.08-.09-.03-.25.09-.44.12-.18.3-.41.4-.64.25-.45.46-.81.06-.58.23-.38.27-.85.41-1.32.11-.48.1-.99.15-1.51-.05-.52-.06-1.05-.14-1.58-.12-.52-.19-1.04-.35-1.53-.56-1.99-1.53-3.54-1.73-4.27-.06-.43-.9-1.15-1.27-1.68l.21-.05c-1.45-1.21-.97-1.08-2.73-2.41.78.49.61.15.12-.65-.45-.26-.92-.49-1.38-.73v-.42c-.52-.34-1.04-.78-1.54-1.26-.65-.16-2.54-1.49-2.95-1.56-.34-.7-1.57-.85-1.78-1.45-.22-.06-.5-.15-.79-.26.19.31.2.54-.29.18-.05-.02-.08-.04-.13-.06l-.11-.34c-.56-.26-1.13-.52-1.5-.69.16.1.34.22.51.38-.21-.16-.42-.29-.61-.43-.08-.04-.15-.07-.2-.1.04,0,.08.03.13.05-.32-.21-.66-.4-1.18-.55-.89-.64-2.08-.92-3.25-1.28-1.21-.26-2.39-.64-3.47-1.16.33.15.81.29.96.26-.96-.26-1.9-.59-2.75-.89-.86-.27-1.66-.46-2.29-.5l.04.24c-1.44-.23-2.58-.25-3.73-.46l-.1.24c-.83-.16-2.18-.19-3.42-.29-1.25-.04-2.42-.11-2.94-.39-.42.15-2.36-.04-3.33.02l-.25-.19c-1.27-.04-2.07.1-2.83.19-2.63-.27-5.01.32-7.27.51l-.03-.05-2.28.39c.58-.24-.44.17-1.13.2-.71.19-1.9.3-2.77.29l-1.45.21c1.59-.38-.16-.26-.28-.47l-.9.32c-.39-.05.57-.27-.12-.21-.6.21-2.43.55-2.96.88.1.04.33.05.61.04.07-.03.07-.02.02,0h.07s-.04,0-.08,0c-.07.04-.19.1-.23.13-1.15.16-.71.18-.66.27-1.36-.07-2.03.31-3.11.13.84.07-.3.31-1.21.53-.03.07-.19.1-.41.11-.43.12-.69.23-.38.31-1.04-.1-.65.16-1.34.03.41-.08.8-.21,1.18-.34-.25,0-.49.01-.67.05-1.51.09-2.1.84-3.3,1.11l.83-.46c-.08,0-.36.08-.69.2-.94.42-.92.5-.93.59-.13,0-.26-.02-.38-.04-.07.04-.12.07-.14.1-.01-.02,0-.06.03-.11-.4-.06-.72-.18-.81-.34-.94.41-1.75.89-2.21,1.32,0,.08-.16.2-.33.34-.08.11-.13.19-.13.26.3-.13.54-.24.76-.33.73-.42,1.51-.76,2.26-1.14.1.11-.44.39-.97.66.64-.22,1.27-.47,1.92-.66-.03.08-.16.18-.83.54-.54.07-.88.12-1.24.2-.47.24-.87.51-.76.62-.95.36-1.91.72-2.83,1.15.26-.13.92-.51,1-.65-.21.08-.43.17-.65.25.18-.1.38-.2.58-.31-.01,0-.02,0-.04,0-1.18.59-.63.25-1.49.52,1.14-.98,3.4-2.91,4.29-3.67-.49.25-.99.49-1.47.75h-.44c-.95.52-1.76,1.23-2.33,1.9-.59.65-.96,1.24-1.12,1.51-.48.23-.73.21-.84.11-.22.14-.44.27-.65.43.06-.13-.17-.15.58-.55-.04-.14.02-.33.1-.43-1.06.55-1.42,1.1-1.8,1.57-.39.47-.72,1-1.67,1.67l.2-.11.11-.11-.02.06.49-.27c-.19.2-.73.53-1.12.9l-.5.58c.09-.12.08-.16.05-.18-.16.15-.24.24-.17.22-.42.16-.93.23-.77-.13l-.45.87c.05.06-.14.36-.33.65-.05.09-.08.2-.12.3.02-.04.02-.07.02-.11-.03.07-.07.14-.1.2.04-.09.07-.16.09-.22-.04-.2-.37-.32-.36-.45-.52.68-.39,1.46-.02,1.1-.63.52-.78.78-.95.98-.16.21-.35.36-.81.86-.1.31.15.27.38.14.02-.1.05-.2.09-.3l.16-.28c-.07.19-.16.36-.2.55.09-.07.19-.14.25-.21-.24.68-.39,1.15-.58,1.51v.04s0-.03,0-.03c-.08.17-.12.33-.18.47.11-.85,0-1.04-.32-1.1-.29-.05-.68.08-.78-.15-.05.72.08,1.45.12,2.12.16.69.27,1.34.5,1.97-.09-.13-.54-.45-.58-.44.16.15.25.99.39,2.06.12.53.16,1.13.33,1.72.17.59.28,1.19.47,1.73.15.36.3.72.44,1.05l-.11-.1c.02.06.04.13.06.19l-.07-.2-.12-.11c0,.1.05.39.16.73.12.33.31.71.47,1.01l.56.77-.13-.08-.25-.39c-.09-.07-.15-.18-.23-.36l-.04-.06.03.04s-.05-.1-.07-.16c.31,1.48,1.41,1.39,1.81,2.85-.63-1.18-.91-1.33-1.03-1.19.35.44.78,1.25,1.2,1.83.43.57.78.95.84.58.31.64.71,1.14.47,1.23l1.89,1.98c-.16-.13-.4-.16.09.46-.47-.6-.98-1.15-1.45-1.63-.47-.48-.83-.93-.91-1.36-.28.14-.09.72-.72.25.88,1.22,1.79,1.99,2.54,2.68.82.63,1.53,1.17,2.3,1.7.56.64,1.07,1.35,1.69,1.95l.18-.03.1.56c.3.15.5.23.53.3.02.06-.07.05-.2,0,.22.17.42.31.55.35-.04.21-.54.1-1.03-.09-.14-.21-.28-.42-.41-.63-.5-.2-.92-.32-.45.25.09.05.21.12.33.19-.34-.12-.57-.17-.42.03.56.4,1.08.84,1.67,1.18-.16-.18-.37-.46-.59-.82,1.13.64,2.44,1.22,1.69.37.35.36.71.72,1.1,1.04,1.67.65,1.38.56,3.37,1.25.06.16-.5.03-.19.27,1.51.32,3.41,1.68,3.85,1.4,1.23.17.56-.21,1.34-.19-.04.03-.12.1.1.14.32-.04.63-.08.93-.17.37.1-.85.15.17.29,1.79-.11,2.77-.38,4.2-.6,1.96-.58-.97-.26.69-.66.29.09.61.31,1.61-.12.44-.4.34-.45,1.09-1.04l.12.3c.78-.45,1.26-1,1.43-.8.5-.57.85-.92,1.17-1.15.39-.58.09-.49-.31-.26-.44.2-1,.53-1.15.58,1.1-.68,1.59-1.43,2.31-1.82-.19.34-.42.66-.66.97.5-.39.78-.78.97-1.08.21-.3.3-.54.36-.75.13-.42.26-.62.78-1.03-.37.78-.8,1.77-.38,1.41.15-.41.35-.79.46-1.22.15-.1-.26.69.08.2.07-.38.26-1.11.23-1.47v.02s.31-1.01.31-1.01l.19-1.03c-.03.26.04.3.13-.06.04-.5,0-1.02.01-1.52.02.46.21,0,.24-.68.08-.99-.19-1.37-.36-1.69-.18-.32-.31-.57-.31-1.33.03.22.08.24.12.46v-.79c-.33-.02-.61-1.11-1-2.18-.39-1.07-.92-2.09-1.27-2.01-.24-1.1.13-.16,1,1.01-.06-.4-.21-.77-.32-1.16.24.43.38.81.61,1.27-.12-.8-.55-1.46-.89-2.04-.39-.54-.78-.94-1.1-1.21-.27-.5.73.03-.42-1.17-1.71-1.57-.04.63-1.07-.28-.14-.32-.33-.61-.51-.91-1.54-.88-2.62-1.65-4.07-2.21-.34-.08-.52-.1-.61-.09-1.54-.64-3.44-.42-4.66-.63.3-.04-.7-.29-.85-.37-.77.03-1.54.09-2.31.17,1.02-.09.98-.29,1.17-.49-.73.02-1.07.12-1.57.16.3-.08.61-.16.22-.24-.82.13-1.63.28-2.43.46.15.02.43.02.66.01-.61.03-1.91.28-2.8.22.07-.09.36-.2.43-.28.76.15,1.16-.09,1.53-.27-1.69.19-.43-.01-1.26-.08-1.2.13-1.65.49-1.32.61-1.35.11-1.79.12-3.12.57l.21-.32-1.24.32.96-.52c-2.46.29-.36.53-3.05.96l-.06-.23c-1.01.33-1.26.81-2.12.74-.95.39,1.77-.1-.53.54-.44,0-1.34.14-2.02.29-.64.29.41.14.96,0-3.26,1.03-2.3-.2-5.25,1.08,1.11-.18-.73.72,1.76-.09-1.15.51-2.46.43-3.61,1.12l.7-.57c-.45.15-.91.43-1.14.55l.02-.26c-1.38.93-2.9.85-3.61,1.71.47-.64-1.12.46-1.77.55,1.12-.79,3.57-1.38,3.6-1.81-.63.1-1.08.48-1.68.59.37-.21.9-.53,1.03-.65-2.01.52-2.93,1.39-4.04,1.96l2.01-.91c-.02.43-.89.43-1.35.95-1.1.22-1.77.84-2.65,1.06.22-.09.22-.14.44-.22-2.2.95-3.07.64-3.95,1.02-.88.34-2.4,1.29-1.75,1.17-.65.42,2.85-1.44,1.81-.4-1.49.03-2.47,1.36-5.32,2.31,1.08-.76-.84.04.14-.62-1.26.67-1.27.77-1.76,1.21l-.47.03c-1.47,1.21-.23.52-2.63,2.01.77-.57-1.12.29-.55-.16-.7.36-1.35.76-1.79,1.13l.08-.07c-2.46,1.44-2.17.91-4.33,2.36l.28-.03c-2.81,1.93-6.6,3.96-9.5,5.96l1.01-.53c-.48.27-1.89,1.39-2.83,1.81.18-.13.47-.38.65-.47-.09-.09-.55-.02-1.28.42l-.17.34-.37.06c-1.08.7.46.02-.61.73-.94-.06-4.65,3.03-5.83,3.28-.49.82,2.04-1.35,1.45-.5-.36.18-.55.21-1.25.67l.37.03c-3.26,2.13-4.59,2.85-7.32,4.99l.08-.13c-1.04.68-1.54,1.12-1.85,1.63-.27.07.39-.52-.04-.3-1.34,1.81-3.68,2.38-4.43,3.56-.17-.48-2.65,1.02-1.98-.04l-.64.63c.01-.44,2.14-1.84,2.34-2.42l2.41-1.54c-.14-.04.11-.47-.27-.21.54-.45,1.02-.84.19-.4,5.8-3.59,11.02-8.26,16.87-11.54.36-.27.09-.22-.1-.19,1.2-.41.9-.78,1.45-1.17l1.76-.59c.55-.5,0-.31,0-.41,2.85-1.88,5.92-3.21,8.19-4.8.84-.3,0,.41,1.03-.11-1.54.36,2.52-1.68,1.9-1.63,1.24-.2,3.63-1.86,3.5-1.05,1.24-.61.88-.79.5-.65,1.44-.72,2.59-1.31,3.68-2.09.84-.28,6.55-3.36,8.09-3.45-1.02.1,0-.19.8-.7l-.89.08,1.96-.82c.39-.2.5-.23.51-.21.34-.13-.01.19.86-.1,1.34-.54,1.35-.71,2.03-1.14l-.22.04.9-.39c.67-.26-2.26,1.22-.02.48,0-.09,1.15-.94,1.82-.98-1.13.42-.91.55-.47.47l1.58-.58-.65-.15c4.54-1.69,9.43-3,14.47-4.16,0,.16.9-.02,1.75-.18.86-.14,1.67-.25,1.48.03h-.2c-1.23.28.42.27,1.43.07-1.09.02,1.84-.77-.77-.43.66-.17,1.31-.37,1.98-.53,1.02-1.08,5.46-.57,8.58-.61-.22.02-.28.07-.31.1,1.4-.07,2.98.18,4.24.54,1.27.35,2.22.79,2.56.82l.15.32c1.19.25,1.86.46,2.53.8.66.34,1.37.78,2.44,1.8-.06,0-.36-.15-.04.18.6.36,1.36.67,2.48,2.39l-.11-.02c.29.44.57.89.82,1.35l.69,1.38c-.17.07-.09.39.08.87.17.48.51,1.08.73,1.77.12.34.25.69.37,1.03.1.34.16.69.22,1,.12.62.1,1.14-.1,1.39.33.57.44,2.86.36,3.89-.03,0-.07.06-.13.23.08.62-.07,1.51-.45,2.33-.32.84-.83,1.61-1.09,2.22-.34.81-.04.55.26.27-.55.7-1.11,1.77-1.74,2.66-.59.92-1.25,1.63-1.52,1.81-1.05.79-.57.07-.95.16-.72.61-.58.69-.51.79.07.1.04.22-1.15.77.24-.19.7-.5.5-.43-.43.25-1.16.34-1.84.44-.69.09-1.36.12-1.77.36.21-.02.41-.05.63-.08-.38.21-.84.32-1.31.39-.23.03-.46.06-.69.1-.23,0-.45,0-.66.01-.83.04-1.47-.03-1.6.24l.18.23c-.75-.02-1.19-.05-1.5-.09-.3-.02-.46-.02-.62,0-.32.03-.65.03-2.11-.32l.04-.03c-.64-.12-1.11-.3-1.51-.41-.39-.13-.71-.22-1.07-.14l.41.19c-1.55-.46-1.67-.58-3.15-1.27-.19-.06-.91-.38-1.08-.56-.12.14-.96-.32-1.82-.9-.87-.57-1.7-1.32-1.99-1.54,1.06.75.65.26.45-.06-.77-.25-1.16-.61-1.83-1.44-.39.2-.83.37-2.34-1.13.27.19.66.53.57.33-.09-.21-.5-.49-.64-.59-.09-.21.43.23.37-.03-1.22-.8-1.67-1.79-2.99-3.33.49.44.21-.05.18-.31-.22.07-.59-.52-.84-1.06-.26-.53-.46-.95-.48-.46-1.02-1.71-2.23-3.96-3.08-6.04-.85-2.09-1.14-4.08-1.03-4.88.06-.43-.19-1.54-.2-2.27l.2.11c-.15-2.01-.07-1.55.25-3.94-.06.51.02.68.11.6.1-.08.26-.39.54-.8.09-.53.12-1.11.29-1.64l.42-.13c.11-.31.26-.63.45-.93.21-.28.45-.56.68-.84.06-.77,1.84-2.54,2.05-2.92.78-.2,1.42-1.3,2.07-1.31.15-.19.36-.41.62-.61-.39.04-.61-.06-.02-.34.05-.03.08-.06.12-.09l.37.05c.51-.41,1.06-.79,1.45-.99-.18.08-.4.15-.64.22.26-.1.51-.19.75-.28.08-.04.15-.08.2-.11-.03.03-.07.05-.12.08.38-.14.74-.32,1.2-.67,2.16-.7,4.38-2.56,6.91-2.88-.37.06-.87.23-.97.36,1.95-.73,4.01-.97,5.21-1.48l-.15-.19c1.43-.5,2.56-.83,3.75-1.09v-.26c1.75-.3,5.42-1.41,6.58-1.03.39-.27,2.42-.32,3.4-.5l.28.16c1.3-.12,2.09-.26,2.86-.4,2.67.11,5.07-.48,7.38-.6l.03.05c.78-.11,1.55-.18,2.33-.27-.6.21.45-.14,1.16-.13.73-.15,1.98-.09,2.86.02h1.51c-1.68.15.12.25.21.51l.96-.14c.38.12-.62.15.08.23.65-.09,2.54-.02,3.15-.16-.09-.07-.32-.14-.6-.21-.08,0-.08,0-.02,0-.02,0-.04-.01-.07-.02.03,0,.04,0,.08.02.08-.01.21-.04.27-.06,1.19.16.76.03.73-.07,1.33.48,2.12.3,3.09.89-.78-.39.4-.17,1.36-.03.06-.06.22-.02.43.06.46.05.75.07.5-.13.93.56.68.16,1.26.59-.41-.12-.83-.19-1.25-.25.23.11.46.22.64.26,1.42.63,2.33.21,3.53.69l-.98-.08c.07.05.35.13.7.21,1.05.17,1.08.1,1.13.02.11.08.21.16.31.24.08,0,.14,0,.18,0,0,.02-.03.05-.09.07.3.28.49.57.47.76,1,.27,1.95.4,2.59.41.06-.05.26-.04.49-.01.14-.02.24-.04.28-.09-.32-.12-.58-.22-.82-.29l-2.57-.58c-.02-.15.6-.02,1.21.1-.67-.24-1.34-.46-2.02-.64.07-.05.25-.08,1.04.04.49.29.81.47,1.16.64.54.11,1.04.18,1.03.02,1.02.36,2,.84,2.99,1.26-.29-.11-1.05-.36-1.22-.33.22.11.44.22.66.33-.21-.07-.42-.15-.65-.23,0,0,.02.02.03.03,1.29.5.65.3,1.45.78-.8-.15-1.96-.26-3.03-.34-1.09-.03-2.11,0-2.64.04l1.58.33.33.28c1.02.24,2.06.33,2.95.32.88,0,1.59-.02,1.91-.04.49.26.63.48.6.64.25.1.5.2.74.32-.15.02-.02.2-.8-.19-.1.11-.29.17-.42.16,1.09.5,1.68.66,2.32.75.63.1,1.27.22,2.28.93l-.18-.15-.15-.07h.07s-.45-.38-.45-.38c.26.13.82.5,1.3.81.25.12.5.23.74.37-.15-.07-.19-.05-.2-.01.19.13.31.2.27.14.29.39.44.9.05.79l.95.36c.05-.05.4.11.73.29l.32.15s-.08-.03-.11-.03c.07.04.15.08.21.12-.09-.05-.16-.08-.23-.11-.2.03-.31.38-.45.36.66.56,1.5.51,1.12.1,1.12,1.34.89.96,1.64,2.19.26.21.32-.04.25-.32l-.28-.19-.26-.23.52.37c-.03-.12-.09-.24-.16-.32.64.47,1.06.86,1.34,1.22l.03.03-.03-.02c.13.16.25.31.35.44-1.45-1.25-1.12.37-1.63.37.61.31,1.25.63,1.88.97.6.37,1.22.74,1.83,1.15-.15-.07-.72-.04-.75.01.25-.01.84.67,1.56,1.6.34.48.67,1.05,1.01,1.62.31.59.58,1.21.83,1.77.16.4.31.8.45,1.17l-.11-.11c.02.07.04.14.06.21l-.08-.22-.12-.12c0,.11.06.42.16.78.07.38.16.81.27,1.17.15.31.25.64.33.98l-.1-.13c-.04-.16-.06-.33-.12-.48-.08-.09-.11-.23-.15-.43l-.02-.07.02.05c-.01-.06-.02-.11-.04-.18.04.79.2,1.26.41,1.77.23.5.32,1.06.1,1.88.14-1.51-.12-1.78-.27-1.7.09.29.08.69.07,1.11,0,.42,0,.87-.08,1.25-.09.78-.17,1.35.16,1.13-.37.74-.57,1.44-.78,1.27-.18.47-.4.93-.61,1.41-.26.44-.56.86-.85,1.3.1-.23.15-.43-.5.17.35-.25.56-.64.81-.96.11-.17.23-.33.34-.5.09-.17.16-.35.24-.52.15-.34.3-.64.44-.91.11-.28.23-.52.39-.7-.28-.14-.64.36-.62-.44-.37,1.48-1.01,2.51-1.55,3.46-.31.45-.63.85-.94,1.27-.33.4-.71.72-1.09,1.09-.41.26-.88.38-1.32.56-.44.17-.88.34-1.34.43l-.06.17-.57-.19c-.3.18-.49.32-.57.31-.07-.01,0-.08.12-.18-.27.12-.51.2-.64.26-.15-.16.27-.45.69-.82.25-.01.51-.03.76-.04.44-.33.72-.62,0-.51-.09.05-.2.12-.32.19.27-.23.42-.39.17-.37-.61.25-1.21.55-1.86.72.23-.01.6.05,1.01.02-1.15.55-2.59,1.1-1.39,1.11l-.8.06c-.27,0-.53,0-.8-.01-1.81.55-1.48.52-3.78.78-.12-.12.48-.23.08-.32-.83.25-1.85,0-2.68-.19-.84-.17-1.47-.47-1.68-.32-1.33-.17-.61.2-1.47.13.05-.03.15-.09-.1-.15l-1.05-.04c-.37-.21.95.1-.12-.34-.48-.1-.92-.17-1.33-.27-.39-.12-.76-.23-1.11-.35s-.69-.25-1.04-.39c-.34-.15-.67-.36-1.02-.57-2.13-1.04.67.92-1.09-.05-.17-.31-.26-.66-1.28-1.36-.62-.25-.68,0-1.61-.64l.25-.21c-.82-.63-1.52-1.08-1.35-1.28-.7-.47-1.11-.89-1.4-1.23-1.25-.97.37,1.26.59,1.61-.49-.63-.97-1.1-1.34-1.54-.35-.46-.64-.87-.79-1.33l.97.97c-1.65-2.41-2.13-1.86-2.41-3.33.57.82,1.41,1.67,1.2,1.09l-.98-1.05c-.03-.18.53.62.22.04-.32-.27-.88-.9-1.16-1.16h.03s-.64-1-.64-1l-.55-1.07c.15.26.23.24.06-.13-.3-.48-.6-.98-.83-1.5.26.46.16-.08-.05-.81-.18-.52-.31-.88-.43-1.15-.13-.27-.26-.45-.38-.62-.22-.34-.49-.62-.43-1.52.03.25.07.29.11.54v-.91c-.16-.02-.3-.36-.42-.86-.13-.5-.12-1.18-.16-1.85-.06-.67.03-1.34.02-1.86,0-.52-.06-.9-.22-.97.52-1.26.12-.05.34,1.64l.32-1.35c-.02.55-.12,1.01-.1,1.61.37-1.75.38-3.43.5-4.44.32-.62.31.65.85-1.2.44-1.29.35-1.2.1-1.02-.23.19-.52.52-.17-.25l.86-.92c.38-1,.97-1.74,1.48-2.46.61-.64,1.2-1.24,1.84-1.85.28-.28.4-.44.45-.53.75-.57,1.42-1.3,2.15-1.87.7-.6,1.36-1.2,2.03-1.46-.25.22.81-.2,1-.2.35-.23.7-.48,1.06-.69l1.11-.59c-.98.52-.85.69-.95.94.7-.32.99-.57,1.47-.8-.27.19-.54.39-.13.31.75-.45,1.5-.9,2.3-1.25-.16.02-.45.1-.69.17.62-.2,1.92-.76,2.85-.89-.06.1-.34.27-.39.37-.8.03-1.17.35-1.5.61,1.68-.58.44-.09,1.29-.22,1.18-.42,1.63-.72,1.26-.83,1.4-.25,1.84-.32,3.22-.83l-.22.32,1.29-.3-1,.5c2.53-.22.38-.54,3.18-.84l.04.24c1.05-.25,1.39-.65,2.25-.45,1.03-.24-1.83-.17.63-.45.45.09,1.39.07,2.1.09.71-.11-.38-.26-.96-.19,3.51-.27,2.23.74,5.47.31-1.14-.14.94-.49-1.75-.41,1.28-.18,2.53.28,3.86-.02l-.87.33c.48,0,1.02-.13,1.28-.18l-.11.24c1.65-.51,3.05.27,4.05-.26-.7.4,1.23.03,1.88.23-1.37.24-3.89-.18-4.07.21.63.15,1.19-.02,1.8.12-.43.04-1.05.12-1.21.19,2.06.32,3.26-.09,4.53-.14h-2.23c.2-.4,1-.03,1.64-.31,1.1.26,2,0,2.9.17-.24-.01-.26.02-.5.01,2.43.21,3.03.98,3.98,1.09.93.16,2.74.16,2.12-.08.79-.02-3.22-.27-1.78-.61.65.38,1.37.41,2.29.44.93,0,2.05.12,3.5.62-1.34-.05.7.48-.48.41,1.42.23,1.49.16,2.15.12l.39.27c.96-.02,1.09-.09,1.34-.11.12-.01.27,0,.57.02.3.02.74.07,1.44.23-.96-.12,1.04.57.3.5.76.22,1.51.38,2.1.43h-.11c2.81.71,2.23.78,4.76,1.5l-.21-.2c.84.22,1.72.5,2.62.8.91.29,1.84.62,2.73,1.05.9.4,1.81.81,2.69,1.21.44.19.88.39,1.31.58.42.21.83.42,1.23.62l-.98-.63c.48.28,2.19.99,3.02,1.63-.2-.1-.57-.24-.74-.35-.03.13.26.5,1,.93h.39s.23.29.23.29c1.14.64-.18-.45.94.24.18.44,1.36,1.22,2.58,2.01,1.25.76,2.4,1.73,2.72,2.24.95.22-1.95-1.53-.96-1.23.29.29.39.46,1.05.99l-.09-.37c.77.63,1.42,1.16,2.01,1.64.55.52,1.04.99,1.52,1.44.49.45.96.88,1.48,1.36.49.5,1.03,1.03,1.67,1.64l-.14-.06c.42.47.75.82,1.05,1.08.29.27.54.47.8.61.09.27-.55-.37-.3.06,1.98,1.23,2.54,3.64,3.66,4.48-.48.15.73,2.75-.25,1.97Zm-165.26,3.18l-.33.07c-.16.15-.33.29.33-.07Zm46.09,18.11c.43-.38.75-.52.77-1-.26.11-.58.7-.77,1Zm-24.42-2.54c.26.34.52.64.79.85-.28-.39-.54-.72-.79-.85Zm-7.33-25.48s0-.09,0-.14c-.19.26-.06.13,0,.14Zm15.47-8.3c.07-.12.11-.24.04-.29-.11.04-.23.09-.37.14-.41.25-.12.21.33.15Zm42.47-5.85l-.08.03c.1.03.16.06.16.08l-.09-.12Zm-2.13-.26c-.23-.06-.39-.11-.5-.14-.25,0-.49.01-.73.02.34.06.64.11,1.23.12Zm1.52.1c.1,0,.28-.03.44-.06h0c-.22-.04-.44-.07-.65-.1,0,.05,0,.1.22.16Zm-1.58-.24c.11,0,.22.01.32,0-.11,0-.22,0-.32,0Zm-7.28-.67s.02,0,.04-.01c-.58-.04-.88-.07-.04.01Zm-5.91,1.08c.24-.02.43-.05.59-.08-.16,0-.32.02-.49.03-.16.04.03-.06,0-.13-.41.05-.75.08-.1.18Zm-18.99,3.46l.06-.05c-.1,0-.17,0-.18-.03l.12.08Zm.23.16h0c.22-.03.43-.06.64-.1-.02-.05-.03-.1-.25-.09-.09.04-.25.11-.39.19Zm1.85-.54c.23,0,.4,0,.51,0,.23-.07.46-.15.68-.22-.33.03-.64.07-1.2.22Zm-2.68.71l-1.12.05c.35-.33,1.14-.43,1.85-.48.11-.09.22-.18.31-.27h0s0,0,0,0c.16-.16.22-.3-.1-.34-.62-.09-3.17.19-3.35.21-.31.26-.23.81.1,1.21.33-.09.58-.12.65-.02-.17.06-.34.12-.5.18.09.08.19.16.31.21.66-.27,1.3-.53,1.86-.76Zm2.78-.59c-.11.02-.21.05-.31.09l.31-.09Zm4.72-1.63c-.06-.03-.11-.07-.08-.11-.22.05-.46.13-.7.21.26-.03.52-.07.78-.1Zm2.41.92s-.02.01-.04.02c.56-.03.86-.03.04-.02Zm4.54-1.27c-.19-.06-.73-.07-.88-.11-.6.06-1.12.11-1.62.15h.85c-.49.05-.93.04-1.43.04-.48.04-.95.08-1.44.12-.13.02-.27.05-.42.07.27.16-.76.56.4.68,2.48-.07,2.35-.6,4.54-.96Zm1.22-.17c-.24.02-.43.06-.59.1.15-.01.31-.03.49-.04.16-.05-.03.06,0,.13.4-.05.75-.1.1-.19Zm4.91-1.16c-.06,0-.12.01-.18.02-1,.2-2.72.51-3.02.26.65-.15,1.62-.26,2.2-.4-.14-.03-.43-.02-1.02.05-2.26.36-3.87.96-3.88,1.37.06,0,.12-.01.18-.02.99-.22,2.7-.57,3-.31-.64.14-1.61.29-2.19.43.14.02.43.01,1.01-.07,2.23-.39,3.87-.9,3.89-1.33Zm1.12.13c.6-.03,1.13-.04,1.63-.05l-.85-.04c.49-.03.94,0,1.43.04.48,0,.95,0,1.45.03.14,0,.27-.02.42-.02-.26-.19.83-.47-.32-.72-2.53-.21-2.42.41-4.64.62.19.07.73.1.87.15Zm6.88.16c-.26-.02-.52-.04-.79-.03.06.04.09.08.06.12.22-.03.47-.06.72-.09Zm9.42.26c-.34-.05-.59-.11-.62-.23.19,0,.37.02.54.02-.05-.11-.12-.22-.2-.31-.74-.02-1.44,0-2.05,0l1.08.38c-.46.17-1.22-.05-1.92-.23-.13.05-.27.11-.38.16h0,0c-.21.11-.3.22-.01.36.57.23,2.99.98,3.16,1.02.38-.13.54-.66.41-1.16Zm5.43,1.12c-.13.06-.23.14-.21.22.12.02.25.05.4.08.48.04.23-.11-.19-.3Zm15.22,8.97s-.09,0-.14,0c.24.19.12.06.14,0Zm3.25,24.06c.48-.12.9-.28,1.12-.47-.44.14-.8.3-1.12.47Zm-27.53-6.55c.09.3.69.8,1.02,1.01-.42-.51-.51-.87-1.02-1.01ZM166.76,2.49l.32.08c.21-.06.42-.11-.32-.08Z"/>
        <path class="cls-1" d="m150.11.16c.05,0,.1-.01.16-.02-.06,0-.11.01-.16.02Z"/>
        <path class="cls-1" d="m186.38,6.31s.04.03.07.05l-.07-.05Z"/>
        <path class="cls-1" d="m123.15,30.88l-.1-.19c.03.08.07.14.1.19Z"/>
        <path class="cls-1" d="m152.54,44.19c-.12-.02-.16-.05-.19-.09-.14.07-.13.12.19.09Z"/>
        <path class="cls-1" d="m126.82,8.49l.05-.04s.02-.06.02-.07l-.06.11Z"/>
        <path class="cls-1" d="m92.15,13.11s.19.07.03.13c.31-.1.62-.18.93-.27-.51.12-.7.11-.96.14Z"/>
        <path class="cls-1" d="m92.18,13.24l-.11.03s.08-.02.11-.03Z"/>
        <path class="cls-1" d="m98.67,11.68c-.36,0-.18.29-.39.24-.35.32,2.31-.68.39-.24Z"/>
        <polygon class="cls-1" points="90.49 12.41 90.85 12.11 90.16 12.23 90.49 12.41"/>
        <path class="cls-1" d="m109.67,9.19c-.31.09-.8.16-.59.23l1.32-.19c.13-.1-.24-.12-.73-.04Z"/>
        <polygon class="cls-1" points="128.62 9.3 128.45 9.25 127.6 9.11 128.62 9.32 128.6 9.64 128.96 9.18 128.62 9.13 128.62 9.3"/>
        <path class="cls-1" d="m145.22,13.44c-.15-.05-.3-.12-.47-.16.27.1.39.14.47.16Z"/>
        <polygon class="cls-1" points="219.8 29.31 220.25 30.18 220.05 29.56 219.8 29.31"/>
        <path class="cls-1" d="m221.1,30.7l-.17.35.55.37c-.12-.18-.36-.54-.37-.72Z"/>
        <path class="cls-1" d="m129.77,40.08h.11c-.08-.18-.27-.34-.66-.66l.55.66Z"/>
        <path class="cls-1" d="m121.62,28.07l.08.24c.04-.18.07-.35.13-.53-.08.1-.14.2-.21.29Z"/>
        <path class="cls-1" d="m120.92,17.23c.03-.12.05-.24.08-.36-.04.11-.06.23-.08.36Z"/>
        <path class="cls-1" d="m121.4,15.63c-.15.38-.26.83-.39,1.24.33-.86.74-1.25.39-1.24Z"/>
      </g>
      <g>
        <path class="cls-1" d="m215.54,30.87s-.11.16-.13.19c.11,0,.15-.24.13-.19Z"/>
        <path class="cls-1" d="m217.48,32s0,.03,0,.04c.02,0,.04.02.08.04.03-.14.14-.07-.09-.08Z"/>
        <path class="cls-1" d="m217.49,32.04c-.09-.03,0,.13,0,0h0Z"/>
        <path class="cls-1" d="m217.92,32.14l-.16.06c0,.09.09.15.02.19.14-.01.15-.1.14-.25Z"/>
        <path class="cls-1" d="m218.13,31.95l-.08.02s0,.05.08-.02Z"/>
        <path class="cls-1" d="m217.98,31.98c.05-.09-.01-.01-.1.04l.17-.05c0-.06.05-.17-.07.01Z"/>
        <path class="cls-1" d="m217.9,31.69c-.24-.05-.31.19-.07.24-.03-.1-.1-.18.07-.24Z"/>
        <path class="cls-1" d="m218.56,32.62c.04-.07.04-.2.07-.3l-.12.04c.02.07.09.15.05.25Z"/>
        <path class="cls-1" d="m218.63,32.33l.18-.06c-.11-.06-.15-.02-.18.06Z"/>
        <polygon class="cls-1" points="218.89 32.97 219.13 32.78 219.04 32.84 218.89 32.97"/>
        <path class="cls-1" d="m219.37,32.95c-.11.11-.03.26-.12.31.1.01.22-.07.33-.14-.1.03-.17-.02-.22-.17Z"/>
        <path class="cls-1" d="m219.76,33.03s-.11.06-.18.1c.05-.01.11-.04.18-.1Z"/>
        <path class="cls-1" d="m219.01,32.39s-.04.16.01.24l.04-.22-.05-.02Z"/>
        <path class="cls-1" d="m219.06,32.41h0s.08.05.1.06c-.02,0-.04-.03-.09-.06Z"/>
        <path class="cls-1" d="m219.15,32.47h0s0,0,0,0Z"/>
        <path class="cls-1" d="m219,32.38s.01,0,.01,0c0-.02,0-.03-.01,0Z"/>
        <path class="cls-1" d="m219.61,32.74c.1-.06.16-.04.24-.02-.06-.07-.13-.13-.21-.16-.04.06-.12.15-.03.18Z"/>
        <polygon class="cls-1" points="220.97 33.21 220.95 33.16 220.95 33.2 220.97 33.21"/>
        <path class="cls-1" d="m219.65,32.56s-.09-.03-.14-.03c0,0-.01.02-.02.03v-.02s-.09.06-.12.07c0-.02,0-.04,0-.05-.04.07-.09.16-.16.05.08-.33.11-.24.28-.3-.07.06.04.13.03.21.05-.04.1-.06.14,0,.02,0,.01.02,0,.04Zm-.18-.02c-.04-.05-.07-.03-.09.02.03-.01.06-.02.09-.02Z"/>
        <path class="cls-1" d="m219.36,32.62h-.01c0,.06,0,.03.01,0Z"/>
        <path class="cls-1" d="m220.94,33.57c.08-.08.15-.17.22-.25l-.16.03-.06.22Z"/>
        <polygon class="cls-1" points="221.47 33.74 221.59 33.66 221.47 33.52 221.47 33.74"/>
        <path class="cls-1" d="m219.17,19.78l-.07-.05s.05.04.07.05Z"/>
        <path class="cls-1" d="m219.29,20.26h.1c-.06-.02-.1-.02-.1,0Z"/>
        <path class="cls-1" d="m224.07,28.55c.15-.15.4-.33.19-.26l-.2.09c.06.06.05.12.01.17Z"/>
        <path class="cls-1" d="m221.47,23.92l-.06.05c.08,0,.15,0,.22.01-.05-.02-.11-.04-.16-.06Z"/>
        <path class="cls-1" d="m220.69,23.93s-.07.1-.1.16l.1-.16Z"/>
        <path class="cls-1" d="m218.23,17.2l-.23-.02c.03.12.13.04.23.02Z"/>
        <path class="cls-1" d="m225.79,35.1c.09,0,.11-.05.1-.13-.13-.02-.38-.21-.1.13Z"/>
        <path class="cls-1" d="m221.44,19.36s-.1-.04-.14-.02c.05.03.09.05.14.02Z"/>
        <path class="cls-1" d="m225.88,34.96c.1.02.14-.05-.11-.41-.02,0-.03,0-.05,0,.08.15.15.3.16.41Z"/>
        <path class="cls-1" d="m215.8,7.57s0-.02.02-.03c-.03,0-.03.02-.02.03Z"/>
        <path class="cls-1" d="m217.16,4.21s.03.07.05.11c0-.02,0-.06-.05-.11Z"/>
        <path class="cls-1" d="m223.4,34.47c-.09-.02,0,.03,0,0h0Z"/>
        <path class="cls-1" d="m223.19,34.27c.05.05.11.1.17.14-.03-.03-.09-.08-.17-.14Z"/>
        <path class="cls-1" d="m223.27,34.42s-.07-.05-.1-.07c0,.04.04.08.1.07Z"/>
        <path class="cls-1" d="m223.4,34.47s.07.02.13.05c-.06-.02-.12-.06-.18-.1.03.03.05.05.05.06Z"/>
        <path class="cls-1" d="m217.76,12.55s0-.01.02-.02c-.1-.04-.08-.02-.02.02Z"/>
        <polygon class="cls-1" points="221.45 27.51 221.47 27.52 221.47 27.51 221.45 27.51"/>
        <path class="cls-1" d="m221.24,27.33c.29.03.27.09.23.18l.58-.24-.82.06Z"/>
        <path class="cls-1" d="m215.93,7.99v.02s0-.02,0-.02Z"/>
        <path class="cls-1" d="m219.28,19.98v-.02s0,.02,0,.02Z"/>
        <path class="cls-1" d="m217.41,14.19v-.02s0,.02,0,.02Z"/>
        <path class="cls-1" d="m218.55,8.96l.03-.02-.03.02Z"/>
        <path class="cls-1" d="m220.69,24.07s.08-.04.12-.05c-.04,0-.09,0-.12.05Z"/>
        <polygon class="cls-1" points="218.27 17.2 218.27 17.19 218.23 17.2 218.27 17.2"/>
        <path class="cls-1" d="m222.41,34.15h-.02s.02,0,.02,0Z"/>
        <path class="cls-1" d="m222.36,33.98c.02.06.08.16.05.17l.18.02c-.1-.03-.16-.12-.23-.19Z"/>
        <path class="cls-1" d="m223.61,34.38c-.11-.1.16.35.05.22.13.34.23-.24-.05-.22Z"/>
        <polygon class="cls-1" points="221.76 32.32 221.66 32.22 221.76 32.54 221.76 32.32"/>
        <path class="cls-1" d="m224.3,33.53c-.07-.09-.13-.15-.15-.16-.04-.03-.06-.05-.07-.03.05.09.03.12.18.27l.06-.04-.02-.04Z"/>
        <polygon class="cls-1" points="223.49 31 223.47 31.01 223.47 31.1 223.51 31.01 223.89 31.18 223.27 30.86 223.28 30.9 223.49 31"/>
        <path class="cls-1" d="m221.93,29.11s.05.03.09.04c-.04-.03-.07-.04-.09-.04Z"/>
        <polygon class="cls-1" points="217.3 3.67 217.36 3.52 217.22 3.64 217.3 3.67"/>
        <path class="cls-1" d="m216.87,3.41s.06.07,0,.11l.31-.11h-.3Z"/>
        <path class="cls-1" d="m219.05,21.48h.08c.08-.05.07-.08.07-.15l-.15.15Z"/>
        <polygon class="cls-1" points="218.82 19.7 218.82 19.73 219.09 19.6 218.82 19.7"/>
        <path class="cls-1" d="m218.07,18.36s.05.09.08.14c0-.11.23-.23-.08-.14Z"/>
        <path class="cls-1" d="m218.16,18.54s0-.03-.01-.04c0,.01,0,.03.01.04Z"/>
        <path class="cls-1" d="m220.59,25.13c0-.06-.19.01-.23.02.07.08.28-.03.23-.02Z"/>
        <path class="cls-1" d="m220.92,27.35s-.02.02-.03.03c0,.02.01.04.02.09.13-.06.14.07.01-.12Z"/>
        <path class="cls-1" d="m220.9,27.38c-.03-.09-.1.09,0,0h0Z"/>
        <path class="cls-1" d="m221.09,27.78l-.15-.09c-.07.05-.06.16-.13.13.1.11.17.06.28-.05Z"/>
        <path class="cls-1" d="m221.37,27.82l-.07-.05s-.04.04.07.05Z"/>
        <path class="cls-1" d="m221.25,27.73c.1-.02,0-.02-.09-.05l.14.1c.05-.03.16-.06-.06-.05Z"/>
        <path class="cls-1" d="m221.42,27.48c-.11-.22-.34-.12-.23.1.06-.09.08-.19.23-.1Z"/>
        <path class="cls-1" d="m221.11,28.58c.08-.01.18-.09.28-.13l-.11-.07c-.04.06-.06.16-.17.19Z"/>
        <path class="cls-1" d="m221.39,28.45l.16.1c-.02-.12-.08-.13-.16-.1Z"/>
        <polygon class="cls-1" points="221.05 29.06 221.34 29.12 221.24 29.09 221.05 29.06"/>
        <path class="cls-1" d="m221.36,29.42c-.16-.02-.22.14-.32.11.05.08.19.13.32.17-.08-.06-.09-.14,0-.28Z"/>
        <path class="cls-1" d="m221.55,29.77s-.11-.05-.19-.08c.04.03.1.06.19.08Z"/>
        <path class="cls-1" d="m221.58,28.79s-.15.07-.18.16l.19-.11v-.05Z"/>
        <path class="cls-1" d="m221.61,28.95h0s0,0,0,0Z"/>
        <path class="cls-1" d="m221.59,28.84h0c0,.05.01.09.02.11,0-.02,0-.05-.01-.11Z"/>
        <path class="cls-1" d="m221.57,28.77s0,.01,0,.01c.02-.01.02-.02,0-.01Z"/>
        <path class="cls-1" d="m221.68,29.48c.11.04.13.1.17.17.02-.09.02-.18,0-.26-.07,0-.19,0-.16.09Z"/>
        <polygon class="cls-1" points="221.93 29.96 221.97 29.96 221.93 29.96 221.93 29.96"/>
        <path class="cls-1" d="m221.84,29.39s-.04-.09-.07-.13c-.01,0-.02,0-.03,0v-.02s-.09-.02-.12-.04c.02-.01.03-.02.04-.03-.08.01-.18.03-.14-.09.31-.14.26-.06.41.02-.1-.02-.08.12-.15.15.06.02.11.04.09.11.02.02,0,.02-.03.02Zm-.09-.15c.02-.06-.02-.07-.07-.06.03.02.05.04.07.06Z"/>
        <path class="cls-1" d="m221.62,29.21h-.01s-.02.02.01,0Z"/>
        <path class="cls-1" d="m221.57,29.93c.12.02.23.05.36.08l-.11-.05-.24-.03Z"/>
        <polygon class="cls-1" points="221.66 30.01 221.79 30.06 221.88 30.06 221.66 30.01"/>
        <path class="cls-1" d="m210.48,28.62l-.09.02s.06-.01.09-.02Z"/>
        <path class="cls-1" d="m210.94,28.83l.05-.08s-.07.07-.05.08Z"/>
        <path class="cls-1" d="m220.39,30.3c-.02-.21,0-.52-.08-.31l-.06.21c.08,0,.12.04.14.1Z"/>
        <path class="cls-1" d="m215.16,29.42v.07c.05-.06.1-.11.15-.16-.05.03-.09.06-.15.09Z"/>
        <path class="cls-1" d="m214.67,30.04c0,.06.03.12.07.18l-.07-.18Z"/>
        <path class="cls-1" d="m207.88,27.73l-.16.17c.12.05.11-.07.16-.17Z"/>
        <path class="cls-1" d="m222.2,31.16c-.15-.16-.22-.23-.25-.25.19.22.5.56.25.25Z"/>
        <path class="cls-1" d="m211.59,26.59c-.05.02-.09.05-.11.1.05-.02.09-.04.11-.1Z"/>
        <path class="cls-1" d="m221.95,30.91c-.15-.17-.23-.27-.07-.03.03.04.05.06.08.09-.02-.05-.05-.09,0-.06Z"/>
        <path class="cls-1" d="m198.87,23.58s0-.02-.01-.03c-.01.03,0,.03.01.03Z"/>
        <path class="cls-1" d="m197.1,20.42s.07.02.12.03c-.01-.02-.05-.04-.12-.03Z"/>
        <path class="cls-1" d="m221.87,30.39s-.03-.02,0,0h0Z"/>
        <path class="cls-1" d="m221.98,30.44s-.06-.02-.07-.03c.02.01.04.02.07.03Z"/>
        <path class="cls-1" d="m221.85,30.36s.02,0,.02,0c-.05-.03-.07-.05-.02,0Z"/>
        <path class="cls-1" d="m221.87,30.39l.02.04s0-.01.02-.01c-.02-.01-.03-.02-.04-.03Z"/>
        <path class="cls-1" d="m203.97,25.18s0-.01,0-.02c-.1.06-.06.05,0,.02Z"/>
        <polygon class="cls-1" points="217.94 31.69 217.95 31.68 217.95 31.67 217.94 31.69"/>
        <path class="cls-1" d="m217.66,31.74c.2-.21.24-.15.28-.07l.18-.6-.46.68Z"/>
        <path class="cls-1" d="m199.27,23.75h0s0,0,0,0Z"/>
        <path class="cls-1" d="m196.48,20.44h-.13c.16-.27.34.14.53-.13l.2.45c.04-.11.16-.25.13-.31.09.03.16.05.12-.16.47,1.09,1.61.73,2.22,1.47.06,0,.08-.12.09-.19.02.34.2-.09.3-.09l.04.5c.14-.08.13-.23.17-.31.44.1.65.66,1.08.56.04.19-.17.31-.05.42,0-.48.45-.05.49-.33-.03.46.44.29.12.86.15.11.25-.2.23-.28.18.11.33.18.57.05.04.19.93.23.9.76.02-.35.08-.15.24-.23l.02-.31.24.14c.06,0,.07.01.06.04.04.03-.08.15,0,.26.16.09.23-.05.39-.15v-.05s.12.03.12.03c.08.05-.42.13-.2.39.04-.07.35-.35.34-.13-.14-.08-.2.12-.18.22l.19.11.08-.36c.56.27,1.05.76,1.66,1.01-.14.29.42.2.18.61v-.05c-.17-.02-.11.36.03.36-.07-.19.42-.33.14-.53l.33-.1c.49-.77.6.35,1.08.24-.04.02-.07.06-.08.09.44-.12.62.54.75.44l-.07.24c.43-.23.47-.24.74.04-.02.03-.09.08-.06.15.15-.13.3-.27.51-.12l-.04.07.37.12c-.31.7.79-.17.56.64.16-.17.44-.13.6-.17-.01.03-.02.06-.01.11.3-.32.34.29.5.31.14-.05.15-.19.16-.32.06.38.68-.1.69.06.13.09-.07.29-.09.46.24.02.24-.65.4-.25-.05.02-.12.01-.11.07.08.11-.08.99.1.88l-.02-.16c.27-.09.21.77.45.31l.08-.23c.21.44.18-.02.41.38l-.02.03c.17.02.13.33.36.01l-.03-.07c.2.05.2.09.38.19.04-.02.15-.04.14.05.14-.29.5.06.57.11-.17-.02-.15.13-.16.27.19-.2.26-.2.31.03.18-.36.37-.74.62-.65-.06.04-.13.04-.14.13,0,.09.08.03.11,0,0,.09-.11.11-.14.25.31-.28.29.1.58.08-.12.08-.09.18-.12.31.2-.41.16.5.31-.07.32.52,1.16.53,1.18.96-.02.17.22-.02.3.01l-.09.18c.37-.23.23-.05.64-.26-.2.17-.2.29-.17.51l.35-.3-.09.3c.12-.08.18,0,.25.08.21-.27.47-.12.6-.27-.09.42.26,0,.16.38.05-.04.1-.07.16-.09.03-.18.1-.38.14-.26,0,0,.01,0,.02,0l-.07.23c.1-.02.18-.01.24,0-.01-.03-.02-.08-.03-.14.02.05.03.1.04.15.01,0,.02,0,.03.01,0,0-.01,0-.02,0,.02.07.06.12.16.07.24.51.44-.36.49.22-.02-.06-.03-.1-.05-.01.08.01.24.46.3.28l-.05-.27c.05-.09.06-.16.11-.13l-.11-.32c.12.15-.14-.41.31.36-.16-.29.13.12.1.04l.21.31c.13.13.09.03.05-.05.37.43.42.4.37.3-.08-.13-.18-.26-.17-.28l.08.09-.23-.31c.26.28-.18-.19-.11-.14-.14-.15-.08-.11.08,0v-.05c.19.22.37.31.66.53l-.25-.25c.13.08.24.22.29.22-.17-.17-.2-.29-.5-.51-.07-.03-.13-.07-.19-.1.02.02.01.01,0,0,0,0,0,0-.01,0h0s-.08-.05-.11-.08c.05,0-.06-.06-.19-.14.42.21.12.02.6.21-.31-.11-.27-.15-.29-.19-.08-.03-.06-.03-.01-.02-.02-.03-.08-.06-.24-.11.4.1.01-.01.35.06-.03.01,0,.04.03.07.07.01.12.02.13,0,.33,0-.32-.22-.19-.24l.21.09s.03-.02.01-.04c-.14-.09-.22-.09-.31-.1.05,0,.1,0,.16,0h-.05s.06,0,.1,0c.2,0,.42-.03.61-.03-.09-.11-.3-.19-.5-.2-.07,0-.13,0-.19,0-.07,0-.13.01-.19.02.01.02.02.03.02.04.1.03.2.08.31.14-.15,0-.23-.04-.32-.07v.1c-.07,0-.15-.03-.26-.05.12-.01.19-.03.23-.05-.08-.02-.17-.03-.32-.01l.04-.06s.01-.02.02-.04v-.1s.09.12.17.08c.02-.01.03-.03.04-.07.01.03.03.05.04.05,0,0,0,0,.01,0-.05-.12.03-.09.12-.22.2.07.53.07.89.13.36.06.74.2.99.29l-.26-.26.15-.09c-.33-.36-1.43-.23-1.73-.25.01-.08.14-.14.28-.18l-.07-.09c.08,0,.2-.06.21.05.14-.03.27-.05.33-.05-.05-.31-.9-.07-.9-.4l-.02.04.02.02h-.04s-.06.09-.06.09c-.04-.03-.04-.11-.05-.19l-.12-.07s.07,0,.1,0c-.01-.03-.03-.04-.06-.02.13-.09.44-.23.57-.22l-.28-.05c-.07.02-.14-.01-.21-.04l-.09-.02s.03,0,.05,0l-.05-.02.06.02c.15-.02.47-.13.55-.13-.01-.11-.58-.04-.64.05.28-.3.11-.2.46-.47-.03-.04-.24.04-.39.11l.06.03.02.04-.1-.06c-.06.03-.1.06-.11.07-.11-.07-.13-.14-.12-.2h0s0,0,0,0c0-.03.01-.05.02-.08.26.18,1.06-.22,1.42-.27l-1.52-.12c.09,0,.54-.09.59-.1-.35.06-.56-.32-.62-.62-.04-.05-.07-.09-.09-.13h.07s0-.03,0-.03v.03s.09,0,.09,0c.08-.05.1-.19.02-.26l-.21-.07h.09s.07.04.07.04c.06,0,.06.01.07.04h.01s-.01,0-.01,0v.02c.26-.27-.68-.07-.37-.36,0,.18.18.17.34.12-.19-.1-.11-.47-.58-.27.08-.12,0-.18.24-.24l-.38-.27c.06.01.21,0,.21-.11-.01.21.49.28.2.46.3-.08.44-.19.72-.17-.24-.34-.81-.4-1.22-.54l.13-.39-.14.02.33-.15c-.09-.02-.17-.03-.14-.04.03-.02.08-.02.13-.02-.03-.03-.07-.05-.11-.06.18-.06.4-.06.61-.05-.06.05-.11.1-.17.14.19.02.38.02.47-.1-.03,0-.06-.02-.09-.03.14,0,.25,0,.3-.04l-.23-.21s-.13.11-.22.19c-.27-.1-.59-.2-.78,0l.15-.25c-.4-.13-.32-.11-.65-.32.12-.05.24,0,.31-.07-.44-.1.32-.61-.03-.56-.13-.14-.32.01-.44-.06.04,0,.12-.02.12-.05l-.28-.06c.07-.07.2.07.27-.1-.25-.18-.41-.29-.35-.52-.13-.26-.46.25-.47,0,.19-.09.42-.18.41-.34-.16-.04-.31.01-.44-.1l.31-.08c-.05-.12-.13-.2.1-.27-.16-.06-.15-.14-.12-.21-.21-.14-.59.31-.7.38.18-.25.01-.34.36-.54l.13.14c.29-.45-.53-.21.09-.55,0,.12.21.22.36.11l-.21-.13c.08-.04.08.08.16-.02-.08-.03-.27-.09-.38-.1h.02s-.13-.27-.13-.27c.03.03.11.01.11-.04l-.22-.16c.09.04.17-.05.2-.15.02-.29-.75-.02-.49-.31,0,.03.04.03.04.06l.11-.14c-.66.16-.23-.6-.89-.44.22-.22.16-.05.52.05l.15-.21c.04.06,0,.12.09.18.22-.28-.18-.38-.38-.45.07-.1.51-.07.34-.27-.21-.28-.46.19-.59.02l.3-.23c-.33-.17-.14-.42-.16-.64-.04-.04-.08-.05-.12-.05.09-.26-.46-.37-.39-.57.08.02.19-.15.26-.19l-.29-.24c.12.11.32.05.51.02-.05-.09-.16-.1-.21-.16.08.02.16.04.23-.03l-.41-.23s-.03.07-.03.1c-.02-.08-.19-.21-.06-.37.08-.01.16,0,.24,0-.19.15,0,.16.17.17-.09-.21.04-.07.15-.21-.05-.15-.32-.14-.48-.06.03-.19.06-.26-.18-.38l.27-.04-.13-.14.36.04c.1-.36-.47.07-.41-.32l.23-.06c-.13-.11-.53-.05-.28-.23-.18-.09-.27.31-.4.02.11-.09.16-.22.19-.32-.12-.06-.23.11-.22.18-.2-.41.72-.49.31-.8-.13.19-.48,0-.39.33-.18-.12.25-.4-.05-.5l.33.03c-.01-.06-.14-.1-.18-.12l.23-.05c-.46-.09.09-.43-.47-.41.44-.03-.07-.15.07-.27.34.09.12.48.51.4.09-.11-.11-.13-.02-.23.07.04.19.09.28.09.15-.32-.34-.34-.48-.47l.16.25c-.39.08-.1-.11-.42-.1.17-.19-.16-.22-.06-.37,0,.03.04.02.05.05-.09-.3.51-.55.49-.67.02-.13-.25-.3-.39-.17-.13-.07.22.37-.32.33.53-.33-.31-.29-.02-.77.25.11.3-.18.49-.08-.09-.17-.18-.15-.37-.18l.16-.1c-.46-.12-.37.04-.68-.25.17.08.22-.21.37-.16-.01-.1-.09-.18-.22-.22h.03c-.19-.33.15-.35-.14-.62l-.1.06c-.41-.35-.36-.93-.62-1.34l-.04.16c0-.07-.25-.25-.12-.42.02.02.08.06.07.09.12-.04.28-.14.29-.25h-.2s.13-.07.13-.07c-.04-.16-.25.12-.29-.04.5-.24-.12-.71.31-.98-.41,0,.03.32-.35.29.04-.06.11-.11.11-.22l-.22.1c0-.52.14-.76-.02-1.18h.05c.05-.17-.02-.25-.23-.26.1-.06.18.04.26-.05-.66-.11.28-.66-.17-.72.47-.1.81-.58,1.21-.53l-.09-.1c.32-.05.1.35.44.33l-.22.44c.11-.04.3-.03.32-.1.03.09.07.16.2,0-.55,1.05.44,1.71.25,2.65.04.05.14-.01.21-.05-.25.23.19.1.26.18l-.36.34c.15.06.26-.05.35-.07.2.4-.1.92.24,1.2-.12.15-.35.07-.36.22.37-.3.32.31.57.17-.38.26.05.53-.59.64,0,.18.31.07.36,0,.03.21.07.37.32.48-.12.15.41.87-.03,1.18.28-.21.17-.04.34.04l.25-.18.04.27s.03.06,0,.07c0,.05-.16.03-.2.17.03.18.19.15.36.21l.03-.04.06.11c.02.09-.36-.24-.43.09.08-.02.49.05.31.19-.03-.15-.21-.08-.28,0l.04.21.33-.16c.14.6.06,1.29.26,1.93-.31.08.11.46-.36.52l.04-.04c-.09-.14-.35.14-.26.26.11-.17.52.12.5-.23l.28.19c.91-.1.11.69.49.99-.04-.02-.09-.01-.12,0,.37.26-.03.82.13.86l-.23.09c.45.19.49.21.43.6-.04,0-.12-.02-.15.05.2.03.4.07.41.32h-.08s.14.37.14.37c-.74.2.62.51-.15.84.23.01.38.27.51.36-.03,0-.06.03-.09.06.44.03-.01.44.07.59.12.08.24,0,.35-.08-.26.29.5.46.39.57,0,.16-.27.13-.42.22.13.2.66-.22.44.16-.04-.03-.08-.08-.12-.05-.03.13-.82.56-.62.63l.11-.11c.25.15-.47.65.04.55l.23-.08c-.21.44.13.13-.04.56h-.04c.09.15-.18.31.21.29l.04-.07c.08.19.06.21.09.41.04.01.12.09.05.14.31-.07.27.42.27.51-.09-.14-.2-.03-.31.04.28.02.32.08.17.26.39-.09.81-.17.9.07-.07-.02-.12-.08-.19-.03-.07.05.03.08.06.09-.07.05-.16-.02-.28.05.41.07.11.29.3.5-.14-.05-.19.04-.32.11.44-.1-.29.44.25.19-.21.58.31,1.24,0,1.52-.14.09.15.16.18.24l-.19.04c.41.14.18.15.6.33-.26-.05-.35.02-.5.19l.45.08-.29.12c.14.05.11.15.09.24.34-.01.39.29.59.29-.38.19.16.2-.19.36.06.01.12.04.17.07.16-.09.36-.16.29-.06,0,0,0,0,.01.02l-.22.1c.08.06.12.14.14.19.01-.03.05-.07.09-.11-.03.04-.06.09-.09.13,0,.01,0,.02,0,.03,0,0-.01,0-.02-.01-.04.06-.05.12.04.17-.32.24.75.83.35,1.3.04-.07.03-.17-.07-.2.14.42-.14.7.13.99l.25.06c.2.34.35.62.4.87l.31.17c-.02.29.75,1.56.13,1.28.29.31.06.45.21.74l-.25-.19c-.02.18.12.43.25.67-.26-.04-.12.3.07.72-.11,0-.21.02-.4-.08l-.08-.1c-.09.01-.18.02-.28.03-.09-.23.06.16-.15.01-.04.08-.36-.11-.65-.37l-.3-.14c.2-.05-.28-.43-.47-.76,0,.06,0,.13-.02.19-.15-.18-.04-.21-.19-.33-.01.13-.33-.02-.3.24.05.08.13.17.21.26,0-.01,0,0,0,0l.02.02-.02-.02s0,.06,0,.1c-.26-.17-.13,0-.06.13-.46-.59-.5-.34-.85-.95.26.41.02.26-.16.18.01.08-.03.05-.08-.03-.08-.02-.13.01-.04.21-.28-.51-.14-.08-.32-.49.08.07.16.09.23.09-.06-.09-.11-.18-.15-.2-.3-.48-.37.11-.62-.14.06-.04.11-.08.17-.12-.01-.04-.06-.07-.13-.08-.18.04-.19.12-.2.21-.02-.06-.04-.12-.05-.19-.01,0-.03.02-.03.03,0-.02,0-.06.02-.1-.05-.23-.06-.48-.04-.67-.15,0-.32.12-.48.26-.03.06-.07.1-.13.14-.04.05-.08.11-.1.16.07.02.12.04.16.06.18-.01.36-.03.51-.06,0,.15-.12.18-.25.2l.39.2c-.02.07-.05.13-.22.16-.1-.17-.15-.28-.21-.35-.12.03-.23.07-.26.22l-.31-.19-.15-.09-.08-.06s.15,0,.23-.06c-.04-.04-.08-.08-.09-.1.03,0,.07.01.11.02v-.02c-.21-.08-.08-.09-.14-.26.14-.13.45-.34.69-.59.23-.25.38-.56.45-.76-.05.05-.1.09-.17.13v-.17c-.18.16-.93,1.03-1.09,1.27-.05-.06-.02-.19.03-.33h-.11c.05-.07.08-.19.17-.13.06-.13.13-.24.17-.28-.27-.15-.62.65-.87.45v.04s.04,0,.04,0l-.02.03.03.1s-.12-.04-.18-.08l-.13.05s.05-.05.06-.08c-.03,0-.05,0-.05.03,0-.16.09-.49.19-.58l-.22.18c-.03.07-.1.11-.17.14l-.07.06s.02-.02.03-.04l-.04.02.05-.04c.08-.13.2-.45.24-.51-.09-.06-.4.43-.36.53-.06-.4-.09-.21-.08-.65-.05,0-.12.21-.16.37l.06-.03h.04s-.11.06-.11.06c-.01.06-.02.12-.01.13-.13.04-.19.01-.23-.04h0s0,0,0,0c-.02-.02-.03-.05-.05-.07.3-.09.49-.96.68-1.28l-1.05,1.1c.05-.07.27-.47.29-.53-.18.31-.6.23-.87.1-.06,0-.11,0-.16-.01l.04-.06-.02-.02h.03s.05-.05.05-.05c.01-.09-.08-.19-.19-.18l-.19.12.05-.07.08-.03s.05-.04.07-.03h.01s0,0,0,0h.02c-.05-.36-.49.5-.52.08.15.11.25-.03.31-.19-.2.08-.44-.21-.57.28-.04-.13-.15-.11-.04-.34l-.45.13s.13-.16.04-.24c.16.14.52-.21.49.13.13-.28.13-.46.32-.66-.41-.02-.82.38-1.19.61l-.22-.34-.07.12.09-.35c-.07.06-.13.11-.12.08,0-.03.03-.07.07-.11-.04,0-.08.02-.11.04.06-.18.2-.35.34-.5,0,.07,0,.15,0,.22.13-.14.25-.29.21-.43l-.07.05c.09-.11.16-.2.15-.26l-.31.05c0,.06,0,.17,0,.29-.24.15-.53.33-.49.61l-.1-.27c-.36.23-.29.18-.66.31.04-.12.15-.19.14-.29-.35.28-.28-.63-.46-.33-.19.01-.19.25-.32.3.02-.03.06-.1.04-.12l-.22.18c-.01-.1.18-.12.09-.27-.3.08-.48.14-.62-.05-.29-.06-.09.52-.29.37.05-.21.12-.45,0-.54-.13.1-.19.25-.35.28l.14-.29c-.12-.04-.24-.02-.14-.25-.15.08-.21.03-.23-.04-.24.08-.13.65-.14.78-.08-.3-.25-.22-.2-.62h.19c-.17-.52-.49.27-.37-.42.1.07.31-.03.31-.22l-.23.08c.01-.09.12-.01.08-.14-.07.04-.24.15-.32.23v-.02s-.28-.07-.28-.07c.04,0,.08-.08.04-.11l-.26.07c.09-.05.07-.16,0-.25-.21-.2-.49.57-.55.19.03.02.05-.02.07,0l-.04-.17c-.29.61-.61-.19-.9.42-.03-.31.06-.15.37-.37l-.07-.24c.07,0,.1.07.19.04-.08-.35-.41-.1-.59.02-.04-.12.26-.44,0-.43-.36-.01-.14.48-.36.47v-.38c-.33.14-.41-.15-.59-.28-.06,0-.09.03-.12.06-.15-.23-.57.12-.69-.05.07-.05,0-.24.01-.33l-.37.08c.16-.03.24-.22.34-.39-.1-.02-.18.06-.25.06.07-.05.13-.1.12-.2l-.43.18s.03.07.06.09c-.08-.03-.29.02-.33-.18.04-.07.11-.12.15-.19,0,.24.13.09.23-.03-.22-.06-.03-.07-.07-.24-.15-.06-.31.16-.34.34-.13-.14-.16-.21-.41-.1l.14-.24h-.19s.26-.24.26-.24c-.22-.3-.24.41-.51.12l.1-.22c-.16.03-.37.38-.35.08-.18.08.07.4-.23.32,0-.14-.07-.27-.14-.35-.12.06-.06.25,0,.28-.44-.1.07-.87-.43-.75.06.22-.3.38.02.51-.21.07-.15-.45-.42-.28l.23-.24c-.05-.03-.16.04-.21.07l.11-.21c-.36.3-.28-.34-.61.11.25-.36-.15-.04-.16-.23.28-.21.45.21.63-.15-.03-.14-.17,0-.19-.13.07-.03.19-.1.24-.16-.15-.31-.48.05-.67.08l.3.03c-.18.35-.14.01-.34.26-.05-.25-.27-.01-.33-.18.03.01.04-.02.07,0-.29-.12-.11-.74-.22-.8-.09-.1-.39,0-.38.2-.14.06.43.06.06.46.08-.61-.42.06-.61-.47.24-.12.04-.35.25-.43-.19-.03-.23.05-.37.17l.02-.19c-.39.28-.2.31-.62.37.17-.08-.03-.3.11-.39-.09-.05-.2-.04-.31.03l.02-.02c-.38-.06-.18-.34-.57-.28v.12c-.54.1-.97-.3-1.44-.36l.1.14c-.06-.05-.35.04-.4-.17.03,0,.1-.02.11,0,.05-.12.07-.31-.02-.38l-.12.16.02-.15c-.15-.07-.07.27-.22.2.13-.54-.63-.36-.57-.85-.26.32.27.18,0,.46-.02-.07-.01-.15-.1-.22l-.06.23c-.41-.33-.5-.59-.94-.72l.04-.04c-.11-.15-.21-.14-.35.02.01-.12.14-.12.12-.24-.5.44-.34-.63-.67-.31.21-.43.06-1,.35-1.28Zm22.61-8.93l.05-.06c-.07,0-.14-.02-.05.06Zm.49,9.44c.06-.1.17-.17-.11-.15-.13.07.05.12.11.15Zm1.53,3.44c.05-.07.04-.12,0-.16-.07.08-.1.15,0,.16Zm1.99,3.31s.06,0,.09,0c-.01-.04-.03,0-.09,0Zm-.63,2.29c.1.02.21.03.28.04,0-.01-.02-.02-.03-.04-.11-.05-.18-.03-.25,0Zm-.22,3.05v-.05s-.05-.06-.06-.09l.06.14Zm.35.21c.06.07.1.12.13.16.02-.02.04-.05.05-.08-.07-.06-.13-.11-.19-.08Zm-.21-.04s-.01.06-.02.11h0s.08.07.12.09c-.03-.07-.05-.14-.1-.2Zm.3.23s-.03,0-.04.01c.01,0,.03,0,.04-.01Zm1.62,1.2h0c.16.13.25.21,0,0Zm.02-.85s-.03,0-.03.04c.02.01.05.02.08.04-.02-.04.07.09.18.22.04,0,.07,0-.23-.29Zm-1.49-3.01l.05.03s.05.01.07.02l-.12-.06Zm-.24-.11h0s-.02.02-.02.03c.06.03.13.07.16.07-.03-.02-.08-.06-.14-.1Zm.23.27s-.08-.02-.1-.03c.04.04.09.09.13.14.03,0,.04-.02-.03-.11Zm-.23-.32c.08.01.15.02.23.02.29.16.2.2.11.21l.25.17h0c.16.11.31.2.44.24.22.07.51-.15.53-.18-.23-.15-.86-.38-1.4-.57.01.03,0,.04-.14,0-.03-.02-.06-.05-.08-.07-.12-.04-.23-.08-.32-.11.12.08.28.2.39.3Zm.06.23s-.02-.03-.04-.04l.04.04Zm1.18,1.27c.05.04.11.08.16.13-.03-.05-.09-.13-.16-.21,0,.03,0,.05,0,.08Zm-1.64-1.26l-.02-.02c-.05-.03-.1-.06.02.02Zm1.13,1.36c.11.11.19.15.27.22-.02-.06-.02-.11,0-.14l-.1-.03c-.02-.06.05-.02.11,0l.05-.08s-.02-.04-.04-.07c-.26-.22-.65-.63-.99-.87-.33-.18.49.59.7.98Zm.12.21s-.04-.08-.08-.13c0,.02,0,.03,0,.04.05.07-.08-.09-.19-.21.04.06.07.12.26.3Zm.81,1.38h.02c-.02-.12-.08-.33.19-.06.03.03.08.07.14.14l.04.07c.02.09-.02.13.01.24.07.07.14.12.18.1.01-.03.01-.07,0-.11-.41-.67-.98-1.39-1.49-1.93v.02c.19.25.48.69.29.52-.04-.04-.09-.1-.17-.18l-.02-.03c-.13-.19-.24-.37-.37-.55-.05-.05-.07-.05,0,.06.05.08.11.17.18.27.19.32.53.87.99,1.45Zm-.4-.39c-.08-.04-.17-.09-.25-.14l.21.19c-.06-.02-.19-.15-.32-.26-.08-.06-.17-.12-.26-.19-.01,0-.03,0-.03,0,.24.32.33.65.79,1.14.72.61.06-.32.23-.36-.15-.15-.28-.28-.38-.39Zm-1.19-.89l.1.07c-.04-.06-.08-.13-.12-.18,0,.02,0,.06.01.12Zm-.87.33c.05.02.1.06.14.21-.02.01-.05.03-.07.03.04.13.08.25.12.36.1-.05.17-.16.24-.23l-.25-.34c-.02-.27.11-.11.26.05l-.04-.23h0c-.03-.15-.09-.31-.18-.47-.18-.28-.51-.8-.52-.84.03.21.15.86.31,1.45Zm-.84-.21c.02-.09.04-.19.04-.27-.02,0-.04,0-.06,0-.08.06-.05.17.02.27Zm-1.83-2.13s.03-.05.05-.07c-.04-.01-.03.02-.05.07Zm-3.95-.64c.02.11.05.17.12.11-.03-.08-.07-.11-.12-.11Zm-3.71-.87c-.03.14.12.04.19.01-.04-.11-.03-.24-.19-.01Zm-7.48-5.53v-.08c-.07.05-.12.1,0,.08Z"/>
        <path class="cls-1" d="m205.03,26.48h-.02s.01,0,.02,0Z"/>
        <path class="cls-1" d="m201.67,22.31v-.03s0,.03,0,.03Z"/>
        <path class="cls-1" d="m210.71,28.66h-.03s.02,0,.03,0Z"/>
        <path class="cls-1" d="m214.78,30.13s.02-.09.03-.13c-.03.03-.05.07-.03.13Z"/>
        <polygon class="cls-1" points="207.91 27.7 207.91 27.69 207.88 27.73 207.91 27.7"/>
        <path class="cls-1" d="m221.85,30.22c-.06-.03-.13-.06-.16-.08l.08.06s.04,0,.08.01Z"/>
        <path class="cls-1" d="m221.69,30.14h0s0,0,0,0Z"/>
        <path class="cls-1" d="m222.1,30.61c.06.03-.34-.26-.23-.19-.34-.28.44.41.23.19Z"/>
        <polygon class="cls-1" points="223.09 30.66 223.34 30.8 223.37 30.74 223.09 30.66"/>
        <path class="cls-1" d="m223.95,33.1c-.1-.14-.17-.25-.28-.37l.13.24h0c.06.09.13.16.17.2.02,0,.01-.01-.02-.06Z"/>
        <polygon class="cls-1" points="221.86 32.26 221.89 32.3 222 32.36 221.86 32.23 221.73 31.83 221.89 32.46 221.93 32.48 221.86 32.26"/>
        <path class="cls-1" d="m219.49,32.31s.06-.02.09-.05c-.05.01-.07.03-.09.05Z"/>
        <polygon class="cls-1" points="196.77 19.97 196.69 19.82 196.7 20.01 196.77 19.97"/>
        <path class="cls-1" d="m196.38,20.22l.1-.31-.19.24s.1,0,.09.07Z"/>
        <path class="cls-1" d="m211.73,29.78l.04-.07c.02-.09-.01-.1-.06-.14l.02.21Z"/>
        <polygon class="cls-1" points="210.2 28.84 210.23 28.86 210.29 28.57 210.2 28.84"/>
        <path class="cls-1" d="m208.88,28.63s-.03-.01-.04-.01c.01,0,.02.01.04.01Z"/>
        <path class="cls-1" d="m208.69,28.59s.1.02.15.03c-.09-.07-.04-.33-.15-.03Z"/>
      </g>
    </g>
  </g>
</svg>