<?xml version="1.0" encoding="UTF-8"?>
<svg id="Calque_2" data-name="Calque 2" xmlns="http://www.w3.org/2000/svg" viewBox="0 0 76.35 193.91">
  <defs>
    <style>
      .cls-1 {
        fill: #202020;
        stroke-width: 0px;
      }
    </style>
  </defs>
  <g id="Layer_1" data-name="Layer 1">
    <g>
      <g>
        <path class="cls-1" d="m49,136.9c-.11.17.11.2.14.24.11-.32-.19-.26-.14-.24Z"/>
        <path class="cls-1" d="m52.41,129.99s.04-.03.06-.05c.02-.06.06-.15.13-.29-.17.04.03-.38-.19.34Z"/>
        <path class="cls-1" d="m52.47,129.94c-.12.3.19-.15,0,0h0Z"/>
        <path class="cls-1" d="m53,128.52l-.06.44c.11-.05.28-.4.28-.24.11-.43,0-.38-.22-.2Z"/>
        <path class="cls-1" d="m52.92,128.05l-.04.22s.08-.07.04-.22Z"/>
        <path class="cls-1" d="m52.83,128.49c-.08-.08-.03.05-.04.26l.09-.48c-.08.04-.19,0-.05.21Z"/>
        <path class="cls-1" d="m52.36,128.99c-.28.77,0,.76.28-.02-.17.19-.34.46-.28.02Z"/>
        <path class="cls-1" d="m54.17,126.09c-.06-.05-.24.06-.34.06l-.03.33c.11-.13.26-.41.37-.39Z"/>
        <path class="cls-1" d="m53.83,126.15l.05-.49c-.16.39-.13.49-.05.49Z"/>
        <polygon class="cls-1" points="54.89 124.71 54.82 124.16 54.83 124.39 54.89 124.71"/>
        <path class="cls-1" d="m55.22,123.25c.07.24.33-.17.34.06.09-.32.07-.62.06-.9-.04.27-.15.54-.4.84Z"/>
        <path class="cls-1" d="m55.62,121.96c-.01.14,0,.29,0,.45.02-.14.02-.29,0-.45Z"/>
        <path class="cls-1" d="m54.2,124.91c.06-.02.19-.04.33-.27l-.27.1c-.02.05-.05.11-.07.17Z"/>
        <path class="cls-1" d="m54.26,124.74h0c.07-.17.12-.29.14-.35-.02.06-.07.17-.15.35Z"/>
        <path class="cls-1" d="m54.41,124.39v-.03s0,.03,0,.03Z"/>
        <path class="cls-1" d="m54.18,124.95l.02-.04s-.04.02-.02.04Z"/>
        <path class="cls-1" d="m55.12,122.7c0-.24.07-.46.15-.72-.14.26-.27.53-.37.79.05.06.12.22.22-.07Z"/>
        <polygon class="cls-1" points="56.18 119.48 56.13 119.51 56.16 119.53 56.18 119.48"/>
        <path class="cls-1" d="m54.9,122.77c-.06.16-.1.31-.14.46,0,0,.02.01.02.03-.01.02-.02.03-.03.05.01.09.02.18.01.28-.02,0-.05.02-.07.04.06.06.15.11-.05.45-.38.06-.24-.12-.21-.56.03.16.21-.26.3-.28-.01-.13,0-.26.1-.43.01-.07.03-.06.05-.03Zm-.16.57c-.1.17-.08.23-.04.27,0-.08.02-.18.04-.27Z"/>
        <path class="cls-1" d="m54.77,123.59v.03c.07-.05.04-.05,0-.03Z"/>
        <polygon class="cls-1" points="56.49 119.6 56.33 119.05 56.31 119.43 56.49 119.6"/>
        <polygon class="cls-1" points="56.79 118.51 56.76 118.21 56.61 118.41 56.79 118.51"/>
        <path class="cls-1" d="m63.81,59.87l-.05-.24c.02.11.03.18.05.24Z"/>
        <path class="cls-1" d="m63.77,61.58l.1.04c-.05-.08-.09-.11-.1-.04Z"/>
        <path class="cls-1" d="m63.07,93.33c.25-.31.6-.64.38-.64l-.23.07c0,.25-.07.42-.14.57Z"/>
        <path class="cls-1" d="m64.16,75.63l-.07.09c.07.09.13.17.19.25-.03-.11-.07-.22-.11-.35Z"/>
        <path class="cls-1" d="m63.47,74.87c-.06.1-.12.24-.18.44l.18-.44Z"/>
        <path class="cls-1" d="m63.47,50.56l-.23-.27c.02.43.12.24.23.27Z"/>
        <path class="cls-1" d="m59.68,108.05c.16-.27.26-.49.33-.69-.22.32-.48.55-.33.69Z"/>
        <path class="cls-1" d="m66.1,60.57c-.04-.15-.08-.21-.13-.21.03.15.07.24.13.21Z"/>
        <path class="cls-1" d="m60.01,107.36c.16-.23.3-.51.23-.84-.03.05-.06.09-.09.14-.02.22-.05.44-.14.7Z"/>
        <path class="cls-1" d="m59.47,17.11s0-.06,0-.08c-.03,0-.02.03,0,.08Z"/>
        <path class="cls-1" d="m58.89,6.99c.04.09.09.24.14.39,0-.08-.05-.19-.14-.39Z"/>
        <path class="cls-1" d="m58.02,114.4c-.06.22.01.04,0,0h0Z"/>
        <path class="cls-1" d="m57.82,114.69c.05-.07.1-.16.15-.25-.03.04-.08.12-.15.25Z"/>
        <path class="cls-1" d="m57.93,114.68c-.03.07-.06.13-.08.18.03.04.05.02.08-.18Z"/>
        <path class="cls-1" d="m58.02,114.4c.02-.06.04-.15.09-.3-.04.12-.08.23-.13.34.03-.04.05-.05.05-.04Z"/>
        <path class="cls-1" d="m63.06,34.86s0-.03.01-.05c-.12-.21-.09-.12-.01.05Z"/>
        <polygon class="cls-1" points="61.8 87.24 61.81 87.27 61.82 87.24 61.8 87.24"/>
        <path class="cls-1" d="m61.76,86.44c.22.37.15.56.06.8l.66-.17-.72-.64Z"/>
        <path class="cls-1" d="m59.79,18.55v.05s0-.03,0-.05Z"/>
        <path class="cls-1" d="m63.85,60.62v-.09s0,.06,0,.09Z"/>
        <path class="cls-1" d="m62.82,39.99v-.07s0,.05,0,.07Z"/>
        <path class="cls-1" d="m63.1,23.54s.02-.02.03-.04l-.03.04Z"/>
        <path class="cls-1" d="m63.39,75.35s.09-.05.14-.06c-.04-.07-.08-.07-.14.06Z"/>
        <path class="cls-1" d="m63.51,50.61v-.03s-.03-.02-.04-.02l.04.05Z"/>
        <path class="cls-1" d="m57.41,116.59v.05s0-.04,0-.05Z"/>
        <path class="cls-1" d="m57.28,116.55s.13-.04.13.04l.08-.43c-.06.23-.14.29-.21.39Z"/>
        <path class="cls-1" d="m58.09,113.65c-.1.14.22.17.11.23.19.25.04-1.11-.11-.23Z"/>
        <polygon class="cls-1" points="55.93 116.59 55.78 116.87 56.06 116.83 55.93 116.59"/>
        <path class="cls-1" d="m58.56,108.25c-.07-.08-.16.06-.19.28.02.15,0,.37.1.31l.09-.59Z"/>
        <polygon class="cls-1" points="60.41 100.39 60.37 100.45 60.26 100.82 60.42 100.39 60.74 100.45 60.27 100.21 60.24 100.35 60.41 100.39"/>
        <path class="cls-1" d="m60.92,92.85c0,.07.02.14.04.22,0-.12-.02-.19-.04-.22Z"/>
        <polygon class="cls-1" points="58.57 5.32 58.5 4.85 58.45 5.19 58.57 5.32"/>
        <path class="cls-1" d="m57.8,4.27c.05.09.15.27.11.37l.26-.22-.37-.15Z"/>
        <path class="cls-1" d="m63.13,65.33l.08.04c.09-.07.1-.17.12-.38l-.2.34Z"/>
        <polygon class="cls-1" points="63.5 59.31 63.49 59.41 63.79 59.22 63.5 59.31"/>
        <path class="cls-1" d="m63.1,54.24c0,.16.03.34.04.51.02-.36.28-.57-.04-.51Z"/>
        <path class="cls-1" d="m63.15,54.9s0-.1,0-.15c0,.05,0,.09,0,.15Z"/>
        <path class="cls-1" d="m62.7,78.67c.04-.2-.18-.15-.21-.18,0,.33.26.18.21.18Z"/>
        <path class="cls-1" d="m61.49,86.17s-.03.04-.05.06c0,.07-.02.16-.06.31.15-.08.06.37.1-.37Z"/>
        <path class="cls-1" d="m61.45,86.23c.04-.32-.15.19,0,0h0Z"/>
        <path class="cls-1" d="m61.3,87.72l-.06-.44c-.09.08-.17.45-.21.3,0,.44.09.36.27.14Z"/>
        <path class="cls-1" d="m61.5,88.15l-.02-.23s-.06.09.02.23Z"/>
        <path class="cls-1" d="m61.47,87.71c.1.05.01-.05-.03-.26l.04.48c.07-.05.18-.04,0-.22Z"/>
        <path class="cls-1" d="m61.8,87.12c.08-.81-.19-.73-.27.08.11-.22.21-.52.27-.08Z"/>
        <path class="cls-1" d="m60.72,90.3c.07.04.22-.11.32-.12l-.04-.32c-.08.15-.17.44-.28.45Z"/>
        <path class="cls-1" d="m61.04,90.18l.06.49c.08-.41.03-.5-.06-.49Z"/>
        <polygon class="cls-1" points="60.27 91.77 60.45 92.28 60.4 92.06 60.27 91.77"/>
        <path class="cls-1" d="m60.2,93.23c-.11-.22-.29.22-.34,0-.04.32.03.61.1.88-.01-.27.06-.54.24-.88Z"/>
        <path class="cls-1" d="m60.04,94.55c0-.14-.04-.28-.08-.44,0,.14.03.29.08.44Z"/>
        <path class="cls-1" d="m60.93,91.45c-.05.03-.18.08-.28.33l.25-.14c.01-.06.02-.12.04-.18Z"/>
        <path class="cls-1" d="m60.81,91.99s0,.02,0,.03v-.03Z"/>
        <path class="cls-1" d="m60.9,91.62h0c-.04.18-.07.3-.08.37.01-.06.04-.17.09-.37Z"/>
        <path class="cls-1" d="m60.94,91.4v.05s.02-.02,0-.05Z"/>
        <path class="cls-1" d="m60.4,93.75c.05.23.01.46-.02.73.1-.27.17-.56.23-.83-.06-.05-.15-.19-.2.11Z"/>
        <polygon class="cls-1" points="59.88 97.05 59.92 97.02 59.89 97 59.88 97.05"/>
        <path class="cls-1" d="m60.6,93.64c.03-.16.05-.32.06-.47-.01,0-.02-.01-.03-.03,0-.02.01-.03.02-.05-.03-.08-.05-.17-.06-.27.02-.01.04-.03.06-.05-.07-.05-.17-.08-.03-.44.37-.13.25.07.3.51-.06-.15-.16.29-.25.33.03.12.05.25-.02.43,0,.07-.02.06-.05.04Zm.06-.58c.07-.18.04-.24,0-.27,0,.08,0,.18,0,.27Z"/>
        <path class="cls-1" d="m60.59,92.83v-.03c-.06.06-.04.06,0,.03Z"/>
        <polygon class="cls-1" points="59.55 96.97 59.78 97.49 59.75 97.12 59.55 96.97"/>
        <polygon class="cls-1" points="59.4 98.07 59.45 98.36 59.58 98.15 59.4 98.07"/>
        <path class="cls-1" d="m39.66,153.55l-.08.23c.05-.11.07-.18.08-.23Z"/>
        <path class="cls-1" d="m40.59,152.1l-.06-.09c0,.1.02.15.06.09Z"/>
        <path class="cls-1" d="m52.41,122.65c-.29.26-.7.51-.47.55l.24-.02c.05-.24.14-.4.23-.53Z"/>
        <path class="cls-1" d="m46.54,139.25l.1-.06c-.03-.11-.06-.21-.08-.3,0,.11-.01.23-.02.36Z"/>
        <path class="cls-1" d="m46.91,140.22c.09-.07.2-.18.33-.35l-.33.35Z"/>
        <path class="cls-1" d="m34.51,161.48l.02.36c.25-.36.05-.27-.02-.36Z"/>
        <path class="cls-1" d="m57.08,108.51c-.16.26-.26.48-.32.68.22-.31.47-.54.32-.68Z"/>
        <path class="cls-1" d="m38.08,151.74c-.04.14-.04.22,0,.24.05-.15.06-.24,0-.24Z"/>
        <path class="cls-1" d="m56.76,109.18c-.16.23-.3.5-.23.82.03-.05.06-.09.09-.14.02-.22.05-.44.14-.69Z"/>
        <path class="cls-1" d="m11.23,186.55s-.05.03-.07.03c.01.03.04,0,.07-.03Z"/>
        <path class="cls-1" d="m2.2,191.17c.07-.07.19-.17.31-.26-.07.03-.16.11-.31.26Z"/>
        <path class="cls-1" d="m58.53,102.2c.04-.22-.02-.04,0,0h0Z"/>
        <path class="cls-1" d="m58.71,101.9c-.04.07-.09.16-.13.26.03-.04.07-.12.13-.26Z"/>
        <path class="cls-1" d="m58.6,101.92c.03-.07.05-.13.06-.18-.03-.04-.06-.02-.06.18Z"/>
        <path class="cls-1" d="m58.53,102.2c-.01.06-.03.15-.06.3.03-.12.06-.24.1-.34-.02.04-.04.05-.04.04Z"/>
        <path class="cls-1" d="m23.87,173.29s-.03.01-.05.02c-.08.23-.03.15.05-.02Z"/>
        <polygon class="cls-1" points="52.39 128.86 52.39 128.84 52.37 128.86 52.39 128.86"/>
        <path class="cls-1" d="m52.22,129.66c-.11-.42,0-.58.15-.8h-.68s.53.8.53.8Z"/>
        <path class="cls-1" d="m12.34,185.54l.04-.03s-.02.01-.04.03Z"/>
        <path class="cls-1" d="m.9,192.55l-.27.29c-.09-.33.96-.78.94-1.18l1.18-.51c-.1-.07-.05-.34-.23-.24.24-.2.44-.38.02-.26,2.81-1.23,4.77-3.66,7.18-5.34.13-.15-.03-.16-.13-.17.6-.13.28-.46.47-.69l.88-.2c.15-.31-.12-.24-.17-.33,1.05-1.06,2.43-1.71,3.15-2.7.4-.14.17.32.59.02-.78.14.78-1.1.42-1.12.66-.05,1.32-1.2,1.62-.58.46-.4.16-.56,0-.48.52-.48.92-.88,1.18-1.44.39-.16,2.15-2.39,2.96-2.49-.54.08-.09-.13.08-.54-.15.03-.31.05-.47.07.23-.21.43-.44.65-.66.11-.16.15-.19.17-.17.11-.11.1.14.42-.11.43-.46.34-.59.46-.95l-.1.04.26-.34c.22-.23-.53,1.03.26.36-.05-.07.07-.77.41-.84-.36.38-.17.47.02.38l.51-.54-.43-.06c.71-.78,1.48-1.54,2.25-2.31.39-.39.78-.78,1.17-1.18.37-.41.72-.85,1.07-1.29.23.23,1.01-1.24,1.25-.78l-.09.04c-.31.46.39.11.63-.28-.41.28.16-.96-.61-.1l.38-.83c-.4-.94,1.53-1.8,2.13-3.03-.03.1,0,.14,0,.17.54-1.09,1.76-2.02,1.82-2.32l.26.06c.28-1.06.32-1.17,1.15-2.08.02.04,0,.19.15.06.02-.34.04-.69.56-1.34l.04.07.72-1.08c.31.22.54-.3.8-.86.23-.58.5-1.19.95-1.12-.05-.34.4-1.18.53-1.6.03.02.07.01.14-.03-.08-.64.88-1.15,1.13-1.65.11-.36-.09-.29-.28-.23.66-.43.74-1.85.99-2,.31-.43.36-.01.58-.05.34-.7-.65-.24.12-.99-.03.12-.12.33-.04.28.25-.31,1.36-.49,1.4-.93l-.25.16c.18-.73,1.38-1.2.99-1.55l-.24-.06c.89-.94.18-.51,1.04-1.48l.03.03c.23-.51.64-.63.43-1.05l-.14.14c.31-.61.36-.65.72-1.26,0-.09.12-.41.24-.46-.27-.18.59-1.52.74-1.8-.2.52.03.35.22.26-.09-.41-.01-.63.36-.95-.33-.24-.67-.51-.3-1.31,0,.15-.07.36.04.32.11-.04.12-.27.13-.35.11-.04.04.24.21.21-.08-.71.44-.94.7-1.78-.01.3.16.12.33.09-.38-.25.88-.9.21-.85,1.1-1.38,1.77-3.96,2.41-4.41.22-.1.17-.64.28-.92l.17.11c0-.91.14-.65.19-1.69.06.46.22.35.56.04l-.11-.77h.34c0-.3.15-.57.31-.84-.21-.38.18-1.34.07-1.57.49-.13.19-.79.63-.86-.02-.11-.02-.25,0-.39-.22.07-.43.05-.25-.17,0-.02.01-.04.02-.06l.27-.02c.05-.28.12-.55.18-.73-.05.07-.13.15-.21.22.08-.1.16-.18.23-.27.01-.03.03-.07.04-.09,0,.02,0,.04-.01.06.11-.14.2-.29.21-.55.68-.78.31-2.17,1.11-3.02-.1.14-.19.34-.13.43.25-.85.86-1.59.86-2.18l-.22-.03c.11-.65.19-1.15.37-1.65l-.23-.11c.33-.7.44-2.37,1.09-2.67-.12-.23.35-1,.41-1.43l.22-.05c.21-.53.24-.88.28-1.23.7-1,.6-2.13.9-3.09h.06s.14-1.01.14-1.01c.1.3-.06-.22.07-.51-.01-.34.15-.84.36-1.18l.16-.63c-.04.73.28.02.51.03l-.08-.45c.14-.14.11.3.23.01-.05-.3.14-1.1-.02-1.4-.06.03-.14.11-.21.22,0,.04,0,.03,0,0l-.02.03s0-.02.02-.03c-.01-.04-.04-.1-.06-.13.17-.49.03-.33-.07-.33.48-.49.32-.86.82-1.21-.34.29-.18-.21-.09-.61-.06-.03-.03-.1.04-.18.03-.2.01-.33-.16-.24.45-.35.08-.29.44-.5-.07.17-.1.35-.11.54.08-.09.16-.18.19-.26.47-.57-.02-1.03.2-1.54l.1.45s.06-.15.08-.31c-.02-.47-.1-.49-.18-.52.06-.04.12-.08.18-.12,0-.04-.02-.06-.03-.08.02,0,.05.02.09.05.22-.12.46-.19.64-.17.03-.46-.07-.9-.21-1.19-.06-.03-.1-.12-.14-.23-.05-.06-.11-.11-.16-.13-.02.14-.04.26-.06.37l.04,1.16c-.14,0-.16-.28-.19-.56l-.2.89c-.06-.04-.12-.12-.15-.47.16-.21.26-.34.34-.5-.03-.25-.07-.47-.22-.47l.36-1.34c-.02.13-.04.48.04.55l.12-.3c-.01.09-.02.19-.03.29h.02c.1-.6.11-.31.31-.67.22.73.88,2.14,1.21,2.67l-.05-.75.2-.15c-.04-.97-.96-2-1.19-2.3.08-.23.23-.3.38-.29l.02-.35c.07.07.21,0,.12.38.14.04.26.13.3.19.23-1.03-.63-1.18-.35-2.2l-.05.09v.07s-.02-.03-.02-.03l-.13.23c0-.13.07-.41.11-.65l-.04-.36c.02.07.05.09.09.09.01-.1,0-.16-.03-.14.18-.17.53-.29.63-.11l-.19-.46c-.07-.02-.11-.19-.14-.36l-.06-.16s.02.04.04.05c0-.04-.02-.07-.02-.11.01.05.02.08.04.11.14.08.48.09.55.15.08-.37-.45-.73-.56-.5.46-.67.24-.52.73-1.05,0-.15-.23-.12-.4-.05l.03.15-.02.15-.04-.28c-.07.04-.13.08-.15.12-.04-.35,0-.59.06-.77v-.02s0,.02,0,.02c.03-.09.05-.16.08-.23.08.84,1.03.38,1.37.59l-1.15-1.95c.08.07.51.27.56.27-.35-.17-.18-1.59-.07-2.62,0-.18,0-.36,0-.53l.06.07.02-.09v.1s.06.07.06.07c.1-.07.2-.51.19-.82l-.13-.44.08.07.04.21c.05.05.04.11.03.2v.03s0-.02,0-.02c0,.02,0,.05,0,.08.39-.61-.54-.92-.09-1.54-.11.6.05.74.22.73-.09-.51.21-1.64-.32-1.45.14-.3.11-.6.36-.54l-.15-1.24c.04.1.18.19.25-.16-.15.67.24,1.38-.13,1.71.31.05.5-.19.72.17,0-1.34-.42-2.11-.71-2.97l.32-1.14-.14-.06.37-.17c-.07-.15-.13-.25-.1-.28.03-.02.08.02.13.08,0-.12-.03-.24-.06-.3.19-.03.39.19.56.43-.07.1-.15.2-.22.3.16.24.33.43.47.12-.02-.05-.04-.11-.06-.17.12.16.22.26.28.16l-.1-.91c-.06.1-.17.24-.3.41-.19-.58-.42-1.24-.7-.76l.26-.66c-.29-.82-.23-.68-.41-1.66.13-.04.21.22.32.05-.34-.73.61-1.69.26-1.87-.06-.58-.3-.26-.38-.63.04.02.12.06.13-.05l-.23-.45c.1-.17.16.41.29-.07-.15-.84-.26-1.33-.1-2.02-.01-.99-.53.4-.44-.43.21-.11.47-.21.52-.73-.13-.28-.29-.25-.36-.72l.32.04c0-.43-.03-.78.21-.77-.12-.36-.08-.6-.03-.78-.16-.66-.65.46-.8.61.27-.63.13-1.08.52-1.44l.08.57c.42-1.21-.43-1.16.25-1.71-.03.42.13.92.31.68l-.15-.61c.09-.07.05.35.16.07-.07-.17-.23-.53-.33-.69h.02s-.03-.99-.03-.99c.02.13.1.14.11-.04l-.16-.72c.08.22.18,0,.24-.32.11-.92-.71-.74-.37-1.45,0,.1.03.12.02.23l.14-.37c-.68-.08-.1-2.16-.78-2.24.27-.52.16-.04.49.63l.19-.56c.03.23-.02.42.05.66.28-.73-.09-1.42-.28-1.81.09-.28.51.21.39-.58-.15-1.12-.49.22-.58-.45l.34-.5c-.27-.86-.06-1.5-.05-2.23-.04-.16-.07-.24-.11-.28.12-.78-.41-1.61-.32-2.19.08.13.21-.34.29-.42l-.26-1.04c.11.46.31.43.51.5-.03-.33-.15-.48-.19-.7.08.13.16.27.24.09-.13-.36-.25-.72-.39-1.09-.03.07-.03.19-.03.3-.02-.28-.19-.86-.06-1.27.08.03.16.16.24.19-.2.35,0,.52.17.68-.09-.76.04-.19.15-.57-.05-.54-.33-.74-.49-.59.03-.61.07-.81-.18-1.41l.28.1-.13-.56.37.44c.11-1.11-.48-.17-.42-1.39l.24-.02c-.13-.46-.54-.59-.28-.97-.18-.44-.28.8-.41-.26.11-.2.16-.61.17-.92-.13-.3-.24.18-.21.43-.23-1.5.72-1.02.27-2.4-.12.51-.51-.36-.38.8-.2-.54.24-1.12-.08-1.67l.34.34c-.01-.21-.15-.43-.2-.54l.24.02c-.49-.67.07-1.35-.53-1.71.46.24-.09-.53.04-.83.38.55.2,1.68.6,1.71.09-.29-.12-.51-.04-.79.08.18.22.43.3.5.12-.93-.42-1.39-.58-1.92l.21.95c-.4-.03-.12-.43-.47-.66.15-.51-.21-.85-.13-1.26.01.1.05.11.06.21-.14-1.05.46-1.43.41-1.85,0-.42-.32-1.17-.45-.86-.15-.32.3,1.38-.29.85.52-.68-.39-1.2-.2-2.56.3.54.28-.39.51.1-.15-.62-.24-.62-.45-.88l.15-.22c-.54-.75-.39-.13-.8-1.32.21.39.19-.54.37-.25-.04-.34-.16-.66-.31-.89l.03.04c-.32-1.22.04-1.05-.37-2.14l-.09.13c-.55-1.42-.76-3.31-1.23-4.79l.02.51c-.03-.24-.39-.97-.32-1.44.03.09.11.24.12.33.12-.04.26-.27.21-.64l-.22-.1.11-.18c-.13-.55-.23.22-.36-.33.45-.45-.52-2.38-.17-2.98-.48-.27.2,1.06-.25.74.02-.18.07-.28.01-.64l-.2.18c-.33-1.68-.31-2.37-.8-3.82l.07.04c-.08-.54-.21-.81-.48-.98.07-.14.25.21.27-.02-.87-.71-.17-1.96-.79-2.36.48-.09.45-1.44.99-1.08l-.2-.35c.34,0,.45,1.17.85,1.28.06.43.08.87.1,1.31.1-.08.33.06.31-.14.1.29.2.55.24.11.22,3.11,1.71,5.88,2.01,8.86.08.19.16.05.21-.04-.17.6.27.47.38.75l-.26.88c.2.29.27.01.36.02.41,1.46.3,2.98.76,4.13-.08.41-.36-.02-.32.49.31-.74.47,1.27.69.98-.33.59.25,1.79-.44,1.68.06.61.36.45.39.27.08.71.17,1.27.47,1.82-.09.41.67,3.19.23,3.89.27-.47.17.01.37.4l.24-.41.09.93c.05.19.05.24.02.24,0,.16-.17-.02-.19.39.06.63.22.65.42.98l.03-.1.08.43c.03.32-.43-1.08-.44-.03.08,0,.54.57.37.87-.05-.53-.24-.44-.3-.24l.06.74.34-.29c.18,2.13.19,4.36.37,6.62-.32,0,.1,1.61-.39,1.44l.04-.09c-.09-.55-.36.19-.27.64.12-.48.53.82.52-.34l.29.88c.95.44.1,2.39.43,3.72-.04-.09-.09-.12-.12-.13.34,1.19-.13,2.71.03,2.98l-.24.12c.43,1.01.46,1.14.32,2.37-.04-.02-.11-.16-.16.04.19.29.37.58.34,1.43l-.08-.03.06,1.31c-.77,0,.51,2.25-.34,2.65.22.26.27,1.22.37,1.65-.03,0-.07.03-.1.1.4.51-.15,1.46-.12,2.01.09.37.22.21.36.06-.34.71.34,2,.18,2.26-.06.53-.3.19-.48.33.03.79.7-.11.34.94-.03-.12-.04-.35-.09-.27-.08.4-1,1.08-.84,1.49l.15-.26c.16.74-.71,1.7-.2,1.84l.24-.06c-.38,1.24.07.54-.27,1.8l-.04-.02c.02.56-.31.84.05,1.14l.07-.19c-.03.69-.06.75-.14,1.45.03.09.06.43-.03.52.32.06.01,1.65-.03,1.96,0-.56-.16-.31-.3-.16.23.35.24.58.02,1.02.39.1.81.23.76,1.13-.05-.15-.06-.37-.15-.29-.09.08-.02.3,0,.37-.09.08-.13-.21-.27-.13.33.64-.09,1.05-.05,1.94-.09-.29-.19-.06-.34.03.44.12-.53,1.15.09.89-.56,1.67-.51,4.36-1.01,4.97-.19.16,0,.67-.04.97l-.19-.07c.23.88.03.66.24,1.7-.17-.44-.3-.29-.55.09l.3.73-.32.08c.08.29-.02.59-.11.89.29.32.1,1.36.26,1.56-.45.23-.04.82-.46.97.04.11.06.24.07.39.21-.11.42-.13.28.12,0,.02,0,.04,0,.06l-.26.07c0,.28-.02.57-.06.75.04-.08.1-.17.17-.26-.06.11-.12.21-.18.31,0,.04-.02.07-.02.1,0-.02,0-.04,0-.06-.09.16-.15.33-.11.58-.55.89.08,2.23-.62,3.19.08-.15.15-.37.07-.45-.15.89-.65,1.7-.61,2.29h.23c-.05.67-.1,1.19-.24,1.71l.24.08c-.27.73-.25,2.45-.87,2.79.15.23-.3,1.03-.34,1.48l-.21.06c-.19.55-.23.9-.27,1.25-.71,1.02-.61,2.16-.91,3.14h-.06s-.14,1.03-.14,1.03c-.1-.31.06.23-.07.52,0,.34-.19.85-.42,1.18-.06.21-.12.42-.19.63.08-.74-.28-.03-.51-.06l.04.45c-.16.13-.08-.31-.23-.03.03.3-.24,1.09-.1,1.41.07-.02.15-.1.23-.21,0-.04,0-.04,0,0l.02-.02s-.01.02-.02.03c.01.04.03.1.05.14-.21.48-.06.33.04.34-.52.46-.4.85-.93,1.15.37-.26.16.23.04.63.06.04.02.11-.05.18-.05.2-.04.33.13.26-.47.31-.11.28-.49.46.09-.17.13-.35.16-.53-.09.08-.18.17-.21.24-.51.53-.08,1.04-.37,1.53l-.04-.46s-.08.14-.12.3c-.04.48.04.5.11.55-.06.04-.13.07-.19.1,0,.04,0,.07.02.09-.02,0-.05-.03-.08-.06-.23.09-.48.13-.66.08-.09.45-.08.89.02,1.21.06.04.08.14.1.25.04.07.09.13.14.16.05-.14.09-.26.12-.36.05-.39.12-.77.14-1.16.14.02.13.31.1.58.12-.28.21-.58.32-.87.05.04.1.14.09.49-.19.19-.31.31-.41.45-.02.25-.01.48.14.5l-.59,1.28c.04-.13.12-.47.06-.56l-.17.28c.03-.09.05-.19.08-.29h-.02c-.2.58-.16.29-.42.62-.09-.77-.5-2.25-.76-2.81l-.07.73-.22.11c-.12.95.61,2.12.79,2.45-.11.21-.28.26-.43.22l-.08.34c-.06-.08-.21-.04-.05-.39-.13-.07-.23-.17-.26-.24-.4.98.42,1.28-.04,2.25l.07-.08v-.07s.03.04.03.04l.17-.21c-.02.13-.14.39-.23.62l-.03.37c0-.08-.03-.1-.07-.11-.03.1-.04.15,0,.14-.21.13-.58.18-.64-.02l.08.49c.07.03.07.21.06.38l.03.17s-.01-.04-.03-.06c0,.04,0,.08,0,.11,0-.05,0-.09-.01-.12-.12-.11-.45-.19-.5-.26-.15.35.28.81.44.62-.58.57-.36.46-.97.86-.04.14.19.17.38.14v-.15s.07-.14.07-.14l-.03.29c.08-.02.15-.05.18-.08-.05.35-.15.57-.25.74v.02s0-.02,0-.02c-.05.08-.09.14-.14.21.14-.83-.91-.62-1.18-.9l.62,2.17c-.05-.09-.42-.4-.48-.41.28.25-.2,1.61-.63,2.57-.06.18-.11.35-.16.51l-.04-.08-.04.08.04-.09-.04-.09c-.11.04-.34.43-.42.74v.47s-.06-.09-.06-.09l.03-.22c-.03-.06-.01-.12.03-.2v-.03s0,.02,0,.02c0-.02.02-.04.03-.07-.56.47.25,1.06-.38,1.52.3-.54.18-.72.02-.76-.04.53-.74,1.49-.17,1.49-.24.24-.31.53-.52.4l-.28,1.24c0-.1-.1-.24-.29.07.37-.59.24-1.39.7-1.58-.27-.15-.54.01-.63-.39-.45,1.25-.3,2.14-.35,3.05l-.72.96.1.11-.41.02c0,.17.03.28-.01.3-.04,0-.07-.04-.09-.12-.04.12-.06.23-.05.3-.19-.04-.29-.33-.36-.61.11-.07.21-.13.32-.2-.06-.29-.15-.52-.4-.28,0,.05,0,.12,0,.18-.05-.19-.11-.32-.21-.25l-.24.88c.09-.07.25-.16.43-.27-.04.61-.07,1.31.37.97l-.49.52c-.04.88-.03.73-.28,1.71-.14-.01-.1-.29-.27-.18,0,.81-1.26,1.3-1.03,1.6-.2.54.15.36.06.73-.03-.03-.08-.1-.14-.01v.5c-.16.11.05-.44-.28-.06-.24.83-.37,1.32-.82,1.88-.44.9.65-.12.19.59-.24,0-.51-.02-.79.42-.01.32.15.37,0,.83l-.26-.19c-.19.39-.34.71-.55.59-.07.37-.23.57-.37.7-.21.65.82-.08,1.01-.15-.56.43-.68.89-1.21,1l.23-.53c-1,.84-.24,1.23-1.12,1.36.25-.34.37-.86.09-.74l-.19.6c-.11.02.14-.33-.1-.14-.03.18-.08.57-.08.76v-.02s-.51.89-.51.89c.05-.12-.01-.17-.12-.03l-.24.7c.05-.23-.15-.09-.37.15-.58.74.2,1.02-.45,1.46.06-.09.04-.12.1-.21l-.32.24c.55.46-1.17,1.86-.66,2.3-.53.28-.16-.06-.03-.8l-.49.35c.11-.2.27-.33.35-.57-.67.44-.77,1.22-.86,1.65-.24.18-.29-.47-.66.25-.55,1.01.53.11.2.71l-.57.2c-.29.87-.86,1.27-1.32,1.84-.07.15-.09.24-.08.3-.59.54-.66,1.57-1.13,1.95.03-.15-.39.13-.5.14l-.49.97c.22-.43.05-.53-.05-.72-.19.27-.2.46-.32.66.03-.15.06-.31-.12-.22l-.43,1.08c.07-.03.16-.12.23-.2-.17.22-.45.77-.83.99-.04-.08-.01-.23-.05-.3.38-.13.35-.39.34-.62-.45.63-.16.12-.5.32-.33.43-.26.77-.04.77-.44.43-.61.55-.84,1.17l-.14-.27-.29.51.03-.58c-.83.75.24.46-.65,1.32l-.19-.15c-.22.43-.01.82-.46.92-.17.45.75-.4.12.48-.22.07-.56.31-.81.51-.13.3.3.05.47-.14-.97,1.21-1.27.18-1.98,1.46.46-.26.07.62.85-.27-.27.52-1,.6-1.2,1.21l.02-.49c-.15.15-.22.41-.27.52l-.15-.19c-.17.82-1.04.87-.93,1.56-.12-.51-.34.42-.66.52.17-.65,1.15-1.27.9-1.6-.27.13-.29.44-.56.56.08-.18.18-.45.17-.56-.77.53-.78,1.23-1.07,1.72l.59-.79c.24.33-.24.38-.2.79-.48.22-.51.72-.88.93.07-.08.05-.11.12-.19-.7.81-1.39.57-1.7.86-.33.26-.73.97-.41.88-.16.32.92-1.09.86-.3-.86.02-.73,1.04-1.96,1.71.26-.56-.48,0-.23-.47-.41.48-.37.56-.45.88h-.27c-.29.88.12.4-.61,1.45.2-.4-.54.17-.41-.16-.25.24-.45.52-.56.78v-.05c-.82.97-.88.57-1.56,1.53h.16c-.93,1.23-2.49,2.37-3.57,3.52l.43-.28c-.2.15-.67.83-1.11,1.01.07-.07.16-.22.24-.27-.09-.08-.36-.1-.66.13l.02.24h-.21c-.43.37.31.08-.13.47-.62-.2-1.87,1.62-2.6,1.53-.05.55.88-.64.78-.09-.17.07-.28.06-.6.27l.25.1c-1.45.98-2.1,1.24-3.28,2.24l.02-.08c-.49.27-.69.49-.76.8-.16-.02.12-.31-.11-.25-.39,1.08-1.79.85-1.99,1.56-.23-.43-1.49,0-1.31-.63ZM64.32,32.45l.04-.15c-.08-.08-.16-.17-.04.15Zm-.49,31.66c.08-.27.22-.41-.05-.6-.14.11,0,.44.05.6Zm-.23,12.7c.08-.19.1-.36.09-.51-.11.2-.16.38-.09.51Zm-.6,12.76s.05.04.08.06c.02-.14-.02-.06-.08-.06Zm-2.61,7.48c.09.07.17.12.25.11,0-.05,0-.11.01-.18-.05-.22-.15-.12-.26.07Zm-3.71,18.71l-.03-.04s-.06.06-.08.05h.11Zm.34-.88c.07-.08.12-.14.15-.19v-.33c-.06.13-.12.26-.15.52Zm-.17.65s.02.13.04.21h0c.05-.09.09-.18.12-.27-.05-.01-.1-.03-.16.06Zm.3-.64s-.02.1-.02.14l.02-.14Zm1.38-2.92v.02c.12-.23.19-.34,0-.02Zm-.05-2.75c-.03.1-.03.19-.03.27.02-.07.04-.13.06-.21-.01-.08.05.03.12.04.03-.18.06-.33-.16-.1Zm1.24-8.48l.03.04s.06-.06.08-.06l-.11.02Zm-.22.04h0c-.04.09-.07.18-.09.27.05,0,.1.02.16-.07,0-.05-.03-.13-.06-.2Zm-.05.86c-.06.09-.11.15-.14.2l.02.33c.06-.14.11-.26.12-.53Zm.15-1.23l.32-.43c.19.23.02.55-.14.83.05.07.1.14.16.2h0s0,0,0,0c.1.11.22.18.35.07.24-.21.83-1.23.88-1.3-.14-.19-.67-.34-1.16-.35-.03.15-.08.25-.2.25,0-.08,0-.17,0-.24-.11,0-.21.02-.3.05.02.33.07.65.09.92Zm-.29,1.22s.01-.1,0-.14v.14Zm.28,2.31s.09-.02.13,0c0-.1,0-.22-.03-.34-.03.11-.07.22-.1.33Zm-1.44.67v-.02c-.11.23-.17.35,0,.02Zm.18,2.17c.1-.06.23-.27.3-.31.07-.25.15-.48.22-.69l-.18.34c.05-.21.17-.38.28-.58.07-.2.14-.4.22-.6.01-.06.02-.12.03-.19-.21.06-.36-.47-.74-.05-.5,1,.04,1.11-.12,2.08Zm-.09.54c.03-.1.03-.19.03-.26-.02.07-.04.13-.06.21.01.08-.05-.03-.12-.04-.03.18-.06.33.16.09Zm.16,2.33l.02-.08c0-.47,0-1.26.32-1.3,0,.3-.05.73-.04,1.01.05-.05.1-.17.14-.43.09-1.02-.13-1.84-.53-1.97l-.02.08c0,.46,0,1.25-.32,1.29,0-.3.05-.73.03-1-.05.05-.1.17-.14.43-.08,1.01.13,1.84.53,1.97Zm-.32.42c-.07.26-.15.48-.22.69l.18-.34c-.05.21-.17.38-.27.58-.08.2-.16.39-.24.6-.01.06-.03.12-.03.19.22-.05.34.49.73.08.55-.99-.02-1.12.15-2.1-.1.06-.23.27-.3.31Zm-1.15,2.83c.04-.11.09-.21.12-.33-.05.01-.09.02-.13,0-.01.1-.01.22,0,.33Zm-.67,4.14c.04-.15.1-.24.22-.23,0,.08-.01.17-.02.24.11,0,.21,0,.3-.02.01-.33-.02-.66-.01-.94l-.35.4c-.17-.25.03-.55.21-.82-.04-.07-.09-.15-.14-.21h0s0,0,0,0c-.09-.12-.2-.19-.35-.1-.26.19-.93,1.14-.98,1.21.13.21.64.41,1.12.46Zm-.62,2.36c-.08-.08-.16-.14-.23-.14,0,.05-.02.11-.03.18.02.23.13.14.26-.03Zm-3.88,6.91s-.04-.05-.06-.08c-.04.13,0,.07.06.08Zm-4.56,12.47c.18-.15.29-.3.28-.44-.14.15-.23.3-.28.44Zm-5.63,11.62c.19-.03.23-.38.27-.55-.22.19-.41.25-.27.55Zm-20.36,23.49l-.14.07c0,.12-.02.23.14-.07Z"/>
        <path class="cls-1" d="m27.87,169.95l-.04.05s.03-.04.04-.05Z"/>
        <path class="cls-1" d="m14.9,180.13s-.03,0-.05,0h.05Z"/>
        <path class="cls-1" d="m40.02,152.88l-.04.08s.03-.05.04-.08Z"/>
        <path class="cls-1" d="m47.16,139.8c-.06.02-.1.01-.15,0,0,.08.05.1.15,0Z"/>
        <path class="cls-1" d="m34.5,161.41l-.02.02s.01.03.02.05v-.07Z"/>
        <path class="cls-1" d="m59.08,100.03s-.13.05-.13-.03l-.04.43c.04-.23.11-.3.18-.4Z"/>
        <path class="cls-1" d="m58.95,100v-.05s0,.04,0,.05Z"/>
        <path class="cls-1" d="m58.53,102.95c.09-.14-.23-.16-.13-.23-.21-.23.06,1.11.13.23Z"/>
        <polygon class="cls-1" points="60.28 99.64 60.43 99.87 60.55 99.58 60.28 99.64"/>
        <path class="cls-1" d="m58.39,108.03c-.02-.15,0-.37-.1-.31l-.09.59c.07.08.16-.06.19-.28Z"/>
        <polygon class="cls-1" points="55.99 116.07 56.04 116.01 56.18 115.65 55.98 116.07 55.67 115.98 56.12 116.26 56.16 116.12 55.99 116.07"/>
        <path class="cls-1" d="m54.45,123.51c0-.07,0-.15,0-.23-.01.13-.01.19,0,.23Z"/>
        <polygon class="cls-1" points=".75 191.97 .34 192.16 .67 192.12 .75 191.97"/>
        <path class="cls-1" d="m.31,192.8l-.28-.19-.03.4c.07-.07.21-.22.31-.21Z"/>
        <path class="cls-1" d="m43.1,149.13l-.05-.07c-.1.02-.17.1-.29.28l.34-.21Z"/>
        <polygon class="cls-1" points="39.62 154.21 39.68 154.12 39.33 154.13 39.62 154.21"/>
        <path class="cls-1" d="m37.4,158.12s-.06.08-.08.12c.03-.04.06-.08.08-.12Z"/>
        <path class="cls-1" d="m37.04,158.69c.1-.13.18-.3.27-.45-.23.29-.57.3-.27.45Z"/>
      </g>
      <g>
        <path class="cls-1" d="m63.56,8.72c.02.06.17-.09.21-.1-.1-.05-.25.14-.21.1Z"/>
        <path class="cls-1" d="m62.39,6.81s.01-.03.02-.04c-.01-.01-.03-.04-.05-.08-.09.11-.16,0,.03.11Z"/>
        <path class="cls-1" d="m62.4,6.77c.07.07.05-.12,0,0h0Z"/>
        <path class="cls-1" d="m62.07,6.48l.17.02c.05-.07,0-.17.07-.17-.13-.06-.18.01-.24.15Z"/>
        <path class="cls-1" d="m61.79,6.55l.08.02s.02-.05-.08-.02Z"/>
        <path class="cls-1" d="m61.94,6.59c-.09.06,0,.02.1.01l-.17-.04s-.12.12.07.02Z"/>
        <path class="cls-1" d="m61.87,6.88c.19.16.36-.03.17-.18-.02.1,0,.2-.17.18Z"/>
        <path class="cls-1" d="m61.73,5.75c-.06.04-.13.16-.2.23l.13.02c.01-.07,0-.17.08-.24Z"/>
        <path class="cls-1" d="m61.53,5.98l-.19-.03c.06.11.13.09.19.03Z"/>
        <polygon class="cls-1" points="61.6 5.29 61.31 5.34 61.41 5.33 61.6 5.29"/>
        <path class="cls-1" d="m61.17,5.08c.15-.04.14-.21.25-.22-.08-.06-.23-.05-.36-.03.1.02.14.1.11.26Z"/>
        <path class="cls-1" d="m60.86,4.83c.05,0,.13,0,.2,0-.05-.01-.11-.01-.2,0Z"/>
        <path class="cls-1" d="m61.23,5.74s.11-.13.1-.22l-.13.17.03.04Z"/>
        <path class="cls-1" d="m61.19,5.7h0s-.05-.08-.06-.1c0,.02.03.05.05.1Z"/>
        <path class="cls-1" d="m61.14,5.6h0s0,0,0,0Z"/>
        <path class="cls-1" d="m61.23,5.75s0-.01,0-.01c-.01.02-.02.02,0,.01Z"/>
        <path class="cls-1" d="m60.86,5.15c-.11,0-.16-.04-.22-.09.02.09.05.17.11.24.06-.03.18-.08.12-.14Z"/>
        <polygon class="cls-1" points="59.89 4.09 59.88 4.14 59.9 4.11 59.89 4.09"/>
        <path class="cls-1" d="m60.74,5.29s.07.07.11.09c0,0,.02-.01.03-.02v.02s.1-.02.13-.01c-.01.02-.02.03-.03.05.07-.04.15-.1.17.03-.23.25-.21.16-.39.14.09-.02.02-.14.07-.2-.06,0-.12,0-.12-.06-.02,0,0-.02.02-.04Zm.14.1c0,.07.05.05.09.03-.03,0-.06-.01-.09-.03Z"/>
        <path class="cls-1" d="m61.02,5.37h.01s0-.03-.01,0Z"/>
        <path class="cls-1" d="m60.08,3.79c-.11.03-.21.07-.31.12l.16.05.16-.17Z"/>
        <polygon class="cls-1" points="59.69 3.39 59.55 3.41 59.59 3.59 59.69 3.39"/>
        <path class="cls-1" d="m55.13,16.79l.04.08s-.02-.06-.04-.08Z"/>
        <path class="cls-1" d="m55.26,16.3l-.09-.03s.08.05.09.03Z"/>
        <path class="cls-1" d="m54.95,6.74c-.2.06-.51.1-.29.14l.22.02c-.02-.08.01-.12.07-.16Z"/>
        <path class="cls-1" d="m55.06,12.04h.07c-.07-.05-.13-.09-.19-.13.04.04.07.08.12.13Z"/>
        <path class="cls-1" d="m55.75,12.41c.05-.02.11-.05.17-.1l-.17.1Z"/>
        <path class="cls-1" d="m54.74,19.51l.2.13c.03-.12-.09-.09-.2-.13Z"/>
        <path class="cls-1" d="m56.53.16c-.08-.05-.12,0-.15.07.11.08.24.37.15-.07Z"/>
        <path class="cls-1" d="m52.93,16.08c.03.05.07.08.11.09-.03-.05-.06-.08-.11-.09Z"/>
        <path class="cls-1" d="m56.38.23c-.08-.07-.15-.02-.09.41.02.02.03.01.05.02,0-.17.01-.34.05-.44Z"/>
        <path class="cls-1" d="m52.33,29.14s-.02.01-.03.02c.03,0,.03,0,.03-.02Z"/>
        <path class="cls-1" d="m49.55,31.46s0-.08.01-.12c-.02.02-.03.05-.01.12Z"/>
        <path class="cls-1" d="m58.33,1.83c.07.07.01-.02,0,0h0Z"/>
        <path class="cls-1" d="m58.43,2.12c-.02-.07-.05-.14-.08-.21.01.04.04.11.08.21Z"/>
        <path class="cls-1" d="m58.42,1.94s.04.08.06.11c.01-.04,0-.09-.06-.11Z"/>
        <path class="cls-1" d="m58.33,1.83s-.05-.05-.1-.1c.04.04.08.11.11.18-.01-.04-.02-.07-.01-.07Z"/>
        <path class="cls-1" d="m52.96,23.82s-.01,0-.02,0c.07.08.07.05.02,0Z"/>
        <polygon class="cls-1" points="56.77 8.89 56.76 8.88 56.75 8.89 56.77 8.89"/>
        <path class="cls-1" d="m56.87,9.15c-.24-.16-.2-.21-.12-.27l-.63-.07.75.33Z"/>
        <path class="cls-1" d="m52.42,28.71h.01s-.01,0-.01,0Z"/>
        <path class="cls-1" d="m55.13,16.56v.03s0-.02,0-.03Z"/>
        <path class="cls-1" d="m54.04,22.54v.02s0-.01,0-.02Z"/>
        <path class="cls-1" d="m50.57,26.62h-.03s.03,0,.03,0Z"/>
        <path class="cls-1" d="m55.82,12.28s-.09,0-.13,0c.04.03.08.04.13,0Z"/>
        <polygon class="cls-1" points="54.7 19.48 54.7 19.49 54.74 19.51 54.7 19.48"/>
        <path class="cls-1" d="m59.05,2.59h.02s-.02,0-.02,0Z"/>
        <path class="cls-1" d="m59.02,2.76c.01-.07,0-.18.04-.17l-.15-.1c.08.08.09.18.11.27Z"/>
        <path class="cls-1" d="m58.11,1.82c.05.14.03-.38.06-.21.05-.36-.31.11-.06.21Z"/>
        <polygon class="cls-1" points="58.77 4.51 58.81 4.64 58.87 4.31 58.77 4.51"/>
        <path class="cls-1" d="m57.1,2.24c.02.12.04.19.06.21.02.05.03.07.05.06,0-.1.03-.12-.03-.32h-.07s0,.06,0,.06Z"/>
        <polygon class="cls-1" points="56.62 4.85 56.64 4.86 56.68 4.77 56.6 4.84 56.35 4.5 56.75 5.08 56.75 5.04 56.62 4.85"/>
        <path class="cls-1" d="m57.1,7.26s-.03-.05-.06-.08c.02.04.04.06.06.08Z"/>
        <polygon class="cls-1" points="49.18 31.87 49.04 31.97 49.23 31.93 49.18 31.87"/>
        <path class="cls-1" d="m49.43,32.3s-.02-.09.05-.1l-.32-.04.27.14Z"/>
        <path class="cls-1" d="m56.04,15.34l-.07-.03c-.09,0-.1.03-.13.09l.2-.06Z"/>
        <polygon class="cls-1" points="55.4 17.02 55.42 16.99 55.12 16.98 55.4 17.02"/>
        <path class="cls-1" d="m55.43,18.56s0-.1,0-.16c-.05.1-.32.1,0,.16Z"/>
        <path class="cls-1" d="m55.44,18.36s0,.03,0,.04c0-.01,0-.03,0-.04Z"/>
        <path class="cls-1" d="m56.4,11.4c-.03.05.18.08.21.1-.02-.11-.27-.11-.21-.1Z"/>
        <path class="cls-1" d="m57.16,9.28s.03,0,.04-.01c0-.02,0-.05.03-.09-.14,0-.09-.13-.07.1Z"/>
        <path class="cls-1" d="m57.19,9.27c-.01.09.13-.03,0,0h0Z"/>
        <path class="cls-1" d="m57.22,8.83l.09.15c.09,0,.13-.11.18-.06-.04-.14-.12-.13-.27-.09Z"/>
        <path class="cls-1" d="m56.99,8.65l.04.07s.05-.02-.04-.07Z"/>
        <path class="cls-1" d="m57.05,8.8c-.1-.03,0,.01.05.09l-.08-.16c-.06,0-.17-.02.02.07Z"/>
        <path class="cls-1" d="m56.78,8.93c0,.24.25.27.25.02-.09.05-.16.13-.25-.02Z"/>
        <path class="cls-1" d="m57.57,8.11c-.07-.02-.21,0-.3-.02l.06.11c.06-.03.13-.11.24-.09Z"/>
        <path class="cls-1" d="m57.27,8.09l-.1-.16c-.04.12.01.15.1.16Z"/>
        <polygon class="cls-1" points="57.85 7.71 57.62 7.52 57.7 7.6 57.85 7.71"/>
        <path class="cls-1" d="m57.75,7.25c.13.09.26-.02.33.06,0-.1-.11-.21-.2-.3.04.09,0,.17-.13.24Z"/>
        <path class="cls-1" d="m57.75,6.85s.08.1.13.16c-.02-.05-.06-.1-.13-.16Z"/>
        <path class="cls-1" d="m57.26,7.71s.17,0,.24-.06h-.22s-.02.06-.02.06Z"/>
        <path class="cls-1" d="m57.31,7.55h0s0,0,0,0Z"/>
        <path class="cls-1" d="m57.27,7.66h0s.03-.08.04-.1c0,.02-.02.05-.04.1Z"/>
        <path class="cls-1" d="m57.26,7.72s0-.01,0-.01c-.02,0-.03,0,0,.01Z"/>
        <path class="cls-1" d="m57.49,7.05c-.08-.08-.07-.15-.07-.23-.06.07-.1.15-.12.23.06.03.17.09.18,0Z"/>
        <polygon class="cls-1" points="57.5 6.51 57.47 6.49 57.5 6.51 57.5 6.51"/>
        <path class="cls-1" d="m57.31,7.05s0,.1,0,.14c.01,0,.02,0,.03.01h-.01s.07.08.09.11c-.02,0-.04,0-.05,0,.07.03.17.05.08.15-.34-.02-.25-.07-.35-.22.08.06.12-.07.2-.06-.05-.04-.08-.09-.03-.14,0-.02.01-.02.04,0Zm0,.18s-.01.07.04.09c-.02-.03-.03-.06-.04-.09Z"/>
        <path class="cls-1" d="m57.42,7.32h0s.03,0,0,0Z"/>
        <path class="cls-1" d="m57.8,6.7c-.09-.07-.18-.15-.27-.24l.07.1.2.14Z"/>
        <polygon class="cls-1" points="57.77 6.59 57.67 6.48 57.6 6.44 57.77 6.59"/>
        <path class="cls-1" d="m66.96,13.1l.09.02s-.06-.02-.09-.02Z"/>
        <path class="cls-1" d="m66.66,12.69l-.08.05c.06-.01.09-.03.08-.05Z"/>
        <path class="cls-1" d="m59.02,6.93c-.08.19-.24.46-.07.31l.15-.16c-.07-.03-.09-.09-.08-.15Z"/>
        <path class="cls-1" d="m63.22,10.18l.03-.06c-.07.03-.14.05-.21.07.05,0,.11,0,.17-.01Z"/>
        <path class="cls-1" d="m63.94,9.87c.02-.05.03-.12.03-.19l-.03.19Z"/>
        <path class="cls-1" d="m68.83,15.1l.22-.07c-.08-.1-.13.01-.22.07Z"/>
        <path class="cls-1" d="m57.83,5.32c.06.21.09.3.1.34-.07-.29-.18-.73-.1-.34Z"/>
        <path class="cls-1" d="m65.03,14.36c.06,0,.1,0,.14-.03-.06-.01-.1,0-.14.03Z"/>
        <path class="cls-1" d="m57.93,5.66c.05.22.08.34.05.06-.01-.05-.02-.07-.03-.11,0,.06,0,.1-.02.05Z"/>
        <path class="cls-1" d="m74.82,23.02s0,.02,0,.03c.02-.02.02-.03,0-.03Z"/>
        <path class="cls-1" d="m74.89,26.65s-.06-.05-.09-.08c0,.03.02.05.09.08Z"/>
        <path class="cls-1" d="m57.76,6.16s.02.04,0,0h0Z"/>
        <path class="cls-1" d="m57.68,6.06s.04.05.05.06c-.01-.02-.03-.04-.05-.06Z"/>
        <path class="cls-1" d="m57.76,6.19h-.02s.04.07.02,0Z"/>
        <path class="cls-1" d="m57.76,6.16s0-.02,0-.04c0,.02,0,.01-.02,0,.01.02.02.03.03.04Z"/>
        <path class="cls-1" d="m71.08,19.2s0,.01,0,.02c.11,0,.08-.02,0-.02Z"/>
        <polygon class="cls-1" points="61.83 6.86 61.82 6.87 61.82 6.88 61.83 6.86"/>
        <path class="cls-1" d="m62.11,6.95c-.27.09-.28.02-.28-.07l-.44.45.73-.38Z"/>
        <path class="cls-1" d="m74.55,22.68v-.02s0,.01,0,.02Z"/>
        <path class="cls-1" d="m75.44,26.91l.12.06c-.27.17-.23-.28-.53-.13l.04-.49c-.09.08-.26.14-.26.22-.06-.07-.12-.12-.18.08.09-1.18-1.07-1.4-1.26-2.34-.06-.03-.12.07-.17.13.14-.31-.22-.02-.31-.06l.2-.45c-.16,0-.22.15-.29.2-.34-.29-.27-.89-.69-1.01.05-.19.29-.2.25-.35-.22.42-.42-.16-.59.06.25-.39-.26-.46.3-.82-.08-.16-.32.06-.33.14-.11-.18-.21-.31-.48-.31.05-.19-.71-.64-.43-1.1-.18.3-.14.1-.33.09l-.16.26-.14-.23c-.06-.03-.06-.05-.04-.06-.02-.05.14-.09.12-.23-.1-.16-.23-.07-.41-.05l-.02.05-.1-.08c-.05-.08.43.08.36-.25-.07.05-.47.14-.36-.05.08.13.23,0,.26-.11l-.12-.18-.24.28c-.37-.5-.56-1.17-.99-1.67.26-.19-.28-.38.13-.62l-.02.05c.14.1.26-.27.14-.34-.03.2-.52.1-.37.4l-.34-.07c-.8.44-.37-.59-.84-.72.04,0,.09-.02.11-.04-.44-.1-.29-.77-.46-.74l.18-.18c-.48,0-.53,0-.63-.38.03-.02.12-.03.12-.11-.2.05-.39.09-.51-.13l.07-.04-.27-.28c.6-.47-.77-.23-.19-.83-.22.08-.45-.1-.61-.13.03-.02.05-.05.06-.09-.41.14-.16-.41-.3-.51-.14-.02-.22.09-.29.21.13-.37-.64-.23-.58-.38-.07-.14.19-.23.3-.36-.2-.13-.52.46-.47.03.05,0,.11.04.13,0-.02-.13.54-.84.33-.82l-.06.15c-.29-.05.18-.78-.25-.49l-.18.16c.02-.49-.17-.06-.18-.53l.03-.02c-.14-.1.04-.35-.31-.18v.08c-.15-.14-.14-.17-.26-.34-.04,0-.15-.04-.1-.11-.26.19-.41-.28-.45-.37.14.1.2-.05.27-.16-.26.09-.33.05-.26-.17-.33.23-.68.47-.86.28.07,0,.14.02.19-.05.05-.07-.06-.06-.1-.06.05-.07.15-.04.24-.15-.41.1-.21-.22-.47-.34.14-.01.16-.11.25-.22-.37.26.09-.52-.31-.08-.04-.61-.77-1.02-.59-1.4.1-.14-.2-.09-.26-.15l.16-.11c-.43.03-.22-.07-.68-.07.26-.05.31-.16.39-.37l-.45.1.22-.22c-.14.01-.16-.09-.18-.19-.31.14-.48-.12-.66-.04.27-.33-.23-.12.04-.41-.06.01-.12.01-.18,0-.12.15-.27.28-.25.17,0,0-.01,0-.02-.01l.17-.18c-.09-.03-.17-.08-.2-.12,0,.03-.02.08-.04.14,0-.05.02-.1.03-.15,0,0-.01-.02-.02-.02,0,0,.02,0,.02,0,.01-.07,0-.13-.1-.14.03-.56-.56.11-.33-.42-.02.06-.01.1.04.03-.07-.05,0-.52-.13-.39l-.08.26c-.09.06-.13.12-.15.06l-.06.34c-.03-.19-.07.42-.1-.46,0,.34-.06-.17-.07-.08l-.04-.37c-.05-.17-.06-.07-.07.02-.13-.56-.18-.55-.19-.44.01.16.03.31.02.33l-.03-.12.05.38c-.1-.36.07.25.03.18.05.2.01.14-.08-.04l-.02.04c-.07-.28-.18-.45-.34-.78l.11.34c-.08-.13-.11-.31-.15-.33.07.23.03.35.2.68.04.06.08.12.12.17,0-.02,0-.02,0,0,0,0,0,0,0,.01h0s.04.08.06.12c-.05-.02.02.08.1.21-.27-.38-.1-.08-.43-.47.22.25.17.26.17.31.05.07.04.06,0,.03,0,.04.04.09.16.21-.3-.28-.02,0-.28-.22.03,0,.02-.03,0-.08-.05-.04-.1-.08-.11-.07-.29-.16.18.34.06.3l-.14-.18s-.04,0-.03.03c.08.14.15.18.23.24-.04-.02-.09-.04-.14-.07l.03.03s-.05-.03-.08-.06c-.18-.08-.38-.17-.55-.26.03.14.17.3.35.41.06.03.11.06.17.09.06.03.12.05.18.07,0-.02,0-.03,0-.05-.07-.08-.14-.17-.21-.27.13.07.18.14.25.21l.05-.09c.06.04.12.09.2.17-.11-.04-.19-.06-.23-.06.06.06.13.11.28.16l-.06.03s-.02,0-.03.02l-.05.09s-.02-.15-.11-.15c-.02,0-.05.01-.07.05,0-.03,0-.06-.01-.06,0,0,0,0-.01,0-.01.13-.06.06-.22.14-.15-.16-.43-.31-.72-.53-.28-.22-.56-.53-.74-.72l.11.35h-.17c.12.48,1.15.88,1.41,1.04-.05.06-.19.06-.33.03l.02.11c-.08-.03-.21-.04-.16-.14-.14-.04-.27-.09-.31-.11-.1.29.76.49.6.77l.04-.02v-.02s.02.01.02.01l.1-.05s-.02.12-.04.19l.07.12s-.06-.04-.09-.04c0,.03,0,.05.04.05-.16.02-.49,0-.61-.08l.22.18c.07.02.12.08.17.14l.07.06s-.02-.02-.05-.02l.03.04-.05-.04c-.14-.05-.48-.11-.54-.14-.04.1.5.31.59.26-.39.13-.19.12-.63.2.01.05.23.08.4.09l-.04-.05v-.04s.07.1.07.1c.07,0,.12,0,.14-.01.06.12.05.19,0,.24h0s0,0,0,0c-.02.02-.04.04-.06.06-.15-.28-1.03-.31-1.38-.43l1.28.82c-.08-.04-.52-.18-.57-.19.34.11.34.54.26.84.01.06.02.11.02.16l-.06-.03v.02s0-.03,0-.03l-.07-.04c-.09,0-.17.12-.14.22l.15.16-.08-.04-.04-.07c-.05-.03-.05-.04-.04-.07h0s0,0,0,0v-.02c-.35.12.58.39.17.49.08-.16-.08-.24-.25-.27.12.18-.12.47.38.51-.12.07-.08.16-.33.1l.21.42s-.18-.09-.24,0c.11-.18-.3-.48.04-.5-.3-.07-.48-.04-.71-.19.06.41.52.74.82,1.06l-.29.28.13.05-.36-.02c.07.06.13.1.1.1-.03,0-.08-.02-.12-.05,0,.04.03.08.06.1-.19-.03-.38-.14-.56-.24.07-.02.15-.03.21-.05-.16-.11-.33-.19-.46-.13l.06.06c-.12-.07-.22-.12-.28-.1l.11.29c.05-.02.16-.04.29-.06.19.21.43.46.69.37l-.25.15c.29.31.23.25.42.59-.12-.01-.21-.11-.31-.08.34.29-.57.39-.24.51.05.18.28.14.36.26-.04-.01-.11-.04-.12-.01l.22.18c-.1.03-.15-.15-.29-.04.13.28.23.45.06.62,0,.3.52,0,.42.22-.21-.01-.46-.04-.53.11.12.11.28.14.34.29l-.31-.08c-.02.13.02.24-.22.19.11.13.07.2,0,.24.12.23.66,0,.8,0-.28.13-.17.29-.57.31l-.05-.18c-.47.26.36.43-.33.44.05-.11-.08-.3-.27-.26l.12.21c-.09,0-.03-.11-.15-.05.06.07.19.2.29.27h-.02s-.02.29-.02.29c-.01-.04-.09-.06-.11-.01l.12.24c-.06-.08-.18-.04-.25.04-.16.24.65.37.29.5.01-.03-.02-.04-.01-.07l-.16.07c.66.17-.08.64.58.81-.3.09-.16-.03-.43-.29l-.23.12c-.01-.07.05-.11,0-.2-.33.15-.02.42.13.58-.11.06-.48-.18-.43.08.05.35.5.05.53.26l-.38.06c.21.31-.07.44-.16.64.02.05.05.08.08.1-.2.19.23.54.08.68-.06-.06-.24.05-.33.05l.14.35c-.06-.15-.26-.19-.44-.26,0,.1.1.17.11.24-.06-.06-.12-.11-.22-.08l.25.39s.06-.04.07-.07c-.02.08.07.28-.12.36-.07-.03-.14-.08-.21-.11.24-.05.07-.14-.07-.22-.02.23-.06.04-.23.12-.03.16.22.28.39.28-.11.16-.18.2-.02.42l-.26-.1.05.18-.3-.21c-.25.27.45.16.21.48l-.24-.05c.06.15.45.29.14.33.11.16.38-.15.36.17-.13.03-.25.12-.32.2.08.11.26.01.28-.06-.02.45-.87.09-.65.56.2-.1.43.22.5-.11.1.19-.41.23-.2.46l-.27-.18c-.02.06.07.15.1.19l-.23-.07c.36.3-.28.34.22.58-.4-.18-.01.16-.19.2-.26-.24.12-.48-.26-.59-.14.05.04.17-.09.22-.04-.07-.13-.17-.2-.21-.28.21.14.46.2.64l-.02-.3c.38.11.04.14.32.29-.24.09.04.27-.12.35,0-.03-.03-.04-.02-.07-.06.31-.71.24-.75.36-.08.11.08.38.26.34.08.12-.02-.43.44-.14-.62.04.13.41-.35.69-.17-.21-.35.02-.47-.16,0,.19.09.22.24.33h-.19c.35.34.35.15.48.56-.11-.15-.29.08-.4-.04-.03.1,0,.2.09.3l-.02-.02c.01.38-.3.24-.17.62h.12c.19.49-.12.99-.09,1.46l.11-.12c-.03.07.1.33-.09.43,0-.03-.04-.09-.02-.11-.12-.02-.32-.01-.37.09l.18.08h-.15c-.04.17.28.02.24.19-.56-.03-.23.68-.73.72.36.2.13-.29.45-.09-.07.04-.15.04-.2.14l.24.02c-.24.46-.49.6-.54,1.05l-.05-.03c-.13.14-.1.23.08.34-.12,0-.14-.12-.25-.08.53.41-.56.45-.19.71-.46-.13-.99.13-1.32-.11l.03.13c-.3-.11.07-.35-.23-.49l.4-.28c-.12-.02-.28-.11-.33-.07.01-.09.02-.17-.18-.09.98-.67.42-1.71,1.03-2.45-.01-.06-.13-.06-.21-.05.33-.09-.12-.18-.14-.28l.48-.13c-.11-.12-.25-.08-.34-.11.01-.45.53-.77.35-1.17.18-.07.34.11.43-.03-.47.09-.14-.43-.42-.42.45-.05.2-.49.82-.28.08-.16-.24-.21-.31-.17.07-.2.11-.36-.05-.57.18-.08.05-.96.58-1.02-.35.05-.16-.05-.27-.2l-.31.04.09-.26c-.01-.06,0-.07.03-.07.02-.04.16.05.26-.05.06-.18-.09-.22-.22-.35l-.05.02v-.13c.03-.09.21.38.42.12-.08-.02-.41-.28-.19-.31-.05.15.15.17.25.14l.07-.21h-.37c.16-.61.56-1.18.68-1.83.31.08.12-.45.57-.29h-.05c0,.18.37.05.35-.09-.18.1-.4-.35-.55-.04l-.16-.3c-.85-.34.23-.66.03-1.11.03.03.07.05.1.06-.2-.41.41-.71.29-.82l.25.03c-.3-.38-.33-.42-.1-.73.04.01.1.07.16.03-.16-.12-.32-.25-.21-.48l.07.03.05-.38c.74.17-.31-.74.52-.67-.2-.12-.21-.41-.28-.56.03,0,.07,0,.11,0-.37-.24.22-.38.21-.55-.07-.13-.21-.11-.35-.09.36-.13-.22-.65-.07-.69.07-.14.3.01.47,0-.02-.24-.68-.12-.32-.35.02.04.04.11.09.1.09-.1.99-.11.85-.26l-.15.04c-.14-.25.72-.35.23-.5l-.24-.03c.39-.29-.06-.17.3-.47h.04c0-.16.3-.17-.05-.34l-.06.04c.02-.2.05-.21.11-.41-.03-.03-.06-.14.02-.15-.31-.08-.04-.5,0-.58,0,.17.16.12.3.11-.23-.15-.24-.22-.03-.31-.38-.11-.79-.23-.76-.49.05.05.07.12.15.12.09,0,.01-.09-.01-.11.09,0,.13.09.27.09-.33-.26.04-.3-.03-.58.1.11.19.06.33.06-.44-.12.46-.25-.13-.29.45-.41.31-1.24.72-1.34.17-.01-.06-.21-.04-.3l.19.06c-.29-.32-.09-.22-.38-.58.2.17.32.14.53.07l-.36-.28.31.03c-.1-.11-.03-.18.03-.26-.31-.15-.21-.44-.38-.54.42,0-.05-.25.34-.23-.05-.04-.09-.09-.12-.14-.19,0-.39-.03-.28-.09,0,0,0-.01,0-.02l.24.02c-.04-.09-.04-.18-.04-.23-.03.02-.08.04-.14.05.04-.03.09-.05.14-.07,0-.01,0-.02,0-.03,0,0,0,.01,0,.02.07-.04.1-.08.04-.17.39-.06-.27-1.09.3-1.32-.06.04-.11.14-.04.21.08-.44.46-.55.36-.93l-.19-.17c-.01-.39-.01-.72.06-.96l-.19-.3c.15-.25.08-1.73.49-1.19-.11-.41.16-.43.16-.75l.13.29c.1-.15.09-.43.1-.71.22.16.25-.21.28-.67.1.05.2.08.32.26l.02.12c.08.03.17.06.26.1-.03.25.02-.16.14.06.08-.05.26.26.4.64l.2.27c-.2-.05.04.51.06.89.03-.06.07-.11.1-.16.05.23-.07.2.01.38.07-.11.28.18.38-.07,0-.1-.03-.21-.06-.33-.01,0-.01,0,0-.01v-.03s0,.02,0,.02c.01-.02.03-.05.04-.09.15.28.11.07.11-.09.13.73.28.53.31,1.24-.03-.48.1-.23.23-.08.03-.07.04-.03.06.06.06.06.12.05.13-.17,0,.58.09.14.05.59-.04-.1-.1-.15-.16-.18,0,.11.02.21.04.25.04.57.38.08.48.41-.07,0-.14.02-.2.03,0,.04.03.09.07.13.18.05.23-.02.28-.09-.01.06-.03.13-.04.19.02,0,.03,0,.04-.01-.01.02-.03.04-.06.07-.07.23-.17.45-.28.61.13.07.34.05.55,0,.05-.04.11-.05.18-.06.06-.03.12-.06.16-.09-.05-.05-.08-.09-.12-.13-.17-.07-.33-.14-.48-.19.08-.13.19-.1.32-.06l-.25-.36c.04-.05.1-.09.27-.04,0,.2,0,.32.02.41.12.03.24.05.33-.07l.19.32.09.15.04.1s-.13-.08-.23-.06c.02.06.03.11.03.13-.03-.02-.06-.05-.09-.07v.02c.14.17.02.11,0,.29-.19.05-.56.09-.89.2-.33.11-.6.31-.76.46.07-.02.13-.03.21-.04l-.09.15c.24-.05,1.31-.46,1.57-.6.02.07-.07.18-.19.28l.1.05c-.07.04-.16.14-.21.03-.12.09-.23.15-.28.17.17.26.85-.28.98.01v-.04s-.02,0-.02,0l.03-.02.02-.11s.08.09.12.15l.14.02s-.07.02-.09.05c.02.02.04.03.06,0-.08.14-.31.38-.44.43l.28-.06c.06-.04.14-.05.21-.05l.09-.02s-.03,0-.05.02h.05s-.06,0-.06,0c-.13.08-.39.3-.45.33.05.1.55-.19.57-.3-.14.38-.02.23-.23.61.04.02.21-.13.32-.25h-.07s-.03-.03-.03-.03h.11s.07-.08.08-.1c.13.02.17.08.19.14h0s0,0,0,0c0,.03,0,.06,0,.08-.31-.06-.89.61-1.2.8l1.44-.48c-.08.04-.46.29-.5.33.3-.19.64.08.81.32.05.03.1.06.14.09l-.06.03v.02s0-.02,0-.02l-.07.03c-.05.07-.02.21.08.25l.22-.02-.08.04h-.08c-.05.01-.06,0-.08-.02h-.01s.01,0,.01,0v-.02c-.15.35.65-.2.47.19-.08-.16-.23-.09-.36.02.21.02.29.39.64.02-.02.14.08.17-.13.32l.46.1c-.06.01-.19.08-.15.19-.07-.2-.56-.06-.37-.35-.25.19-.33.35-.6.43.36.21.9.05,1.33.02l.04.41.12-.08-.24.27c.09-.02.16-.04.14-.01-.02.03-.06.05-.12.07.04.02.08.02.12.01-.14.13-.35.21-.54.28.03-.07.07-.13.1-.2-.18.06-.36.13-.39.28.03,0,.06,0,.09,0-.13.05-.23.1-.26.15l.3.1c.02-.05.07-.15.13-.26.28-.02.62-.04.72-.31l-.04.29c.42-.03.34-.02.72.04-.09.09-.22.09-.26.19.44-.08-.05.69.25.5.17.08.28-.14.43-.11-.03.02-.1.06-.09.09l.28-.06c-.04.1-.21.02-.21.2.3.07.49.1.52.34.23.19.32-.41.43-.19-.14.16-.32.34-.25.47.16-.03.28-.13.44-.08l-.26.19c.09.09.2.13,0,.28.17,0,.2.07.19.14.25.05.42-.51.49-.63-.07.3.12.31-.12.64l-.17-.08c-.09.53.57-.01.13.54-.06-.11-.28-.12-.37.04l.24.04c-.05.07-.11-.04-.14.08.09,0,.28-.02.39-.05h-.02s.22.21.22.21c-.04-.02-.1.03-.08.08l.26.06c-.1,0-.14.11-.12.22.09.27.7-.27.57.09-.01-.03-.05,0-.06-.04l-.05.17c.55-.4.45.46,1,.06-.12.29-.12.11-.5.15l-.05.25c-.06-.04-.06-.11-.15-.13-.09.35.32.28.53.26-.03.12-.44.26-.21.38.31.18.35-.36.54-.25l-.19.33c.37.03.3.33.39.53.05.02.1.02.13,0,.02.27.56.16.58.37-.08.01-.11.21-.17.28l.36.11c-.16-.05-.31.08-.48.18.08.06.19.03.25.07-.08.01-.16.03-.2.12l.46.05s0-.07,0-.1c.05.06.26.12.2.32-.07.04-.15.05-.22.09.11-.21-.07-.14-.22-.09.17.15,0,.08-.05.25.1.12.35,0,.46-.13.05.19.04.27.32.28l-.24.14.17.08-.35.1c.05.37.41-.24.51.13l-.19.15c.16.05.51-.16.34.1.2.01.13-.39.36-.17-.06.12-.06.27-.04.37.14,0,.17-.19.13-.25.34.3-.47.73.03.86.05-.22.44-.19.22-.46.21.04-.08.47.24.44l-.31.1c.03.05.16.04.21.04l-.2.14c.46-.09.09.43.59.19-.39.2.12.11.04.28-.34.05-.3-.4-.63-.17-.04.14.15.07.11.21-.08,0-.21,0-.29.03-.01.35.45.18.63.24l-.25-.17c.33-.23.13.06.43-.07-.08.24.23.14.2.31-.02-.03-.05,0-.07-.03.2.24-.25.7-.19.81.03.13.35.17.43,0,.15.01-.35-.25.17-.43-.36.51.4.15.32.7-.27,0-.2.28-.42.26.15.12.23.07.41.03l-.11.16c.48-.07.32-.18.72-.03-.19,0-.12.28-.28.29.05.09.16.13.29.12h-.03c.3.24,0,.39.37.52l.07-.1c.51.16.7.72,1.09.99l-.03-.17c.03.07.32.13.28.34-.03-.02-.1-.02-.1-.05-.1.08-.21.24-.16.34l.18-.08-.09.13c.1.13.19-.21.29-.07-.37.41.39.61.1,1.02.38-.16-.15-.28.21-.41-.02.08-.06.14-.02.25l.16-.18c.21.48.17.76.48,1.08l-.05.02c.03.18.11.22.32.15-.07.09-.18.04-.22.15.65-.15,0,.72.44.59-.39.28-.52.85-.91.96Zm-24.14-2.8l-.07.03c.06.04.12.08.07-.03Zm4.02-8.56c-.1.06-.23.07.02.19.15,0,.02-.13-.02-.19Zm.27-3.76c-.07.04-.09.09-.08.14.1-.04.15-.08.08-.14Zm-.19-3.86s-.05-.02-.08-.03c0,.04.03.02.08.03Zm1.64-1.72c-.08-.06-.17-.13-.23-.17,0,.01,0,.03.01.05.07.1.15.11.22.11Zm1.64-2.58l-.02.04s0,.08,0,.11v-.15Zm-.21-.35c-.02-.09-.03-.15-.04-.2-.03,0-.06.02-.08.04.03.09.06.15.13.16Zm.16.14s.04-.04.07-.09h0c-.02-.06-.04-.1-.07-.14,0,.07-.02.15,0,.22Zm-.16-.34s.03.01.04,0c-.01,0-.03,0-.04,0Zm-.86-1.82v-.02c-.08-.18-.12-.29,0,.02Zm-.42.74s.03,0,.04-.02c-.02-.02-.03-.04-.05-.07,0,.05-.02-.11-.05-.28-.03-.01-.06-.03.06.37Zm-.11,3.35l-.03-.05s-.03-.03-.05-.05l.08.11Zm.16.21h0s.03,0,.03-.01c-.04-.06-.08-.12-.11-.14.01.03.04.09.07.16Zm-.07-.34s.06.05.07.07c-.02-.06-.03-.12-.05-.18-.03,0-.05,0-.02.11Zm.05.39c-.06-.05-.12-.09-.19-.13-.18-.28-.08-.28,0-.24l-.14-.26h0s0,0,0,0c-.09-.17-.18-.33-.27-.41-.16-.16-.52-.11-.55-.09.13.24.58.74.97,1.16,0-.04.03-.03.12.08.01.03.03.07.04.1.08.09.16.18.23.25-.06-.13-.15-.31-.21-.45Zm.05-.23s0,.03.01.06c0-.02,0-.04-.01-.06Zm-.44-1.67c-.03-.06-.06-.12-.08-.19,0,.06.02.16.05.26.01-.02.03-.05.04-.07Zm.85,1.88s0,.01,0,.02c.03.05.06.1,0-.02Zm-.35-1.73c-.05-.15-.1-.22-.13-.32-.02.07-.04.1-.06.12l.07.07c0,.06-.06,0-.1-.05l-.08.05s0,.05,0,.08c.13.32.27.86.46,1.24.2.32-.15-.75-.16-1.19Zm0-.24s0,.09,0,.15c0-.02,0-.03.01-.04-.01-.08.03.12.07.28,0-.07,0-.14-.09-.39Zm-.06-1.6h-.02c-.04.1-.09.32-.2-.05-.01-.04-.03-.1-.06-.19v-.09c.02-.09.08-.11.1-.22-.03-.09-.07-.17-.11-.18-.02.02-.04.05-.05.1.04.78.21,1.68.4,2.41v-.02c-.04-.31-.09-.83,0-.59.02.06.04.13.06.24v.04c.02.23.03.43.07.66.02.06.04.08.03-.05-.01-.1-.02-.2-.03-.32-.01-.37-.06-1.02-.18-1.75Zm.17.53c.05.07.1.15.15.24l-.1-.27s.1.22.16.38c.04.09.09.19.14.29.01,0,.02.02.03.01-.06-.39.01-.73-.16-1.38-.35-.88-.21.25-.38.2.06.21.11.38.15.52Zm.63,1.34l-.06-.11c0,.07.01.15.01.22.01-.01.03-.05.05-.11Zm.92.12s-.05-.1-.02-.25c.03,0,.05,0,.08,0,.03-.13.05-.26.06-.37-.12,0-.23.06-.31.09l.06.42c-.11.24-.15.04-.2-.17l-.07.23h0c-.04.15-.07.32-.07.5.02.33.07.95.07.98.08-.2.28-.83.41-1.42Zm.64.58c-.07.07-.13.15-.16.22.01.01.03.02.05.03.1-.02.12-.12.11-.25Zm.61,2.74s-.05.03-.08.04c.03.03.03,0,.08-.04Zm3.18,2.43c.03-.1.03-.17-.05-.15-.01.08.01.13.05.15Zm2.86,2.51c.09-.12-.09-.09-.16-.1-.01.11-.09.23.16.1Zm3.98,8.4l-.02.07c.07-.02.14-.04.02-.07Z"/>
        <path class="cls-1" d="m70.76,17.55h.02s0,0-.02,0Z"/>
        <path class="cls-1" d="m71.76,22.82l-.02.03.02-.03Z"/>
        <path class="cls-1" d="m66.78,12.95l.02.02s-.01-.01-.02-.02Z"/>
        <path class="cls-1" d="m63.88,9.73s-.06.07-.09.1c.04-.01.08-.04.09-.1Z"/>
        <polygon class="cls-1" points="68.79 15.12 68.79 15.13 68.83 15.1 68.79 15.12"/>
        <path class="cls-1" d="m57.69,6.31s.09.12.11.14l-.04-.09s-.04-.02-.07-.05Z"/>
        <path class="cls-1" d="m57.8,6.46h0s0,0,0,0Z"/>
        <path class="cls-1" d="m57.66,5.85c-.04-.06.18.39.12.28.17.41-.19-.57-.12-.28Z"/>
        <polygon class="cls-1" points="56.81 5.34 56.66 5.1 56.6 5.14 56.81 5.34"/>
        <path class="cls-1" d="m57.2,2.78c.02.17.03.3.07.46v-.27s0,0,0,0c-.02-.1-.04-.19-.06-.25-.01-.02-.02,0-.02.06Z"/>
        <polygon class="cls-1" points="58.65 4.51 58.64 4.47 58.58 4.35 58.64 4.54 58.56 4.95 58.72 4.32 58.69 4.29 58.65 4.51"/>
        <path class="cls-1" d="m60.77,5.59s-.06,0-.1,0c.05,0,.08,0,.1,0Z"/>
        <polygon class="cls-1" points="74.97 27.19 74.97 27.36 75.05 27.19 74.97 27.19"/>
        <path class="cls-1" d="m75.42,27.16l-.24.22.28-.12s-.09-.04-.04-.11Z"/>
        <path class="cls-1" d="m66.41,11.48l-.07.04c-.05.07-.04.1-.01.15l.08-.19Z"/>
        <polygon class="cls-1" points="67.31 13.03 67.3 13 67.1 13.23 67.31 13.03"/>
        <path class="cls-1" d="m68.38,13.84s.02.02.03.03c0-.01-.01-.02-.03-.03Z"/>
        <path class="cls-1" d="m68.53,13.97s-.08-.06-.12-.09c.04.1-.12.31.12.09Z"/>
      </g>
    </g>
  </g>
</svg>